<svg width="24" height="24" viewBox="0 0 24 24" fill="none" xmlns="http://www.w3.org/2000/svg">
<path d="M12 9.33107C16.9706 6.48574 21 8.41073 21 13.125C20.9999 17.8393 16.9999 23.5574 12 19.7637C7.00007 23.5574 3.00011 17.8393 3 13.125C3 8.41073 7.02944 6.48574 12 9.33107Z" fill="black"/>
<path d="M12.75 2.75001C13.2782 2.74776 13.9045 3.07643 14.4141 3.58595C14.9236 4.09547 15.2522 4.72183 15.25 5.25001C15.2522 5.78269 14.9236 6.17345 14.4141 6.41407C14.3916 6.4248 14.3691 6.43557 14.3467 6.4463C13.9406 6.64023 13.534 6.8344 13.1279 7.02833C13.1055 7.03905 13.083 7.04984 13.0605 7.06056C12.7903 7.18815 12.4253 7.20454 12.0869 7.14747C11.7463 7.088 11.46 6.95997 11.25 6.75001C11.04 6.54006 10.912 6.25376 10.8525 5.9131C10.7955 5.57475 10.8119 5.20967 10.9395 4.93946C10.9502 4.91702 10.961 4.89453 10.9717 4.87208C11.1656 4.46602 11.3598 4.05939 11.5537 3.65333C11.5644 3.63087 11.5752 3.60841 11.5859 3.58595C11.8266 3.07643 12.2173 2.74776 12.75 2.75001Z" fill="black"/>
</svg>
