<svg width="24" height="24" viewBox="0 0 24 24" fill="none" xmlns="http://www.w3.org/2000/svg">
<path fill-rule="evenodd" clip-rule="evenodd" d="M12 3.00046C16.9706 3.00046 21 7.02989 21 12.0005C20.9998 16.9708 16.9704 21.0005 12 21.0005C7.02959 21.0005 3.00024 16.9708 3 12.0005C3 7.02989 7.02944 3.00046 12 3.00046ZM12 6.00046C11.4477 6.00046 11 6.44817 11 7.00046V10.9301C10.9998 11.2643 10.8327 11.5768 10.5547 11.7622L8.44531 13.1684C7.98595 13.4748 7.86166 14.0957 8.16797 14.5551C8.47435 15.0143 9.09528 15.1386 9.55469 14.8325L11.6641 13.4262C12.4985 12.8699 12.9998 11.933 13 10.9301V7.00046C13 6.44817 12.5523 6.00046 12 6.00046Z" fill="black"/>
</svg>
