<svg width="24" height="24" viewBox="0 0 24 24" fill="none" xmlns="http://www.w3.org/2000/svg">
<path fill-rule="evenodd" clip-rule="evenodd" d="M12 3.00043C16.9706 3.00043 21 7.02986 21 12.0004C20.9998 16.9708 16.9704 21.0004 12 21.0004C7.02959 21.0004 3.00024 16.9708 3 12.0004C3 7.02986 7.02944 3.00043 12 3.00043ZM16 15.0004C15.4477 15.0004 15 15.4481 15 16.0004C15.0002 16.5525 15.4479 17.0004 16 17.0004C16.5521 17.0004 16.9998 16.5525 17 16.0004C17 15.4481 16.5523 15.0004 16 15.0004ZM12.707 10.2934C12.3165 9.90287 11.6835 9.90287 11.293 10.2934L9.5 12.0864L7.70703 10.2934C7.31651 9.90287 6.68349 9.90287 6.29297 10.2934C5.90267 10.6839 5.90252 11.317 6.29297 11.7075L8.08594 13.5004L6.29297 15.2934C5.90269 15.6839 5.90254 16.317 6.29297 16.7075C6.68343 17.0977 7.31656 17.0977 7.70703 16.7075L9.5 14.9145L11.293 16.7075C11.6834 17.0977 12.3166 17.0977 12.707 16.7075C13.0975 16.317 13.0973 15.6839 12.707 15.2934L10.9141 13.5004L12.707 11.7075C13.0975 11.317 13.0973 10.6839 12.707 10.2934Z" fill="black"/>
</svg>
