<svg width="24" height="24" viewBox="0 0 24 24" fill="none" xmlns="http://www.w3.org/2000/svg">
<path d="M10.0869 7.38086C11.0887 6.96607 12 7.87953 12 8.96387V15.0361C12 16.1205 11.0887 17.0339 10.0869 16.6191C9.48029 16.3679 8.92914 15.9994 8.46484 15.5352C8.00055 15.0709 7.63213 14.5197 7.38086 13.9131C7.12964 13.3065 7 12.6565 7 12C7 11.3435 7.12964 10.6935 7.38086 10.0869C7.63213 9.48029 8.00055 8.92914 8.46484 8.46484C8.92914 8.00055 9.48029 7.63213 10.0869 7.38086Z" fill="black"/>
<path fill-rule="evenodd" clip-rule="evenodd" d="M12 2C17.5228 2 22 6.47715 22 12C22 17.5228 17.5228 22 12 22C6.47715 22 2 17.5228 2 12C2 6.47715 6.47715 2 12 2ZM12 5C8.13401 5 5 8.13401 5 12C5 15.866 8.13401 19 12 19C15.866 19 19 15.866 19 12C19 8.13401 15.866 5 12 5Z" fill="black"/>
</svg>
