<svg width="24" height="24" viewBox="0 0 24 24" fill="none" xmlns="http://www.w3.org/2000/svg">
<path fill-rule="evenodd" clip-rule="evenodd" d="M11.7852 3C14.0362 3.00003 15.8826 3.22356 17.3877 3.5625C21.4464 4.47681 21.4192 8.93176 18.4629 11.8594L18.1182 12.2012C17.3553 12.9566 16.4901 13.5467 15.5684 13.9727C14.8189 14.319 14.4438 14.4922 14.2861 14.7383C14.1286 14.9846 14.1289 15.3325 14.1289 16.0273V19.4727C14.1289 20.7662 12.5828 21.4339 11.6416 20.5469C10.2376 19.2228 9.44146 17.3781 9.44142 15.4482C9.44142 15.2567 9.44142 15.1607 9.43068 15.0879C9.38142 14.7552 9.22622 14.53 8.93361 14.3643C8.86953 14.328 8.75767 14.2845 8.53419 14.1982C7.41307 13.7654 6.36122 13.1003 5.45314 12.2012L5.10841 11.8594C2.15176 8.93166 2.12433 4.47662 6.18361 3.5625C7.68865 3.22363 9.53441 3.00003 11.7852 3ZM11.7852 5.20996C9.89529 5.20996 8.36251 5.28076 7.12697 5.38574C5.3847 5.53378 5.40848 7.02258 7.11036 7.42383C10.1847 8.1486 13.3856 8.14863 16.46 7.42383C18.1618 7.02259 18.1855 5.53383 16.4434 5.38574C15.2078 5.28076 13.675 5.20996 11.7852 5.20996Z" fill="black"/>
</svg>
