<svg width="24" height="24" viewBox="0 0 24 24" fill="none" xmlns="http://www.w3.org/2000/svg">
<path d="M5.66699 5.33301C6.67928 5.33327 7 6.53737 7 7.5498V15C7 15.5521 7.44696 15.9995 7.99902 16.002C11.2715 16.015 15.2294 16.0865 17.4287 16.1309C18.5402 16.1533 20 16.3882 20 17.5C20 18.6145 18.5426 18.8747 17.4287 18.915C16.2628 18.9572 14.4721 19 12 19C9.44572 19 7.89232 18.9546 6.99121 18.9111C6.26972 18.8763 5.59728 18.5833 5.04883 18.1133C4.59478 17.7241 4.33301 17.1556 4.33301 16.5576V7.5498C4.33301 6.53725 4.65444 5.33301 5.66699 5.33301Z" fill="black"/>
<path d="M14.5 11C15.964 11 17.0804 11.0317 17.874 11.0674C18.8702 11.1122 20 11.5029 20 12.5C20 13.4971 18.8702 13.8878 17.874 13.9326C17.0804 13.9683 15.964 14 14.5 14C13.036 14 11.9196 13.9683 11.126 13.9326C10.1298 13.8878 9 13.4971 9 12.5C9 11.5029 10.1298 11.1122 11.126 11.0674C11.9196 11.0317 13.036 11 14.5 11Z" fill="black"/>
<path d="M14.5 6C15.964 6 17.0804 6.03169 17.874 6.06738C18.8702 6.11224 20 6.50288 20 7.5C20 8.49712 18.8702 8.88776 17.874 8.93262C17.0804 8.96831 15.964 9 14.5 9C13.036 9 11.9196 8.96831 11.126 8.93262C10.1298 8.88776 9 8.49712 9 7.5C9 6.50288 10.1298 6.11224 11.126 6.06738C11.9196 6.03169 13.036 6 14.5 6Z" fill="black"/>
</svg>
