<svg width="24" height="24" viewBox="0 0 24 24" fill="none" xmlns="http://www.w3.org/2000/svg">
<path fill-rule="evenodd" clip-rule="evenodd" d="M12 3.00046C16.9706 3.00046 21 7.02989 21 12.0005C20.9998 16.9708 16.9704 21.0005 12 21.0005C7.02959 21.0005 3.00024 16.9708 3 12.0005C3 7.02989 7.02944 3.00046 12 3.00046ZM8 11.0005C7.44772 11.0005 7 11.4482 7 12.0005C7.00024 12.5525 7.44787 13.0005 8 13.0005H15.9648L16.0664 12.9956C16.5707 12.9445 16.9646 12.5181 16.9648 12.0005C16.9648 11.4826 16.5708 11.0564 16.0664 11.0053L15.9648 11.0005H8Z" fill="black"/>
</svg>
