<svg width="24" height="24" viewBox="0 0 24 24" fill="none" xmlns="http://www.w3.org/2000/svg">
<path fill-rule="evenodd" clip-rule="evenodd" d="M6.5 13C6.8773 13 7.22638 13.0091 7.54785 13.0254C9.46115 13.1221 10.8779 14.5389 10.9746 16.4521C10.9909 16.7736 11 17.1227 11 17.5C11 17.8773 10.9909 18.2264 10.9746 18.5479C10.8779 20.4611 9.46115 21.8779 7.54785 21.9746C7.22638 21.9909 6.8773 22 6.5 22C6.1227 22 5.77362 21.9909 5.45215 21.9746C3.53885 21.8779 2.12206 20.4612 2.02539 18.5479C2.00915 18.2264 2 17.8773 2 17.5C2 17.1227 2.00915 16.7736 2.02539 16.4521C2.12206 14.5388 3.53885 13.1221 5.45215 13.0254C5.77362 13.0091 6.1227 13 6.5 13ZM6.43652 16C5.61552 16.007 5.00702 16.6155 5 17.4365V17.5635C5.00702 18.3845 5.61552 18.993 6.43652 19H6.56348C7.38448 18.993 7.99298 18.3845 8 17.5635V17.4365C7.99298 16.6155 7.38448 16.007 6.56348 16H6.43652Z" fill="black"/>
<path d="M15.4287 19.0068C16.2992 19.037 17 19.6289 17 20.5C17 21.3711 16.2992 21.963 15.4287 21.9932C15.2962 21.9977 15.1533 22 15 22C14.8467 22 14.7038 21.9977 14.5713 21.9932C13.7008 21.963 13 21.3711 13 20.5C13 19.6289 13.7008 19.037 14.5713 19.0068C14.7038 19.0023 14.8467 19 15 19C15.1533 19 15.2962 19.0023 15.4287 19.0068Z" fill="black"/>
<path d="M20.4287 19.0068C21.2992 19.037 22 19.6289 22 20.5C22 21.3711 21.2992 21.963 20.4287 21.9932C20.2962 21.9977 20.1533 22 20 22C19.8467 22 19.7038 21.9977 19.5713 21.9932C18.7008 21.963 18 21.3711 18 20.5C18 19.6289 18.7008 19.037 19.5713 19.0068C19.7038 19.0023 19.8467 19 20 19C20.1533 19 20.2962 19.0023 20.4287 19.0068Z" fill="black"/>
<path d="M17.5 13C18.5696 13 19.4125 13.0248 20.043 13.0557C20.9974 13.1023 22 13.5445 22 14.5C22 15.4555 20.9974 15.8977 20.043 15.9443C19.4125 15.9752 18.5696 16 17.5 16C16.4304 16 15.5875 15.9752 14.957 15.9443C14.0026 15.8977 13 15.4555 13 14.5C13 13.5445 14.0026 13.1023 14.957 13.0557C15.5875 13.0248 16.4304 13 17.5 13Z" fill="black"/>
<path fill-rule="evenodd" clip-rule="evenodd" d="M6.5 2C6.8773 2 7.22638 2.00915 7.54785 2.02539C9.46115 2.12206 10.8779 3.53885 10.9746 5.45215C10.9909 5.77362 11 6.1227 11 6.5C11 6.8773 10.9909 7.22638 10.9746 7.54785C10.8779 9.46115 9.46115 10.8779 7.54785 10.9746C7.22638 10.9909 6.8773 11 6.5 11C6.1227 11 5.77362 10.9909 5.45215 10.9746C3.53885 10.8779 2.12206 9.46115 2.02539 7.54785C2.00915 7.22638 2 6.8773 2 6.5C2 6.1227 2.00915 5.77362 2.02539 5.45215C2.12206 3.53885 3.53885 2.12206 5.45215 2.02539C5.77362 2.00915 6.1227 2 6.5 2ZM6.43652 5C5.61552 5.00702 5.00702 5.61552 5 6.43652V6.56348C5.00702 7.38448 5.61552 7.99298 6.43652 8H6.56348C7.38448 7.99298 7.99298 7.38448 8 6.56348V6.43652C7.99298 5.61552 7.38448 5.00702 6.56348 5H6.43652Z" fill="black"/>
<path fill-rule="evenodd" clip-rule="evenodd" d="M17.5 2C17.8773 2 18.2264 2.00915 18.5479 2.02539C20.4611 2.12206 21.8779 3.53885 21.9746 5.45215C21.9909 5.77362 22 6.1227 22 6.5C22 6.8773 21.9909 7.22638 21.9746 7.54785C21.8779 9.46115 20.4611 10.8779 18.5479 10.9746C18.2264 10.9909 17.8773 11 17.5 11C17.1227 11 16.7736 10.9909 16.4521 10.9746C14.5388 10.8779 13.1221 9.46115 13.0254 7.54785C13.0091 7.22638 13 6.8773 13 6.5C13 6.1227 13.0091 5.77362 13.0254 5.45215C13.1221 3.53885 14.5388 2.12206 16.4521 2.02539C16.7736 2.00915 17.1227 2 17.5 2ZM17.4365 5C16.6155 5.00702 16.007 5.61552 16 6.43652V6.56348C16.007 7.38448 16.6155 7.99298 17.4365 8H17.5635C18.3845 7.99298 18.993 7.38448 19 6.56348V6.43652C18.993 5.61552 18.3845 5.00702 17.5635 5H17.4365Z" fill="black"/>
</svg>
