<svg width="24" height="24" viewBox="0 0 24 24" fill="none" xmlns="http://www.w3.org/2000/svg">
<path d="M15 6C15 7.65685 13.6569 9 12 9C10.3432 9 9.00003 7.65685 9.00003 6C9.00003 4.34315 10.3432 3 12 3C13.6569 3 15 4.34315 15 6Z" fill="black"/>
<path d="M6.97086 20.0584C6.52483 20.9504 7.17351 22 8.17086 22C8.67904 22 9.1436 21.7129 9.37086 21.2584L10.5528 18.8944C10.8269 18.3463 11.3872 18 12 18C12.6129 18 13.1731 18.3463 13.4472 18.8944L14.6292 21.2584C14.8565 21.7129 15.321 22 15.8292 22C16.8265 22 17.4752 20.9504 17.0292 20.0584L14.6833 15.3666C14.3694 14.7387 14.8259 14 15.5279 14C15.8251 14 16.105 14.1399 16.2833 14.3777L17.6029 16.1371C17.8529 16.4705 18.2453 16.6667 18.6619 16.6667C19.6909 16.6667 20.3265 15.5441 19.7971 14.6618L18.2867 12.1444C17.5422 10.9037 16.0129 10.3847 14.5984 10.6896C13.7957 10.8625 12.8807 11 12 11C11.1193 11 10.2044 10.8625 9.40167 10.6896C7.98715 10.3847 6.45783 10.9037 5.71336 12.1444L4.20296 14.6618C3.67355 15.5441 4.30913 16.6667 5.33812 16.6667C5.7548 16.6667 6.14716 16.4705 6.39716 16.1371L7.71674 14.3777C7.89507 14.1399 8.17494 14 8.47216 14C9.17411 14 9.63066 14.7387 9.31674 15.3666L6.97086 20.0584Z" fill="black"/>
</svg>
