<svg width="24" height="24" viewBox="0 0 24 24" fill="none" xmlns="http://www.w3.org/2000/svg">
<path fill-rule="evenodd" clip-rule="evenodd" d="M10.9459 3.12103C11.6143 2.81016 12.3858 2.81016 13.0543 3.12103C13.8218 3.47802 14.3959 4.57359 15.5435 6.76459L19.9322 15.1435C20.9451 17.0772 21.4521 18.0447 21.3463 18.8329C21.2538 19.5207 20.8794 20.139 20.3131 20.54C19.664 20.9995 18.5721 20.9999 16.3893 20.9999H7.61093C5.42804 20.9999 4.33623 20.9995 3.6871 20.54C3.1208 20.139 2.74637 19.5207 2.6539 18.8329C2.54806 18.0447 3.05509 17.0772 4.06796 15.1435L8.45663 6.76459C9.60427 4.57365 10.1784 3.47805 10.9459 3.12103ZM12.0006 15.8691C11.1363 15.8692 10.4352 16.5702 10.4352 17.4345C10.4353 18.2988 11.1363 18.9998 12.0006 18.9999C12.8649 18.9998 13.5659 18.2988 13.566 17.4345C13.5659 16.5702 12.8649 15.8692 12.0006 15.8691ZM12.0006 6.99994C10.6935 7.00008 9.74928 8.25097 10.108 9.50775L11.3355 13.8027C11.4205 14.0994 11.6919 14.3045 12.0006 14.3046C12.3092 14.3045 12.5807 14.0994 12.6656 13.8027L13.8922 9.50775C14.251 8.25092 13.3077 7.00007 12.0006 6.99994Z" fill="black"/>
</svg>
