<svg width="24" height="24" viewBox="0 0 24 24" fill="none" xmlns="http://www.w3.org/2000/svg">
  <path fill-rule="evenodd" clip-rule="evenodd"
    d="M12 3.00046C16.9706 3.00046 21 7.02989 21 12.0005C20.9998 16.9708 16.9704 21.0005 12 21.0005C7.02959 21.0005 3.00024 16.9708 3 12.0005C3 7.02989 7.02944 3.00046 12 3.00046ZM12 14.8696C11.1358 14.8699 10.4356 15.5708 10.4355 16.435C10.4358 17.2991 11.1359 18.0002 12 18.0005C12.8643 18.0005 13.5652 17.2993 13.5654 16.435C13.5653 15.5707 12.8644 14.8696 12 14.8696ZM12 6.00046C10.6931 6.00079 9.74962 7.25155 10.1084 8.50827L11.335 12.8032C11.4199 13.0998 11.6915 13.3049 12 13.3051C12.3086 13.3051 12.58 13.0998 12.665 12.8032L13.8926 8.50827C14.2514 7.25141 13.3072 6.00046 12 6.00046Z"
    fill="black" />
</svg>