<svg width="24" height="25" viewBox="0 0 24 25" fill="none" xmlns="http://www.w3.org/2000/svg">
<path d="M12 10.1882C16.9706 7.34292 21 9.2679 21 13.9822C20.9999 18.6964 16.9999 24.4146 12 20.6209C7.00007 24.4146 3.00011 18.6964 3 13.9822C3 9.2679 7.02944 7.34292 12 10.1882Z" fill="black"/>
<path d="M12.75 3.60719C13.2782 3.60494 13.9045 3.93361 14.4141 4.44313C14.9236 4.95265 15.2522 5.57901 15.25 6.10719C15.2522 6.63987 14.9236 7.03063 14.4141 7.27125C14.3916 7.28198 14.3691 7.29275 14.3467 7.30348C13.9406 7.49741 13.534 7.69158 13.1279 7.88551C13.1055 7.89623 13.083 7.90701 13.0605 7.91774C12.7903 8.04532 12.4253 8.06171 12.0869 8.00465C11.7463 7.94518 11.46 7.81715 11.25 7.60719C11.04 7.39723 10.912 7.11093 10.8525 6.77028C10.7955 6.43193 10.8119 6.06685 10.9395 5.79664C10.9502 5.77419 10.961 5.75171 10.9717 5.72926C11.1656 5.3232 11.3598 4.91657 11.5537 4.51051C11.5644 4.48805 11.5752 4.46559 11.5859 4.44313C11.8266 3.93361 12.2173 3.60494 12.75 3.60719Z" fill="black"/>
</svg>
