<svg width="24" height="24" viewBox="0 0 24 24" fill="none" xmlns="http://www.w3.org/2000/svg">
<path d="M12.9346 9.07617C16.1274 8.97649 17.7241 8.92669 18.3164 9.44434C18.3817 9.50143 18.4048 9.52447 18.4639 9.58789C18.9997 10.1637 19 11.5073 19 14.1934C19 16.8343 18.9998 18.155 18.2256 19.0117C18.1579 19.0866 18.0866 19.1579 18.0117 19.2256C17.155 19.9998 15.8343 20 13.1934 20H10.8066C8.16574 20 6.84497 19.9998 5.98828 19.2256C5.91344 19.1579 5.84206 19.0866 5.77441 19.0117C5.00023 18.155 5 16.8343 5 14.1934C5 11.5073 5.00025 10.1637 5.53613 9.58789C5.59516 9.52447 5.61826 9.50143 5.68359 9.44434C6.27589 8.92669 7.8726 8.97649 11.0654 9.07617C11.3654 9.08554 11.6769 9.09082 12 9.09082C12.3231 9.09082 12.6346 9.08554 12.9346 9.07617ZM12 12C11.2869 12 10.725 12.0166 10.3047 12.0371C9.66842 12.0682 9 12.363 9 13C9 13.637 9.66842 13.9318 10.3047 13.9629C10.725 13.9834 11.2869 14 12 14C12.7131 14 13.275 13.9834 13.6953 13.9629C14.3316 13.9318 15 13.637 15 13C15 12.363 14.3316 12.0682 13.6953 12.0371C13.275 12.0166 12.7131 12 12 12ZM18.6494 4C19.3953 4.00014 19.9999 4.60474 20 5.35059C20 6.01305 19.5206 6.57368 18.8623 6.64746C17.5465 6.79493 15.1509 7 12 7C8.8491 7 6.4535 6.79493 5.1377 6.64746C4.47935 6.57368 4 6.01305 4 5.35059C4.00014 4.60474 4.60474 4.00014 5.35059 4H18.6494Z" fill="black"/>
</svg>
