<svg width="24" height="24" viewBox="0 0 24 24" fill="none" xmlns="http://www.w3.org/2000/svg">
<path fill-rule="evenodd" clip-rule="evenodd" d="M5.63619 5.63667C4.58748 6.68539 3.74427 7.63111 3.07224 8.45336C1.34041 10.5723 1.33986 13.4282 3.07154 15.5472C3.74364 16.3696 4.58732 17.3157 5.63619 18.3646C6.68489 19.4133 7.63063 20.2565 8.45288 20.9285C10.5719 22.6604 13.4284 22.6604 15.5474 20.9285C16.3697 20.2565 17.3154 19.4133 18.3641 18.3646C19.413 17.3157 20.2567 16.3696 20.9288 15.5472C22.6605 13.4282 22.6599 10.5723 20.9281 8.45336C20.256 7.63111 19.4128 6.68539 18.3641 5.63667C17.3152 4.5878 16.3691 3.74412 15.5467 3.07203C13.4278 1.34043 10.5725 1.3404 8.45357 3.07203C7.63123 3.74412 6.68506 4.5878 5.63619 5.63667ZM7.96536 9.13699C7.96537 8.58471 8.41297 8.13709 8.96525 8.13709C9.51717 8.13753 9.96514 8.58497 9.96515 9.13699L9.96445 12.484C11.133 11.1884 12.3032 9.89263 13.4717 8.59699C13.5435 8.51732 13.616 8.43704 13.6878 8.35737C13.9247 8.09467 14.2527 7.94151 14.6062 7.94167C14.9592 7.94179 15.3108 8.09385 15.5737 8.35668C15.8364 8.61973 15.9889 8.97099 15.9887 9.32412C15.9888 9.67758 15.8356 10.0057 15.573 10.2425C15.4933 10.3144 15.413 10.3868 15.3334 10.4587C14.083 11.5864 12.8314 12.7145 11.581 13.8423L14.6711 13.843C15.2231 13.8433 15.671 14.2908 15.671 14.8429C15.671 15.3949 15.2231 15.8424 14.6711 15.8428L8.96525 15.8435C8.41297 15.8435 7.96467 15.3952 7.96467 14.8429L7.96536 9.13699Z" fill="black"/>
</svg>
