<svg width="24" height="24" viewBox="0 0 24 24" fill="none" xmlns="http://www.w3.org/2000/svg">
<path d="M19.4243 10.6673C20.01 11.2531 20.01 12.2026 19.4243 12.7884C18.8385 13.3741 17.8889 13.3741 17.3032 12.7884L13.4252 8.90949C13.5632 11.7245 13.7002 14.5399 13.8383 17.3548C13.8466 17.5243 13.8554 17.6941 13.8637 17.8636C13.8901 18.394 13.7021 18.9036 13.3266 19.2786C12.952 19.6535 12.4203 19.8636 11.8637 19.8636C11.3072 19.8635 10.7754 19.6534 10.4008 19.2786C10.0254 18.9036 9.83733 18.3939 9.8637 17.8636C9.87202 17.6941 9.88078 17.5243 9.88909 17.3548C10.0225 14.6352 10.1562 11.9153 10.2895 9.19563L6.69671 12.7884C6.11099 13.3741 5.16142 13.374 4.57562 12.7884C3.98983 12.2026 3.98983 11.2531 4.57562 10.6673L10.9389 4.30305C11.5247 3.71726 12.4752 3.71726 13.061 4.30305L19.4243 10.6673Z" fill="black"/>
</svg>
