<svg width="24" height="24" viewBox="0 0 24 24" fill="none" xmlns="http://www.w3.org/2000/svg">
<path fill-rule="evenodd" clip-rule="evenodd" d="M21.0002 12.0001C21.0002 13.4832 20.9277 14.7482 20.8215 15.8048C20.5477 18.5277 18.5287 20.5475 15.8058 20.8214C14.7491 20.9277 13.4835 21.0001 12.0002 21.0001C10.5171 21.0001 9.25211 20.9276 8.1955 20.8214C5.47245 20.5476 3.45266 18.5279 3.17889 15.8048C3.07268 14.7482 3.00019 13.4832 3.00018 12.0001C3.00018 10.5168 3.07265 9.25118 3.17889 8.19446C3.45277 5.47156 5.47254 3.45259 8.1955 3.17883C9.25211 3.07262 10.5171 3.00013 12.0002 3.00012C13.4835 3.00012 14.7491 3.07259 15.8058 3.17883C18.5286 3.45273 20.5476 5.47169 20.8215 8.19446C20.9277 9.25118 21.0002 10.5168 21.0002 12.0001ZM16.8781 12.8282C17.2686 12.4377 17.2686 11.8047 16.8781 11.4142C16.4875 11.0242 15.8544 11.0239 15.4641 11.4142L13.0978 13.7814C13.1877 12.0389 13.2765 10.2953 13.3664 8.55286C13.3719 8.44571 13.3775 8.33773 13.383 8.23059C13.4013 7.87733 13.2776 7.53707 13.0275 7.28723C12.7778 7.0377 12.4217 6.89661 12.05 6.89661C11.6782 6.8968 11.322 7.03739 11.0724 7.28723C10.8224 7.53705 10.6988 7.87736 10.717 8.23059C10.7225 8.33771 10.7281 8.44574 10.7336 8.55286C10.8203 10.2344 10.9076 11.9171 10.9943 13.5988L8.80878 11.4142C8.41822 11.0241 7.78508 11.0238 7.39471 11.4142C7.00435 11.8045 7.00467 12.4377 7.39471 12.8282L11.4289 16.8634C11.8194 17.2539 12.4534 17.2539 12.8439 16.8634L16.8781 12.8282Z" fill="black"/>
</svg>
