<svg width="24" height="24" viewBox="0 0 24 24" fill="none" xmlns="http://www.w3.org/2000/svg">
<path d="M13.1963 4.43934C12.6105 3.85356 11.661 3.85355 11.0752 4.43934C10.4895 5.02513 10.4894 5.97468 11.0752 6.56043L14.9541 10.4384C12.1391 10.3004 9.32373 10.1634 6.50878 10.0253C6.33925 10.017 6.16952 10.0082 5.99999 9.99988C5.46956 9.9735 4.96003 10.1615 4.58495 10.537C4.21012 10.9116 4 11.4433 3.99999 11.9999C4.00004 12.5564 4.21016 13.0882 4.58495 13.4628C4.96 13.8382 5.46965 14.0263 5.99999 13.9999C6.16953 13.9916 6.33924 13.9828 6.50878 13.9745C9.22839 13.8411 11.9483 13.7074 14.668 13.5741L11.0752 17.1669C10.4895 17.7526 10.4896 18.7022 11.0752 19.288C11.661 19.8738 12.6105 19.8738 13.1963 19.288L19.5605 12.9247C20.1463 12.3389 20.1463 11.3884 19.5605 10.8026L13.1963 4.43934Z" fill="black"/>
</svg>
