<svg width="24" height="24" viewBox="0 0 24 24" fill="none" xmlns="http://www.w3.org/2000/svg">
<path fill-rule="evenodd" clip-rule="evenodd" d="M12.0002 3.00012C13.4833 3.00013 14.7483 3.07262 15.8049 3.17883C18.5278 3.45259 20.5476 5.47159 20.8215 8.19446C20.9277 9.25118 21.0002 10.5168 21.0002 12.0001C21.0002 13.4832 20.9277 14.7482 20.8215 15.8048C20.5477 18.5279 18.5279 20.5476 15.8049 20.8214C14.7483 20.9276 13.4833 21.0001 12.0002 21.0001C10.5169 21.0001 9.25124 20.9277 8.19452 20.8214C5.47162 20.5475 3.45265 18.5278 3.17889 15.8048C3.07268 14.7482 3.00019 13.4832 3.00018 12.0001C3.00018 10.5168 3.07266 9.25118 3.17889 8.19446C3.4528 5.47171 5.47175 3.4527 8.19452 3.17883C9.25124 3.07259 10.5169 3.00012 12.0002 3.00012ZM12.8283 7.12219C12.4378 6.73168 11.8048 6.73167 11.4142 7.12219C11.0243 7.51276 11.0239 8.14592 11.4142 8.53625L13.7814 10.9025C12.039 10.8126 10.2953 10.7238 8.55292 10.6339C8.44577 10.6284 8.33779 10.6228 8.23065 10.6173C7.87739 10.5991 7.53713 10.7227 7.28729 10.9728C7.03776 11.2225 6.89667 11.5786 6.89667 11.9503C6.89686 12.3221 7.03745 12.6783 7.28729 12.9279C7.53711 13.1779 7.87742 13.3016 8.23065 13.2833C8.33777 13.2778 8.4458 13.2722 8.55292 13.2667C10.2345 13.18 11.9172 13.0927 13.5988 13.006L11.4142 15.1915C11.0242 15.5821 11.0239 16.2152 11.4142 16.6056C11.8046 16.996 12.4377 16.9956 12.8283 16.6056L16.8635 12.5714C17.254 12.1809 17.254 11.5469 16.8635 11.1564L12.8283 7.12219Z" fill="black"/>
</svg>
