<svg width="24" height="24" viewBox="0 0 24 24" fill="none" xmlns="http://www.w3.org/2000/svg">
<path fill-rule="evenodd" clip-rule="evenodd" d="M12.0002 3.00012C10.5171 3.00013 9.25211 3.07262 8.1955 3.17883C5.47257 3.45259 3.45279 5.47159 3.17889 8.19446C3.07265 9.25118 3.00018 10.5168 3.00018 12.0001C3.00019 13.4832 3.07268 14.7482 3.17889 15.8048C3.45266 18.5279 5.47245 20.5476 8.1955 20.8214C9.25211 20.9276 10.5171 21.0001 12.0002 21.0001C13.4835 21.0001 14.7491 20.9277 15.8058 20.8214C18.5287 20.5475 20.5477 18.5278 20.8215 15.8048C20.9277 14.7482 21.0002 13.4832 21.0002 12.0001C21.0002 10.5168 20.9277 9.25118 20.8215 8.19446C20.5476 5.47171 18.5286 3.4527 15.8058 3.17883C14.7491 3.07259 13.4835 3.00012 12.0002 3.00012ZM11.1721 7.12219C11.5626 6.73168 12.1956 6.73167 12.5861 7.12219C12.9761 7.51276 12.9764 8.14592 12.5861 8.53625L10.2189 10.9025C11.9614 10.8126 13.705 10.7238 15.4474 10.6339C15.5546 10.6284 15.6626 10.6228 15.7697 10.6173C16.123 10.5991 16.4632 10.7227 16.7131 10.9728C16.9626 11.2225 17.1037 11.5786 17.1037 11.9503C17.1035 12.3221 16.9629 12.6783 16.7131 12.9279C16.4633 13.1779 16.1229 13.3016 15.7697 13.2833C15.6626 13.2778 15.5546 13.2722 15.4474 13.2667C13.7659 13.18 12.0832 13.0927 10.4016 13.006L12.5861 15.1915C12.9762 15.5821 12.9765 16.2152 12.5861 16.6056C12.1958 16.996 11.5626 16.9956 11.1721 16.6056L7.1369 12.5714C6.74638 12.1809 6.74638 11.5469 7.1369 11.1564L11.1721 7.12219Z" fill="black"/>
</svg>
