<svg width="24" height="24" viewBox="0 0 24 24" fill="none" xmlns="http://www.w3.org/2000/svg">
<path fill-rule="evenodd" clip-rule="evenodd" d="M5.63622 18.3641C4.58751 17.3154 3.7443 16.3697 3.07227 15.5474C1.34044 13.4285 1.33989 10.5726 3.07158 8.45357C3.74367 7.63124 4.58735 6.68506 5.63622 5.63619C6.68492 4.5875 7.63066 3.74427 8.45291 3.07224C10.572 1.34034 13.4284 1.34034 15.5475 3.07224C16.3697 3.74427 17.3154 4.58749 18.3641 5.63619C19.413 6.68506 20.2567 7.63124 20.9288 8.45357C22.6605 10.5726 22.6599 13.4284 20.9281 15.5474C20.2561 16.3697 19.4129 17.3154 18.3641 18.3641C17.3153 19.413 16.3691 20.2567 15.5468 20.9288C13.4278 22.6604 10.5725 22.6604 8.4536 20.9288C7.63126 20.2567 6.68509 19.413 5.63622 18.3641ZM7.96539 14.8638C7.9654 15.4161 8.413 15.8637 8.96528 15.8637C9.5172 15.8633 9.96517 15.4158 9.96518 14.8638L9.96449 11.5168C11.1331 12.8124 12.3032 14.1082 13.4717 15.4038C13.5436 15.4835 13.616 15.5637 13.6878 15.6434C13.9247 15.9061 14.2528 16.0593 14.6063 16.0591C14.9593 16.059 15.3109 15.9069 15.5737 15.6441C15.8365 15.3811 15.9889 15.0298 15.9887 14.6767C15.9889 14.3232 15.8357 13.9951 15.573 13.7583C15.4934 13.6864 15.413 13.614 15.3334 13.5421C14.083 12.4144 12.8314 11.2863 11.581 10.1585L14.6712 10.1578C15.2231 10.1574 15.671 9.70997 15.6711 9.15792C15.6711 8.60586 15.2231 8.15839 14.6712 8.15802L8.96528 8.15733C8.413 8.15733 7.9647 8.60563 7.9647 9.15792L7.96539 14.8638Z" fill="black"/>
</svg>
