<svg width="24" height="24" viewBox="0 0 24 24" fill="none" xmlns="http://www.w3.org/2000/svg">
<path fill-rule="evenodd" clip-rule="evenodd" d="M18.3642 18.3641C19.4129 17.3153 20.2561 16.3696 20.9281 15.5474C22.6599 13.4284 22.6605 10.5725 20.9288 8.45351C20.2567 7.63118 19.413 6.685 18.3642 5.63613C17.3155 4.58744 16.3697 3.74421 15.5475 3.07218C13.4284 1.34028 10.572 1.34028 8.45293 3.07218C7.63068 3.74421 6.68495 4.58743 5.63624 5.63613C4.58737 6.685 3.74369 7.63118 3.07159 8.45351C1.33987 10.5726 1.34044 13.4284 3.07229 15.5474C3.74432 16.3696 4.58753 17.3153 5.63624 18.3641C6.68511 19.4129 7.63128 20.2566 8.45362 20.9287C10.5726 22.6603 13.4278 22.6603 15.5468 20.9287C16.3691 20.2566 17.3153 19.4129 18.3642 18.3641ZM16.035 14.8637C16.035 15.416 15.5874 15.8636 15.0351 15.8636C14.4832 15.8632 14.0352 15.4158 14.0352 14.8637L14.0359 11.5167C12.8673 12.8124 11.6972 14.1081 10.5287 15.4037C10.4568 15.4834 10.3844 15.5637 10.3125 15.6434C10.0756 15.9061 9.74762 16.0592 9.39412 16.0591C9.04112 16.0589 8.68952 15.9069 8.42669 15.644C8.16392 15.381 8.01148 15.0297 8.01167 14.6766C8.01151 14.3231 8.16472 13.9951 8.42738 13.7582C8.50703 13.6864 8.58734 13.6139 8.66699 13.5421C9.91735 12.4143 11.169 11.2862 12.4194 10.1584L9.32921 10.1578C8.77725 10.1574 8.32933 9.70991 8.32932 9.15786C8.32932 8.6058 8.77724 8.15833 9.32921 8.15796L15.0351 8.15727C15.5874 8.15727 16.0357 8.60557 16.0357 9.15786L16.035 14.8637Z" fill="black"/>
</svg>
