<svg width="24" height="24" viewBox="0 0 24 24" fill="#000">
  <path d="M19 3.5C19.8284 3.5 20.5 4.17157 20.5 5V14C20.5 14.8284 19.8284 15.5 19 15.5C18.1716 15.5 17.5 14.8284 17.5 14V8.76465C14.3489 12.0918 11.1978 15.4189 8.04688 18.7461C7.8361 18.9687 7.62483 19.1915 7.41406 19.4141C7.0494 19.7994 6.55003 20.0196 6.01953 20.0195C5.48927 20.0197 4.97135 19.7995 4.58594 19.4141C4.20052 19.0286 3.9803 18.5107 3.98047 17.9805C3.98038 17.45 4.2006 16.9506 4.58594 16.5859C4.80849 16.3752 5.03135 16.1639 5.25391 15.9531C8.58106 12.8022 11.9082 9.65107 15.2354 6.5H10C9.17157 6.5 8.5 5.82843 8.5 5C8.5 4.17157 9.17157 3.5 10 3.5H19Z"/>
</svg>
