<svg width="24" height="24" viewBox="0 0 24 24" fill="none" xmlns="http://www.w3.org/2000/svg">
<path fill-rule="evenodd" clip-rule="evenodd" d="M21.0002 12.0001C21.0002 10.517 20.9277 9.25205 20.8215 8.19544C20.5477 5.47251 18.5287 3.45273 15.8058 3.17883C14.7491 3.07259 13.4835 3.00012 12.0002 3.00012C10.5171 3.00013 9.25211 3.07262 8.1955 3.17883C5.47245 3.4526 3.45266 5.47239 3.17889 8.19543C3.07268 9.25204 3.00019 10.517 3.00018 12.0001C3.00018 13.4834 3.07265 14.7491 3.17889 15.8058C3.45277 18.5287 5.47254 20.5477 8.1955 20.8214C9.25211 20.9276 10.5171 21.0001 12.0002 21.0001C13.4835 21.0001 14.7491 20.9276 15.8058 20.8214C18.5286 20.5475 20.5476 18.5286 20.8215 15.8058C20.9277 14.7491 21.0002 13.4834 21.0002 12.0001ZM16.8781 11.172C17.2686 11.5625 17.2686 12.1955 16.8781 12.5861C16.4875 12.976 15.8544 12.9764 15.4641 12.5861L13.0978 10.2189C13.1877 11.9614 13.2765 13.705 13.3664 15.4474C13.3719 15.5545 13.3775 15.6625 13.383 15.7697C13.4013 16.1229 13.2776 16.4632 13.0275 16.713C12.7778 16.9625 12.4217 17.1036 12.05 17.1036C11.6782 17.1034 11.322 16.9629 11.0724 16.713C10.8224 16.4632 10.6988 16.1229 10.717 15.7697C10.7225 15.6625 10.7281 15.5545 10.7336 15.4474C10.8203 13.7658 10.9076 12.0831 10.9943 10.4015L8.80878 12.5861C8.41822 12.9761 7.78508 12.9764 7.39471 12.5861C7.00435 12.1957 7.00467 11.5626 7.39471 11.172L11.4289 7.13684C11.8194 6.74632 12.4534 6.74632 12.8439 7.13684L16.8781 11.172Z" fill="black"/>
</svg>
