<svg width="24" height="24" viewBox="0 0 24 24" fill="none" xmlns="http://www.w3.org/2000/svg">
<path fill-rule="evenodd" clip-rule="evenodd" d="M18.3641 5.63662C19.4128 6.68533 20.256 7.63106 20.9281 8.4533C22.6599 10.5723 22.6605 13.4281 20.9288 15.5472C20.2567 16.3695 19.413 17.3157 18.3641 18.3645C17.3154 19.4132 16.3697 20.2565 15.5474 20.9285C13.4284 22.6604 10.572 22.6604 8.4529 20.9285C7.63065 20.2565 6.68492 19.4132 5.63621 18.3645C4.58734 17.3157 3.74366 16.3695 3.07156 15.5472C1.33984 13.4281 1.34041 10.5723 3.07225 8.4533C3.74429 7.63106 4.5875 6.68533 5.63621 5.63662C6.68508 4.58775 7.63125 3.74406 8.45359 3.07197C10.5725 1.34037 13.4278 1.34034 15.5468 3.07197C16.3691 3.74406 17.3153 4.58775 18.3641 5.63662ZM16.035 9.13693C16.035 8.58465 15.5873 8.13704 15.0351 8.13704C14.4832 8.13747 14.0352 8.58492 14.0352 9.13693L14.0359 12.484C12.8673 11.1883 11.6972 9.89257 10.5286 8.59694C10.4568 8.51726 10.3844 8.43699 10.3125 8.35732C10.0756 8.09462 9.74759 7.94145 9.39409 7.94162C9.04109 7.94173 8.68949 8.0938 8.42665 8.35663C8.16389 8.61967 8.01145 8.97094 8.01164 9.32407C8.01148 9.67753 8.16469 10.0056 8.42735 10.2425C8.50699 10.3143 8.58731 10.3868 8.66696 10.4586C9.91732 11.5863 11.1689 12.7144 12.4193 13.8422L9.32918 13.8429C8.77722 13.8433 8.3293 14.2908 8.32929 14.8428C8.32929 15.3949 8.77721 15.8423 9.32918 15.8427L15.0351 15.8434C15.5873 15.8434 16.0356 15.3951 16.0356 14.8428L16.035 9.13693Z" fill="black"/>
</svg>
