<svg width="24" height="24" viewBox="0 0 24 24" fill="none" xmlns="http://www.w3.org/2000/svg">
<path d="M19.4243 13.06C20.01 12.4742 20.01 11.5247 19.4243 10.9389C18.8385 10.3532 17.8889 10.3532 17.3032 10.9389L13.4252 14.8178C13.5632 12.0028 13.7002 9.18744 13.8383 6.37249C13.8466 6.20296 13.8554 6.03323 13.8637 5.8637C13.8901 5.33327 13.7021 4.82374 13.3266 4.44866C12.952 4.07383 12.4203 3.8637 11.8637 3.8637C11.3072 3.86375 10.7754 4.07387 10.4008 4.44866C10.0254 4.82371 9.83733 5.33336 9.8637 5.8637C9.87202 6.03324 9.88078 6.20295 9.88909 6.37249C10.0225 9.0921 10.1562 11.812 10.2895 14.5317L6.69671 10.9389C6.11099 10.3532 5.16142 10.3533 4.57562 10.9389C3.98983 11.5247 3.98983 12.4742 4.57562 13.06L10.9389 19.4242C11.5247 20.01 12.4752 20.01 13.061 19.4242L19.4243 13.06Z" fill="black"/>
</svg>
