<svg width="24" height="24" viewBox="0 0 24 24" fill="none" xmlns="http://www.w3.org/2000/svg">
<path d="M12.0002 3C14.5376 3 16.8159 4.60604 17.3477 7.08705C17.5007 7.80115 17.6438 8.57049 17.7567 9.36228C17.9489 10.71 18.8696 11.8232 19.7821 12.8335C21.0569 14.2451 19.4577 16 17.5556 16H6.4438C4.54163 16 2.94249 14.2451 4.21748 12.8335C5.1299 11.8233 6.05037 10.7102 6.24248 9.36257C6.3553 8.57113 6.49834 7.80212 6.65131 7.08828C7.18311 4.6067 9.46228 3 12.0002 3Z" fill="black"/>
<path d="M12.9704 17.7529C13.8956 17.7516 14.3582 17.7509 14.6324 18.3139C14.9067 18.877 14.7151 19.1209 14.332 19.6087C13.7866 20.3031 12.942 20.75 11.991 20.75C11.0386 20.7499 10.1903 20.3045 9.64275 19.6108C9.26087 19.127 9.06994 18.8851 9.34258 18.3215C9.61523 17.7579 10.0761 17.7572 10.9978 17.7558L12.9704 17.7529Z" fill="black"/>
</svg>
