<svg width="24" height="24" viewBox="0 0 24 24" fill="none" xmlns="http://www.w3.org/2000/svg">
<path d="M9.64942 18.4482C10.2907 19.6388 11.2927 20.6054 12.5088 21.2041C12.3408 21.2336 12.1678 21.25 11.9912 21.25C11.0389 21.2498 10.1911 20.804 9.64356 20.1104C9.26174 19.6266 9.07016 19.3848 9.34278 18.8213C9.42528 18.6508 9.52491 18.5313 9.64942 18.4482ZM15.375 10.875C17.7813 10.875 19.7466 12.7639 19.8691 15.1396C19.8732 15.2176 19.875 15.2961 19.875 15.375C19.875 17.8603 17.8603 19.875 15.375 19.875C12.8898 19.8749 10.875 17.8602 10.875 15.375C10.875 12.8898 12.8898 10.8751 15.375 10.875ZM15.4561 12.0322C14.1598 12.0322 13.4605 12.876 13.3682 13.5264C13.3594 13.579 13.3555 13.6275 13.3555 13.6846C13.3555 13.891 13.487 14.036 13.7197 14.0361C13.935 14.0361 14.0234 13.9222 14.0762 13.7598C14.2915 13.0786 14.7705 12.7227 15.4561 12.7227C16.1371 12.7227 16.6337 13.1969 16.6338 13.8428C16.6338 14.3745 16.4316 14.7134 15.5791 15.6055L13.5488 17.7236C13.3599 17.9213 13.3242 17.9917 13.3242 18.1543C13.3244 18.3519 13.4743 18.4795 13.707 18.4795H17.2002C17.4242 18.4795 17.5741 18.3387 17.5742 18.1279C17.5742 17.917 17.4243 17.7764 17.2002 17.7764H14.4316V17.7588L16.0225 16.124C17.1078 15.0124 17.4247 14.4891 17.4248 13.7949C17.4248 12.7711 16.5985 12.0323 15.4561 12.0322ZM12.001 3.5C14.5382 3.50016 16.8158 5.10616 17.3477 7.58691C17.4633 8.12673 17.5734 8.69833 17.669 9.28711C16.9557 9.01807 16.1824 8.87012 15.375 8.87012C11.7855 8.87036 8.87517 11.7805 8.87501 15.3701C8.87501 15.7555 8.91127 16.133 8.97559 16.5H6.44434C4.54233 16.5 2.94335 14.7455 4.21778 13.334C5.1302 12.3238 6.05106 11.2099 6.24317 9.8623C6.35599 9.07097 6.49843 8.30164 6.65138 7.58789C7.1833 5.10648 9.46317 3.5 12.001 3.5Z" fill="black"/>
</svg>
