<svg width="24" height="24" viewBox="0 0 24 24" fill="none" xmlns="http://www.w3.org/2000/svg">
<path d="M9.64923 18.4482C10.2905 19.6388 11.2925 20.6054 12.5086 21.2041C12.3406 21.2336 12.1676 21.25 11.991 21.25C11.0387 21.2498 10.1909 20.804 9.64337 20.1104C9.26155 19.6266 9.06997 19.3848 9.34259 18.8213C9.42509 18.6508 9.52471 18.5313 9.64923 18.4482ZM15.3748 10.875C17.7811 10.875 19.7464 12.7639 19.869 15.1396C19.873 15.2176 19.8748 15.2961 19.8748 15.375C19.8748 17.8603 17.8601 19.875 15.3748 19.875C12.8896 19.8749 10.8748 17.8602 10.8748 15.375C10.8748 12.8898 12.8896 10.8751 15.3748 10.875ZM15.5477 12.0283C13.9966 12.0285 13.0868 13.2805 13.0867 15.416C13.0867 16.1016 13.1883 16.6733 13.3992 17.1611C13.7903 18.0749 14.546 18.5888 15.4949 18.5889C16.7956 18.5889 17.7409 17.6751 17.741 16.4229C17.741 15.2188 16.8441 14.3262 15.6356 14.3262C14.7745 14.3263 14.1244 14.7834 13.8651 15.3545H13.8514V15.2979C13.8909 13.6457 14.4932 12.7267 15.5389 12.7266C16.0706 12.7266 16.4622 12.9507 16.7654 13.4297C16.906 13.6537 17.0156 13.7372 17.1736 13.7373C17.3845 13.7373 17.5387 13.597 17.5389 13.3994C17.5389 13.272 17.5037 13.1616 17.4246 13.0254C17.0687 12.4058 16.3606 12.0283 15.5477 12.0283ZM15.4998 15.0205C16.3391 15.0206 16.9363 15.6187 16.9363 16.4492C16.9362 17.2489 16.2946 17.8857 15.4861 17.8857C14.6733 17.8856 14.0408 17.2396 14.0408 16.4268C14.0409 15.6182 14.6605 15.0205 15.4998 15.0205ZM12.0008 3.5C14.538 3.50016 16.8156 5.10616 17.3475 7.58691C17.4631 8.12673 17.5732 8.69833 17.6688 9.28711C16.9555 9.01807 16.1822 8.87012 15.3748 8.87012C11.7853 8.87036 8.87497 11.7805 8.87482 15.3701C8.87482 15.7555 8.91107 16.133 8.9754 16.5H6.44415C4.54213 16.5 2.94316 14.7455 4.21759 13.334C5.13 12.3238 6.05087 11.2099 6.24298 9.8623C6.35579 9.07097 6.49823 8.30164 6.65118 7.58789C7.18311 5.10648 9.46298 3.5 12.0008 3.5Z" fill="black"/>
</svg>
