<svg width="24" height="24" viewBox="0 0 24 24" fill="none" xmlns="http://www.w3.org/2000/svg">
<path d="M9.64942 18.4482C10.2907 19.6388 11.2927 20.6054 12.5088 21.2041C12.3408 21.2336 12.1678 21.25 11.9912 21.25C11.0389 21.2498 10.1911 20.804 9.64356 20.1104C9.26174 19.6266 9.07016 19.3848 9.34278 18.8213C9.42528 18.6508 9.52491 18.5313 9.64942 18.4482ZM15.375 10.875C17.7813 10.875 19.7466 12.7639 19.8691 15.1396C19.8732 15.2176 19.875 15.2961 19.875 15.375C19.875 17.8603 17.8603 19.875 15.375 19.875C12.8898 19.8749 10.875 17.8602 10.875 15.375C10.875 12.8898 12.8898 10.8751 15.375 10.875ZM15.2666 12.0283C13.966 12.0285 13.0216 12.9421 13.0215 14.1943C13.0215 15.3983 13.9176 16.2909 15.126 16.291C15.9345 16.291 16.6293 15.8822 16.8975 15.2539H16.9102V15.3281C16.8706 16.9628 16.2865 17.8944 15.2275 17.8945C14.6123 17.8945 14.2691 17.6616 13.9658 17.1826C13.8253 16.9544 13.7157 16.8751 13.5488 16.875C13.3335 16.875 13.1924 17.0117 13.1924 17.2139C13.1924 17.3279 13.2233 17.4334 13.2979 17.5693C13.5483 18.0396 14.208 18.585 15.2188 18.585C16.7698 18.5849 17.6747 17.3366 17.6748 15.2012C17.6748 14.5114 17.5741 13.9399 17.3633 13.4521C16.9766 12.5425 16.2202 12.0283 15.2666 12.0283ZM12.001 3.5C14.5382 3.50016 16.8158 5.10616 17.3477 7.58691C17.4633 8.12673 17.5734 8.69833 17.669 9.28711C16.9557 9.01807 16.1824 8.87012 15.375 8.87012C11.7855 8.87036 8.87517 11.7805 8.87501 15.3701C8.87501 15.7555 8.91127 16.133 8.97559 16.5H6.44434C4.54233 16.5 2.94335 14.7455 4.21778 13.334C5.1302 12.3238 6.05106 11.2099 6.24317 9.8623C6.35599 9.07097 6.49843 8.30164 6.65138 7.58789C7.1833 5.10648 9.46317 3.5 12.001 3.5ZM15.2754 12.7402C16.0928 12.7402 16.7256 13.3774 16.7256 14.1904C16.7254 14.9988 16.1019 15.5966 15.2627 15.5967C14.4321 15.5967 13.8213 14.9941 13.8213 14.168C13.8214 13.3727 14.4626 12.7404 15.2754 12.7402Z" fill="black"/>
</svg>
