<svg width="24" height="24" viewBox="0 0 24 24" fill="none" xmlns="http://www.w3.org/2000/svg">
<path d="M9.64923 18.4482C10.2905 19.6388 11.2925 20.6054 12.5086 21.2041C12.3406 21.2336 12.1676 21.25 11.991 21.25C11.0387 21.2498 10.1909 20.804 9.64337 20.1104C9.26155 19.6266 9.06997 19.3848 9.34259 18.8213C9.42509 18.6508 9.52471 18.5313 9.64923 18.4482ZM15.3748 10.875C17.7811 10.875 19.7464 12.7639 19.869 15.1396C19.873 15.2176 19.8748 15.2961 19.8748 15.375C19.8748 17.8603 17.8601 19.875 15.3748 19.875C12.8896 19.8749 10.8748 17.8602 10.8748 15.375C10.8748 12.8898 12.8896 10.8751 15.3748 10.875ZM15.3768 12.0322C14.1859 12.0322 13.3065 12.7402 13.3065 13.6982C13.3066 14.366 13.7418 14.9018 14.4402 15.1172V15.1348C13.623 15.3238 13.0779 15.9747 13.0779 16.7656C13.0781 17.8245 14.0366 18.585 15.3768 18.585C16.7213 18.5849 17.6793 17.8289 17.6795 16.7656C17.6795 15.979 17.1341 15.3281 16.3123 15.1348V15.1172C17.0154 14.8931 17.4422 14.3613 17.4422 13.7021C17.4421 12.7355 16.5763 12.0323 15.3768 12.0322ZM15.3768 15.5176C16.2511 15.5176 16.8708 16.0094 16.8709 16.708C16.8709 17.3979 16.2512 17.8945 15.3768 17.8945C14.5067 17.8945 13.8826 17.3979 13.8826 16.708C13.8827 16.0138 14.5067 15.5176 15.3768 15.5176ZM12.0008 3.5C14.538 3.50016 16.8156 5.10616 17.3475 7.58691C17.4631 8.12673 17.5732 8.69833 17.6688 9.28711C16.9555 9.01807 16.1822 8.87012 15.3748 8.87012C11.7853 8.87036 8.87497 11.7805 8.87482 15.3701C8.87482 15.7555 8.91107 16.133 8.9754 16.5H6.44415C4.54213 16.5 2.94316 14.7455 4.21759 13.334C5.13 12.3238 6.05087 11.2099 6.24298 9.8623C6.35579 9.07097 6.49823 8.30164 6.65118 7.58789C7.18311 5.10648 9.46298 3.5 12.0008 3.5ZM15.3768 12.7139C16.1325 12.7139 16.6599 13.1486 16.66 13.7725C16.66 14.3876 16.1281 14.8232 15.3768 14.8232C14.6209 14.8232 14.0936 14.3877 14.0936 13.7725C14.0937 13.1529 14.621 12.7139 15.3768 12.7139Z" fill="black"/>
</svg>
