<svg width="24" height="24" viewBox="0 0 24 24" fill="none" xmlns="http://www.w3.org/2000/svg">
<path d="M9.64923 18.4482C10.2905 19.6388 11.2925 20.6054 12.5086 21.2041C12.3406 21.2336 12.1676 21.25 11.991 21.25C11.0387 21.2498 10.1909 20.804 9.64337 20.1104C9.26155 19.6266 9.06997 19.3848 9.34259 18.8213C9.42509 18.6508 9.52471 18.5313 9.64923 18.4482ZM15.3748 10.875C17.7811 10.875 19.7464 12.7639 19.869 15.1396C19.873 15.2176 19.8748 15.2961 19.8748 15.375C19.8748 17.8603 17.8601 19.875 15.3748 19.875C12.8896 19.8749 10.8748 17.8602 10.8748 15.375C10.8748 12.8898 12.8896 10.8751 15.3748 10.875ZM13.5926 12.1377C13.3773 12.1377 13.2186 12.274 13.2186 12.4893C13.2186 12.7046 13.3773 12.8408 13.5926 12.8408H16.6727V12.8584L14.0096 17.9785C13.957 18.0794 13.9393 18.1456 13.9393 18.2334C13.9394 18.431 14.0893 18.5586 14.3045 18.5586C14.4756 18.5585 14.5765 18.4923 14.66 18.3301L17.3279 13.1221C17.4464 12.8895 17.4988 12.7664 17.4988 12.6172C17.4988 12.314 17.319 12.1378 17.0027 12.1377H13.5926ZM12.0008 3.5C14.538 3.50016 16.8156 5.10616 17.3475 7.58691C17.4631 8.12673 17.5732 8.69833 17.6688 9.28711C16.9555 9.01807 16.1822 8.87012 15.3748 8.87012C11.7853 8.87036 8.87497 11.7805 8.87482 15.3701C8.87482 15.7555 8.91107 16.133 8.9754 16.5H6.44415C4.54213 16.5 2.94316 14.7455 4.21759 13.334C5.13 12.3238 6.05087 11.2099 6.24298 9.8623C6.35579 9.07097 6.49823 8.30164 6.65118 7.58789C7.18311 5.10648 9.46298 3.5 12.0008 3.5Z" fill="black"/>
</svg>
