<svg width="24" height="24" viewBox="0 0 24 24" fill="none" xmlns="http://www.w3.org/2000/svg">
<path d="M9.64942 18.4482C10.2907 19.6388 11.2927 20.6054 12.5088 21.2041C12.3408 21.2336 12.1678 21.25 11.9912 21.25C11.0389 21.2498 10.1911 20.804 9.64356 20.1104C9.26174 19.6266 9.07016 19.3848 9.34278 18.8213C9.42528 18.6508 9.52491 18.5313 9.64942 18.4482ZM15.375 10.875C17.7813 10.875 19.7466 12.7639 19.8691 15.1396C19.8732 15.2176 19.875 15.2961 19.875 15.375C19.875 17.8603 17.8603 19.875 15.375 19.875C12.8898 19.8749 10.875 17.8602 10.875 15.375C10.875 12.8898 12.8898 10.8751 15.375 10.875ZM17.1602 12.75C16.1487 12.7502 15.4141 13.4616 15.4141 14.4355C15.4142 15.3718 16.1111 16.0652 17.0508 16.0654C17.6797 16.0654 18.2202 15.7476 18.4287 15.2588H18.4385V15.3174C18.4077 16.5887 17.9535 17.3134 17.1299 17.3135C16.6514 17.3135 16.3843 17.1323 16.1484 16.7598C16.0391 16.5821 15.9541 16.5205 15.8242 16.5205C15.6568 16.5205 15.547 16.6261 15.5469 16.7832C15.5469 16.8721 15.5708 16.9546 15.6289 17.0605C15.8237 17.4263 16.3369 17.8496 17.1231 17.8496C18.3296 17.8496 19.0332 16.8789 19.0332 15.2178C19.0332 14.6813 18.9551 14.2367 18.791 13.8574C18.4902 13.15 17.9018 12.75 17.1602 12.75ZM13.0381 14.0488C12.871 14.049 12.7619 14.1756 12.7617 14.3428V15.5459H11.627C11.4595 15.5459 11.333 15.6558 11.333 15.8232C11.3331 15.9906 11.4595 16.0996 11.627 16.0996H12.7617V17.2998C12.7618 17.467 12.8709 17.5935 13.0381 17.5938C13.2055 17.5938 13.3153 17.4672 13.3154 17.2998V16.0996H14.4463C14.6137 16.0996 14.7401 15.9906 14.7402 15.8232C14.7402 15.6558 14.6138 15.5459 14.4463 15.5459H13.3154V14.3428C13.3153 14.1754 13.2055 14.0488 13.0381 14.0488ZM12.001 3.5C14.5382 3.50016 16.8158 5.10616 17.3477 7.58691C17.4633 8.12673 17.5734 8.69833 17.669 9.28711C16.9557 9.01807 16.1824 8.87012 15.375 8.87012C11.7855 8.87036 8.87517 11.7805 8.87501 15.3701C8.87501 15.7555 8.91127 16.133 8.97559 16.5H6.44434C4.54233 16.5 2.94335 14.7455 4.21778 13.334C5.1302 12.3238 6.05106 11.2099 6.24317 9.8623C6.35599 9.07097 6.49843 8.30164 6.65138 7.58789C7.1833 5.10648 9.46317 3.5 12.001 3.5ZM17.167 13.3037C17.8026 13.3037 18.2948 13.7995 18.2949 14.4316C18.2949 15.0605 17.81 15.5254 17.1572 15.5254C16.5113 15.5254 16.0362 15.0575 16.0361 14.415C16.0361 13.7965 16.5349 13.3039 17.167 13.3037Z" fill="black"/>
</svg>
