<svg width="24" height="24" viewBox="0 0 24 24" fill="none" xmlns="http://www.w3.org/2000/svg">
<path d="M9.64918 18.4482C10.2905 19.6388 11.2925 20.6054 12.5086 21.2041C12.3405 21.2336 12.1676 21.25 11.991 21.25C11.0387 21.2498 10.1908 20.804 9.64332 20.1104C9.26149 19.6266 9.06992 19.3848 9.34254 18.8213C9.42504 18.6508 9.52466 18.5313 9.64918 18.4482ZM12.0007 3.5C14.5379 3.50014 16.8156 5.10615 17.3474 7.58691C17.4631 8.12673 17.5731 8.69832 17.6687 9.28711C16.9555 9.01807 16.1822 8.87012 15.3748 8.87012C11.7852 8.87036 8.87492 11.7805 8.87476 15.3701C8.87476 15.7555 8.91102 16.133 8.97535 16.5H6.4441C4.54208 16.5 2.94311 14.7455 4.21754 13.334C5.12996 12.3238 6.05082 11.2099 6.24293 9.8623C6.35574 9.07097 6.49818 8.30164 6.65113 7.58789C7.18305 5.10648 9.46292 3.5 12.0007 3.5Z" fill="black"/>
<path d="M15.375 10.875C17.8603 10.875 19.875 12.8897 19.875 15.375C19.875 17.8603 17.8603 19.875 15.375 19.875C12.8897 19.875 10.875 17.8603 10.875 15.375C10.875 12.8897 12.8897 10.875 15.375 10.875ZM15.6475 12.4551C15.4675 12.4551 15.3621 12.4992 15.1162 12.6748L13.7578 13.6455C13.591 13.7641 13.5381 13.8565 13.5381 13.9971C13.5381 14.1904 13.666 14.3223 13.8506 14.3223C13.947 14.3222 14.0305 14.2917 14.1182 14.2305L15.3047 13.3994H15.3223V18.5459C15.3225 18.7873 15.4811 18.9541 15.7051 18.9541C15.929 18.9541 16.0867 18.7873 16.0869 18.5459V12.8984C16.0869 12.6216 15.9199 12.4551 15.6475 12.4551Z" fill="black"/>
</svg>
