<svg width="24" height="24" viewBox="0 0 24 24" fill="none" xmlns="http://www.w3.org/2000/svg">
<path d="M9.64923 18.4482C10.2905 19.6388 11.2925 20.6054 12.5086 21.2041C12.3406 21.2336 12.1676 21.25 11.991 21.25C11.0387 21.2498 10.1909 20.804 9.64337 20.1104C9.26155 19.6266 9.06997 19.3848 9.34259 18.8213C9.42509 18.6508 9.52471 18.5313 9.64923 18.4482ZM15.3748 10.875C17.7811 10.875 19.7464 12.7639 19.869 15.1396C19.873 15.2176 19.8748 15.2961 19.8748 15.375C19.8748 17.8603 17.8601 19.875 15.3748 19.875C12.8896 19.8749 10.8748 17.8602 10.8748 15.375C10.8748 12.8898 12.8896 10.8751 15.3748 10.875ZM14.366 12.1377C13.9002 12.1377 13.6937 12.314 13.6541 12.7578L13.4295 15.2715C13.4252 15.3108 13.4256 15.3371 13.4256 15.3721C13.4256 15.6005 13.5615 15.7811 13.8074 15.7812C14.0052 15.7812 14.0712 15.7412 14.3524 15.4424C14.616 15.1611 15.0208 14.999 15.4559 14.999C16.3039 14.9991 16.9099 15.5919 16.91 16.4268C16.91 17.2881 16.3123 17.8906 15.4598 17.8906C14.77 17.8905 14.2732 17.5429 14.0799 16.9277C14.0096 16.7038 13.904 16.6162 13.7108 16.6162C13.4868 16.6163 13.3416 16.7613 13.3416 16.9854C13.3417 17.1478 13.3773 17.2711 13.4344 17.4072C13.7333 18.1233 14.5152 18.5849 15.4422 18.585C16.7692 18.585 17.7008 17.6839 17.701 16.4053C17.701 15.1837 16.8313 14.3175 15.6053 14.3174C14.9857 14.3174 14.4622 14.5371 14.1766 14.9238H14.159L14.3611 12.8408H17.0154C17.2396 12.8408 17.3895 12.7002 17.3895 12.4893C17.3894 12.2784 17.2395 12.1377 17.0154 12.1377H14.366ZM12.0008 3.5C14.538 3.50016 16.8156 5.10616 17.3475 7.58691C17.4631 8.12673 17.5732 8.69833 17.6688 9.28711C16.9555 9.01807 16.1822 8.87012 15.3748 8.87012C11.7853 8.87036 8.87497 11.7805 8.87482 15.3701C8.87482 15.7555 8.91107 16.133 8.9754 16.5H6.44415C4.54213 16.5 2.94316 14.7455 4.21759 13.334C5.13 12.3238 6.05087 11.2099 6.24298 9.8623C6.35579 9.07097 6.49823 8.30164 6.65118 7.58789C7.18311 5.10648 9.46298 3.5 12.0008 3.5Z" fill="black"/>
</svg>
