<svg width="24" height="24" viewBox="0 0 24 24" fill="none" xmlns="http://www.w3.org/2000/svg">
<path d="M9.64923 18.4482C10.2905 19.6388 11.2925 20.6054 12.5086 21.2041C12.3406 21.2336 12.1676 21.25 11.991 21.25C11.0387 21.2498 10.1909 20.804 9.64337 20.1104C9.26155 19.6266 9.06997 19.3848 9.34259 18.8213C9.42509 18.6508 9.52471 18.5313 9.64923 18.4482ZM15.3748 10.875C17.7811 10.875 19.7464 12.7639 19.869 15.1396C19.873 15.2176 19.8748 15.2961 19.8748 15.375C19.8748 17.8603 17.8601 19.875 15.3748 19.875C12.8896 19.8749 10.8748 17.8602 10.8748 15.375C10.8748 12.8898 12.8896 10.8751 15.3748 10.875ZM15.3592 12.0322C14.4803 12.0322 13.8074 12.3975 13.4734 13.0303C13.3813 13.2015 13.3416 13.36 13.3416 13.54C13.3417 13.7683 13.4693 13.9003 13.6932 13.9004C13.8909 13.9004 13.9705 13.8164 14.0496 13.5879C14.2781 13.0123 14.6605 12.7178 15.3592 12.7178C16.172 12.7178 16.5671 13.1442 16.5672 13.7725C16.5672 14.4053 16.0399 14.8711 15.284 14.8711H14.8143C14.6034 14.8711 14.4579 15.0074 14.4578 15.2051C14.4578 15.4028 14.6033 15.5391 14.8143 15.5391H15.3192C16.2112 15.5391 16.7698 15.9786 16.7654 16.7607C16.761 17.4243 16.2028 17.8993 15.368 17.8994C14.6033 17.8994 14.1502 17.5781 13.9393 17.0332C13.8558 16.8181 13.755 16.7217 13.575 16.7217C13.3465 16.7217 13.2098 16.8711 13.2098 17.0908C13.2098 17.2621 13.2543 17.4201 13.3553 17.5957C13.7376 18.2461 14.4232 18.585 15.368 18.585C16.6115 18.5849 17.5692 17.8242 17.5692 16.7344C17.5691 15.8336 16.9411 15.2579 16.0184 15.1787V15.1611C16.8137 14.9941 17.3631 14.4535 17.3631 13.667C17.363 12.7618 16.629 12.0323 15.3592 12.0322ZM12.0008 3.5C14.538 3.50016 16.8156 5.10616 17.3475 7.58691C17.4631 8.12673 17.5732 8.69833 17.6688 9.28711C16.9555 9.01807 16.1822 8.87012 15.3748 8.87012C11.7853 8.87036 8.87497 11.7805 8.87482 15.3701C8.87482 15.7555 8.91107 16.133 8.9754 16.5H6.44415C4.54213 16.5 2.94316 14.7455 4.21759 13.334C5.13 12.3238 6.05087 11.2099 6.24298 9.8623C6.35579 9.07097 6.49823 8.30164 6.65118 7.58789C7.18311 5.10648 9.46298 3.5 12.0008 3.5Z" fill="black"/>
</svg>
