<svg width="24" height="24" viewBox="0 0 24 24" fill="none" xmlns="http://www.w3.org/2000/svg">
<path fill-rule="evenodd" clip-rule="evenodd" d="M16.1299 4.15625C14.85 3.14529 13.0457 3.00001 11.2637 3C10.2254 3.00002 9.22198 3.11027 8.29199 3.31641L7.89746 3.41016C6.07375 3.87877 5.14269 5.55517 5.14258 7.08984V17.5713C5.14265 18.7383 5.84512 19.9353 7.12793 20.3633C8.36423 20.7756 9.78107 21 11.2637 21C11.3363 21 11.4096 21.0001 11.4835 21.0001C13.1224 21.0013 15.0807 21.0027 16.6143 20.4404C17.4971 20.1167 18.3685 19.5684 18.9941 18.6455C19.6127 17.733 19.8564 16.6518 19.8564 15.5C19.8564 14.3482 19.6127 13.267 18.9941 12.3545C18.5685 11.7266 18.0276 11.2745 17.4482 10.9463C17.7255 10.137 17.7852 9.27662 17.7852 8.5C17.7852 7.05069 17.5857 5.30644 16.1299 4.15625ZM9.14258 15.5C9.14258 14.7557 9.659 14.0985 10.4006 14.036C10.6789 14.0126 10.9672 14 11.2637 14C13.2235 14 14.4539 14.0282 15.2373 14.3154C15.5473 14.4291 15.642 14.5373 15.6836 14.5986C15.7323 14.6705 15.8564 14.902 15.8564 15.5C15.8564 16.098 15.7323 16.3295 15.6836 16.4014C15.642 16.4627 15.5473 16.5709 15.2373 16.6846C14.4539 16.9718 13.2235 17 11.2637 17C10.9677 17 10.6794 16.9875 10.4007 16.964C9.65902 16.9015 9.14258 16.2443 9.14258 15.5ZM9.14258 8.49861C9.14258 7.75401 9.65936 7.09692 10.4014 7.03536C10.6803 7.01222 10.9683 7.00001 11.2637 7C11.9416 7.00001 12.4544 7.02894 12.8436 7.0804C13.0312 7.1052 13.205 7.18799 13.3524 7.3066C13.626 7.52673 13.7852 7.85898 13.7852 8.21014V8.78026C13.7852 9.13052 13.6284 9.46239 13.3579 9.68489C13.207 9.809 13.0277 9.89556 12.834 9.92077C12.5696 9.95517 12.2486 9.97919 11.8584 9.99121L11.2637 10L10.7734 9.98828C10.6474 9.98242 10.5232 9.97425 10.401 9.96392C9.65908 9.90126 9.14258 9.24314 9.14258 8.49861Z" fill="black"/>
</svg>
