<svg width="24" height="24" viewBox="0 0 24 24" fill="none" xmlns="http://www.w3.org/2000/svg">
<path d="M12 16.7647C12.548 16.7647 15.4122 18.8669 17.0571 20.1092C17.6198 20.5343 18.404 20.2599 18.5179 19.5639C18.7378 18.2207 19 15.9104 19 12.5294C19 10.7935 18.9309 9.3398 18.8339 8.15435C18.6173 5.50766 16.8501 3.35738 14.2069 3.10193C13.5553 3.03896 12.8206 3 12 3C11.1794 3 10.4447 3.03896 9.79312 3.10193C7.14989 3.35738 5.38274 5.50766 5.16613 8.15435C5.06911 9.3398 5 10.7935 5 12.5294C5 15.9104 5.26216 18.2207 5.48208 19.5639C5.59602 20.2599 6.38016 20.5343 6.94294 20.1092C8.58775 18.8669 11.452 16.7647 12 16.7647Z" fill="black"/>
</svg>
