<svg width="24" height="24" viewBox="0 0 24 24" fill="none" xmlns="http://www.w3.org/2000/svg">
<path fill-rule="evenodd" clip-rule="evenodd" d="M12 2C14.6569 2 16.6136 2.23335 17.9268 2.47461C19.2726 2.7219 20.2781 3.72739 20.5254 5.07324C20.7666 6.38635 21 8.34315 21 11C21 13.6569 20.7666 15.6136 20.5254 16.9268C20.4774 17.1878 20.4005 17.4359 20.2979 17.668C20.1353 18.0356 19.9972 18.4204 19.9854 18.8223C19.9782 19.064 19.9676 19.2889 19.9541 19.4971C19.8674 20.827 18.969 21.9001 17.6387 21.9814C17.4411 21.9935 17.2283 22 17 22C16.7717 22 16.5589 21.9935 16.3613 21.9814C15.1843 21.9095 14.3471 21.0608 14.1094 19.9453C13.4626 19.9782 12.76 20 12 20C11.2396 20 10.5367 19.9783 9.88965 19.9453C9.65189 21.0607 8.81558 21.9095 7.63867 21.9814C7.44108 21.9935 7.22828 22 7 22C6.77172 22 6.55892 21.9935 6.36133 21.9814C5.03098 21.9001 4.13259 20.827 4.0459 19.4971C4.03236 19.2889 4.02202 19.064 4.01465 18.8223C4.00241 18.4206 3.8643 18.0356 3.70215 17.668C3.59978 17.4359 3.52256 17.1877 3.47461 16.9268C3.23335 15.6136 3 13.6569 3 11C3 8.34315 3.23335 6.38635 3.47461 5.07324C3.7219 3.72739 4.72739 2.7219 6.07324 2.47461C7.38635 2.23335 9.34315 2 12 2ZM7.5 15C6.63848 15 6 15.6385 6 16.5C6 17.3615 6.63848 18 7.5 18C8.36152 18 9 17.3615 9 16.5C9 15.6385 8.36152 15 7.5 15ZM16.5 15C15.6385 15 15 15.6385 15 16.5C15 17.3615 15.6385 18 16.5 18C17.3615 18 18 17.3615 18 16.5C18 15.6385 17.3615 15 16.5 15ZM12 5C10.6063 5 9.5011 5.06394 8.66699 5.14355C7.37411 5.2671 6.29234 6.09521 6.1084 7.38086C6.0434 7.83557 6 8.37429 6 9C6 9.62571 6.0434 10.1644 6.1084 10.6191C6.29234 11.9048 7.37411 12.7329 8.66699 12.8564C9.5011 12.9361 10.6063 13 12 13C13.3937 13 14.4989 12.9361 15.333 12.8564C16.6259 12.7329 17.7077 11.9048 17.8916 10.6191C17.9566 10.1644 18 9.62571 18 9C18 8.37429 17.9566 7.83557 17.8916 7.38086C17.7077 6.09521 16.6259 5.2671 15.333 5.14355C14.4989 5.06394 13.3937 5 12 5Z" fill="black"/>
</svg>
