<svg width="24" height="24" viewBox="0 0 24 24" fill="#000">
<path d="M4.90639 4.75003C5.05147 4.64941 5.20149 4.55925 5.35583 4.47936C8.65509 2.77158 10.9992 7.40303 10.9994 11.1181L10.9998 17.4951C10.9999 19.2089 10.1024 21 8.38859 21C5.69472 20.9998 3.49999 19.1689 3.49999 16.5C3.49999 14.8327 5.85002 14.1437 6.42527 13.3507C2 11.5 2.55123 6.38393 4.90639 4.75003Z"/>
<path d="M19.0936 4.75003C18.9485 4.64941 18.7985 4.55925 18.6442 4.47936C15.3449 2.77158 13.0008 7.40303 13.0006 11.1181L13.0002 17.4951C13.0001 19.2089 13.8976 21 15.6114 21C18.3053 20.9998 20.5 19.1689 20.5 16.5C20.5 14.8327 18.15 14.1437 17.5747 13.3507C22 11.5 21.4488 6.38393 19.0936 4.75003Z"/>
</svg>
