<svg width="24" height="25" viewBox="0 0 24 25" fill="none" xmlns="http://www.w3.org/2000/svg">
<path d="M4.90639 5.60721C5.05147 5.50658 5.20149 5.41643 5.35583 5.33654C8.65509 3.62876 10.9992 8.26021 10.9994 11.9753L10.9998 18.3522C10.9999 20.0661 10.1024 21.8571 8.38859 21.8572C5.69472 21.857 3.49999 20.0261 3.49999 17.3572C3.49999 15.6899 5.85002 15.0009 6.42527 14.2079C2 12.3572 2.55123 7.24111 4.90639 5.60721Z" fill="black"/>
<path d="M19.0936 5.60721C18.9485 5.50658 18.7985 5.41643 18.6442 5.33654C15.3449 3.62876 13.0008 8.26021 13.0006 11.9753L13.0002 18.3522C13.0001 20.0661 13.8976 21.8571 15.6114 21.8572C18.3053 21.857 20.5 20.0261 20.5 17.3572C20.5 15.6899 18.15 15.0009 17.5747 14.2079C22 12.3572 21.4488 7.24111 19.0936 5.60721Z" fill="black"/>
</svg>
