<svg width="24" height="24" viewBox="0 0 24 24" fill="none" xmlns="http://www.w3.org/2000/svg">
<path d="M3 6.125C3 4.39911 4.39911 3 6.125 3H17.875C19.6009 3 21 4.39911 21 6.125C21 7.16053 20.1605 8 19.125 8H4.875C3.83947 8 3 7.16053 3 6.125Z" fill="black"/>
<path d="M18.1738 10.0049C19.6939 10.0931 20.9069 11.3061 20.9951 12.8262C20.9979 12.8742 20.9965 12.9274 20.9971 13H17C14.7909 13 13 14.7909 13 17V20.9893C12.6268 20.9985 12.1964 21 11.6865 21H9.28613C7.15368 21 6.08721 20.9996 5.26465 20.6035C4.44822 20.2103 3.78966 19.5518 3.39648 18.7354C3.00036 17.9128 3 16.8463 3 14.7139C3 13.1148 2.99981 12.3151 3.29688 11.6982C3.59175 11.0859 4.08592 10.5918 4.69824 10.2969C5.31511 9.99981 6.1148 10 7.71387 10H17.7793C17.9843 10 18.0872 9.99986 18.1738 10.0049Z" fill="black"/>
<path d="M17 15H20.6396C20.4588 15.3973 20.2137 15.7662 19.9092 16.0889C19.8695 16.1309 19.8269 16.1731 19.7422 16.2578L17.3428 18.6572C16.2546 19.7454 15.677 20.318 15 20.6357V17C15 15.9643 15.7872 15.113 16.7959 15.0107L17 15Z" fill="black"/>
</svg>
