<svg width="24" height="24" viewBox="0 0 24 24" fill="none" xmlns="http://www.w3.org/2000/svg">
<path d="M12 11C13.1046 11 14 11.8954 14 13C14 14.1046 13.1046 15 12 15C10.8954 15 10 14.1046 10 13C10 11.8954 10.8954 11 12 11Z" fill="black"/>
<path fill-rule="evenodd" clip-rule="evenodd" d="M12 4C13.7301 4 15.1033 4.85257 15.9629 6.15332C15.9291 6.1501 15.8953 6.14626 15.8613 6.14355C18.5353 6.35649 20.6727 8.18065 20.9092 10.8525C20.9655 11.4892 21 12.2045 21 13C21 13.7955 20.9655 14.5108 20.9092 15.1475C20.6727 17.8194 18.5353 19.6435 15.8613 19.8564C14.7934 19.9415 13.5097 20 12 20C10.4903 20 9.20664 19.9415 8.13867 19.8564C5.46472 19.6435 3.32734 17.8194 3.09082 15.1475C3.03451 14.5108 3 13.7955 3 13C3 12.2045 3.03451 11.4892 3.09082 10.8525C3.32734 8.18065 5.46472 6.35649 8.13867 6.14355C8.10438 6.14629 8.07025 6.15006 8.03613 6.15332C8.89575 4.85232 10.2697 4 12 4ZM12 9C9.79086 9 8 10.7909 8 13C8 15.2091 9.79086 17 12 17C14.2091 17 16 15.2091 16 13C16 10.7909 14.2091 9 12 9Z" fill="black"/>
</svg>
