<svg width="24" height="24" viewBox="0 0 24 24" fill="none" xmlns="http://www.w3.org/2000/svg">
<path fill-rule="evenodd" clip-rule="evenodd" d="M13.2383 3.0022C13.9573 3.00672 14.4041 3.02457 14.8027 3.09692C16.9758 3.49147 18.7569 5.04789 19.4385 7.14868C19.6051 7.66242 19.6875 8.27451 19.8525 9.49731C19.9614 10.3042 20.0415 10.9022 20.0869 11.3801C21.2222 11.9588 22 13.1386 22 14.5002C21.9999 15.8962 21.1822 17.1006 20 17.6624V18.5002C20 18.9645 20.0003 19.1968 19.9619 19.3899C19.8041 20.1831 19.1838 20.8032 18.3906 20.9612C18.1974 20.9996 17.9647 21.0002 17.5 21.0002C17.0353 21.0002 16.8026 20.9996 16.6094 20.9612C15.8162 20.8032 15.1959 20.1831 15.0381 19.3899C14.9997 19.1968 15 18.9645 15 18.5002V18.0002H9V18.5002C9 18.9645 9.00027 19.1968 8.96191 19.3899C8.80413 20.1831 8.18377 20.8032 7.39062 20.9612C7.19743 20.9996 6.96466 21.0002 6.5 21.0002C6.03534 21.0002 5.80257 20.9996 5.60938 20.9612C4.81623 20.8032 4.19587 20.1831 4.03809 19.3899C3.99973 19.1968 4 18.9645 4 18.5002V17.6624C2.81777 17.1006 2.00009 15.8962 2 14.5002C2 13.1381 2.77811 11.9576 3.91406 11.3792C3.93763 11.1321 3.96939 10.8529 4.01074 10.5295L4.14746 9.49731C4.29187 8.4273 4.37324 7.82488 4.50293 7.34692L4.56152 7.14868C5.20056 5.17906 6.80607 3.68753 8.79492 3.18384L9.19727 3.09692C9.72875 3.00044 10.3459 3.00024 11.5801 3.00024H12.4199L13.2383 3.0022ZM7.5 13.0002C6.63848 13.0002 6 13.6387 6 14.5002C6.00012 15.3616 6.63856 16.0002 7.5 16.0002C8.36144 16.0002 8.99988 15.3616 9 14.5002C9 13.6387 8.36152 13.0002 7.5 13.0002ZM16.5 13.0002C15.6385 13.0002 15 13.6387 15 14.5002C15.0001 15.3616 15.6386 16.0002 16.5 16.0002C17.3614 16.0002 17.9999 15.3616 18 14.5002C18 13.6387 17.3615 13.0002 16.5 13.0002ZM11.5801 6.50024C10.1993 6.50025 9.96695 6.51402 9.82227 6.54028C8.91691 6.70473 8.1746 7.35349 7.89062 8.22876C7.84529 8.36866 7.80072 8.59798 7.61621 9.96509C7.55914 10.388 7.515 10.727 7.48047 11.0002H16.5195C16.485 10.727 16.4409 10.388 16.3838 9.96509C16.1993 8.59798 16.1547 8.36866 16.1094 8.22876C15.8254 7.35349 15.0831 6.70473 14.1777 6.54028C14.0331 6.51402 13.8007 6.50025 12.4199 6.50024H11.5801Z" fill="black"/>
</svg>
