<svg width="24" height="24" viewBox="0 0 24 24" fill="none" xmlns="http://www.w3.org/2000/svg">
<path fill-rule="evenodd" clip-rule="evenodd" d="M19 11C19.9428 11 20.4142 11 20.7071 11.2929C21 11.5858 21 12.0572 21 13C21 15.8284 20.9998 17.2424 20.1211 18.1211C19.2424 18.9998 17.8284 19 15 19H9C6.17157 19 4.75759 18.9998 3.87891 18.1211C3.00023 17.2424 3 15.8284 3 13C3 12.0572 3 11.5858 3.29289 11.2929C3.58579 11 4.05719 11 5 11H19ZM6.59961 13C6.48646 13 6.30128 12.9976 6.1377 13.0195C5.94511 13.0454 5.64156 13.1202 5.38086 13.3809C5.12016 13.6416 5.04542 13.9451 5.01953 14.1377C4.99756 14.3013 5 14.4865 5 14.5996V15.4004C5 15.5135 4.99756 15.6987 5.01953 15.8623C5.04542 16.0549 5.12016 16.3584 5.38086 16.6191C5.64156 16.8798 5.94511 16.9546 6.1377 16.9805C6.30128 17.0024 6.48646 17 6.59961 17H9.40039C9.51354 17 9.69872 17.0024 9.8623 16.9805C10.0549 16.9546 10.3584 16.8798 10.6191 16.6191C10.8798 16.3584 10.9546 16.0549 10.9805 15.8623C11.0024 15.6987 11 15.5135 11 15.4004V14.5996C11 14.4865 11.0024 14.3013 10.9805 14.1377C10.9546 13.9451 10.8798 13.6416 10.6191 13.3809C10.3584 13.1202 10.0549 13.0454 9.8623 13.0195C9.69872 12.9976 9.51354 13 9.40039 13H6.59961Z" fill="black"/>
<path d="M15 5C17.8284 5 19.2424 5.00023 20.1211 5.87891C20.4118 6.16964 20.6064 6.51896 20.7365 6.95873C20.9808 7.78413 21.103 8.19682 20.803 8.59841C20.5031 9 19.9758 9 18.9213 9H5.07874C4.0242 9 3.49693 9 3.19698 8.59841C2.89703 8.19682 3.01918 7.78413 3.26348 6.95873C3.39364 6.51896 3.58817 6.16964 3.87891 5.87891C4.75759 5.00023 6.17157 5 9 5H15Z" fill="black"/>
</svg>
