<svg width="24" height="25" viewBox="0 0 24 25" fill="none" xmlns="http://www.w3.org/2000/svg">
<path d="M17 14.4286C18.6569 14.4286 20 15.7717 20 17.4286V19.9286C20 20.757 19.3284 21.4286 18.5 21.4286C17.6716 21.4286 17 20.757 17 19.9286V17.4286H7V19.9286C7 20.757 6.32843 21.4286 5.5 21.4286C4.67157 21.4286 4 20.757 4 19.9286V17.4286C4 15.7717 5.34315 14.4286 7 14.4286H17Z" fill="black"/>
<path d="M12 3.42859C16.2834 3.42859 17.64 6.42092 17.9333 10.4292C18.0139 11.5308 17.1046 12.4286 16 12.4286H8C6.89543 12.4286 5.98612 11.5308 6.06672 10.4292C6.35996 6.42092 7.7166 3.42859 12 3.42859Z" fill="black"/>
</svg>
