<svg width="24" height="24" viewBox="0 0 24 24" fill="none" xmlns="http://www.w3.org/2000/svg">
<path d="M7.89844 4.00888C8.41797 3.90461 8.98572 4.02996 9.45801 4.34482C9.93011 4.65974 10.2637 5.13577 10.3672 5.65537C10.4715 6.17558 10.3378 6.6978 10.0127 7.11826C9.93916 7.21355 9.86552 7.3091 9.79199 7.40439C8.60774 8.93905 7.42354 10.4742 6.23926 12.0089C7.42347 13.5434 8.60781 15.0788 9.79199 16.6134C9.86545 16.7086 9.93924 16.8043 10.0127 16.8995C10.3376 17.32 10.4716 17.8422 10.3672 18.3624C10.2636 18.882 9.93018 19.3581 9.45801 19.6729C8.9858 19.9877 8.41788 20.1131 7.89844 20.0089C7.37808 19.9052 6.94777 19.5799 6.68457 19.1183C6.62496 19.0138 6.5645 18.9092 6.50488 18.8048C5.42979 16.9218 4.35439 15.0374 3.2793 13.1544C3.21976 13.0501 3.16012 12.9452 3.10059 12.8409C2.99425 12.6543 2.93402 12.4428 2.91895 12.2257V11.7901C2.9341 11.5735 2.99449 11.3632 3.10059 11.1769C3.16018 11.0725 3.21971 10.9678 3.2793 10.8634C4.35444 8.98025 5.42974 7.09611 6.50488 5.21298C6.56456 5.10847 6.6249 5.00402 6.68457 4.89951C6.94774 4.43754 7.37788 4.1126 7.89844 4.00888Z" fill="black"/>
<path d="M13.9395 4.34482C14.4118 4.02991 14.9794 3.90451 15.499 4.00888C16.0195 4.11266 16.4498 4.43761 16.7129 4.89951C16.7725 5.0039 16.833 5.10859 16.8926 5.21298C17.9677 7.09599 19.0431 8.98037 20.1182 10.8634C20.1777 10.9676 20.2374 11.0726 20.2969 11.1769C20.4381 11.4251 20.4979 11.7166 20.4785 12.0079C20.4981 12.2997 20.4385 12.5923 20.2969 12.8409C20.2373 12.9452 20.1777 13.0501 20.1182 13.1544C19.0431 15.0374 17.9677 16.9217 16.8926 18.8048C16.833 18.9092 16.7725 19.0138 16.7129 19.1183C16.4497 19.5799 16.0193 19.9052 15.499 20.0089C14.9796 20.1132 14.4117 19.9876 13.9395 19.6729C13.4673 19.3582 13.1339 18.8819 13.0303 18.3624C12.9258 17.8421 13.0598 17.3201 13.3848 16.8995C13.4583 16.8043 13.532 16.7086 13.6055 16.6134C14.7897 15.0788 15.974 13.5435 17.1582 12.0089C15.9739 10.4743 14.7897 8.93902 13.6055 7.40439C13.532 7.3092 13.4582 7.21345 13.3848 7.11826C13.0597 6.69783 12.9261 6.17556 13.0303 5.65537C13.1338 5.13567 13.4672 4.65974 13.9395 4.34482Z" fill="black"/>
</svg>
