<svg width="24" height="25" viewBox="0 0 24 25" fill="none" xmlns="http://www.w3.org/2000/svg">
<path fill-rule="evenodd" clip-rule="evenodd" d="M12 3.42902C16.9706 3.42902 21 7.45845 21 12.429C20.9998 17.3994 16.9704 21.429 12 21.429C7.02959 21.429 3.00024 17.3994 3 12.429C3 7.45845 7.02944 3.42902 12 3.42902ZM16 15.429C15.4477 15.429 15 15.8767 15 16.429C15.0002 16.9811 15.4479 17.429 16 17.429C16.5521 17.429 16.9998 16.9811 17 16.429C17 15.8767 16.5523 15.429 16 15.429ZM12.707 10.722C12.3165 10.3315 11.6835 10.3315 11.293 10.722L9.5 12.515L7.70703 10.722C7.31651 10.3315 6.68349 10.3315 6.29297 10.722C5.90267 11.1125 5.90252 11.7456 6.29297 12.136L8.08594 13.929L6.29297 15.722C5.90269 16.1125 5.90254 16.7456 6.29297 17.136C6.68343 17.5263 7.31656 17.5263 7.70703 17.136L9.5 15.3431L11.293 17.136C11.6834 17.5263 12.3166 17.5263 12.707 17.136C13.0975 16.7456 13.0973 16.1125 12.707 15.722L10.9141 13.929L12.707 12.136C13.0975 11.7456 13.0973 11.1125 12.707 10.722Z" fill="black"/>
</svg>
