<svg width="24" height="24" viewBox="0 0 24 24" fill="none" xmlns="http://www.w3.org/2000/svg">
<path d="M17.958 3.95801C18.4881 3.95763 19.0166 4.18846 19.4141 4.58594C19.8115 4.98342 20.0424 5.51194 20.042 6.04199C20.0423 6.57267 19.8115 7.06147 19.4141 7.41406C19.3082 7.50811 19.2025 7.60225 19.0967 7.69629C17.4824 9.13092 15.8673 10.5653 14.2529 12C15.8673 13.4347 17.4824 14.8691 19.0967 16.3037C19.2025 16.3978 19.3082 16.4919 19.4141 16.5859C19.8115 16.9385 20.0423 17.4273 20.042 17.958C20.0424 18.4881 19.8115 19.0166 19.4141 19.4141C19.0166 19.8115 18.4881 20.0424 17.958 20.042C17.4273 20.0423 16.9385 19.8115 16.5859 19.4141C16.4919 19.3082 16.3978 19.2025 16.3037 19.0967C14.8691 17.4824 13.4347 15.8673 12 14.2529C10.5653 15.8673 9.13092 17.4824 7.69629 19.0967C7.60225 19.2025 7.50811 19.3082 7.41406 19.4141C7.06147 19.8115 6.57267 20.0423 6.04199 20.042C5.51194 20.0424 4.98342 19.8115 4.58594 19.4141C4.18846 19.0166 3.95763 18.4881 3.95801 17.958C3.95773 17.4273 4.18854 16.9385 4.58594 16.5859C4.69176 16.4919 4.7975 16.3978 4.90332 16.3037C6.51743 14.8692 8.13186 13.4345 9.74609 12C8.13186 10.5655 6.51743 9.13076 4.90332 7.69629C4.7975 7.60225 4.69176 7.50811 4.58594 7.41406C4.18854 7.06147 3.95773 6.57267 3.95801 6.04199C3.95763 5.51194 4.18846 4.98342 4.58594 4.58594C4.98342 4.18846 5.51194 3.95763 6.04199 3.95801C6.57267 3.95773 7.06147 4.18854 7.41406 4.58594C7.50811 4.69176 7.60225 4.7975 7.69629 4.90332C9.13076 6.51743 10.5655 8.13186 12 9.74609C13.4345 8.13186 14.8692 6.51743 16.3037 4.90332C16.3978 4.7975 16.4919 4.69176 16.5859 4.58594C16.9385 4.18854 17.4273 3.95773 17.958 3.95801Z" fill="black"/>
</svg>
