<svg width="24" height="24" viewBox="0 0 24 24" fill="none" xmlns="http://www.w3.org/2000/svg">
<path d="M7.57713 11.1713C7.52659 11.4413 7.49999 11.7197 7.49998 12.0043C7.49998 14.4896 9.5147 16.5043 12 16.5043C12.2621 16.5043 12.5187 16.4809 12.7685 16.4379C13.4294 17.1498 14.0875 17.8582 14.75 18.5717C13.8908 18.8421 12.972 19.0043 12 19.0043C8.81726 19.0043 6.19962 17.2831 4.40916 15.6206C3.50907 14.7847 2.80311 13.9498 2.32225 13.3247C2.08292 13.0135 1.89764 12.7529 1.77146 12.5678C1.5399 12.2281 1.53987 11.7806 1.77146 11.4409C1.89765 11.2558 2.08298 10.9951 2.32225 10.684C2.80311 10.0589 3.50914 9.22392 4.40916 8.38813C4.44611 8.35383 4.48381 8.31994 4.52146 8.2856C5.53996 9.24714 6.55855 10.2098 7.57713 11.1713ZM12 5.00435C15.1826 5.00439 17.8004 6.72559 19.5908 8.38813C20.4909 9.22397 21.1968 10.0589 21.6777 10.684C21.917 10.9952 22.1023 11.2558 22.2285 11.4409C22.4601 11.7806 22.46 12.2281 22.2285 12.5678C22.1023 12.7529 21.917 13.0136 21.6777 13.3247C21.2972 13.8193 20.7741 14.4441 20.1269 15.0981C18.9134 13.9522 17.6992 12.8054 16.4853 11.6596C16.3179 9.45069 14.557 7.68832 12.3486 7.51899L10.1894 5.19087C10.7697 5.07124 11.374 5.00435 12 5.00435ZM11.3633 14.9243C11.3671 14.9284 11.3711 14.9328 11.375 14.937C10.3418 14.7179 9.50436 13.9694 9.16404 12.9868C9.12655 12.8785 9.1178 12.7727 9.13084 12.6733L11.3633 14.9243Z" fill="black"/>
<path d="M16.6992 17.7338L17.1972 18.27L17.5019 18.5981C17.9509 19.0819 18.4734 19.4602 18.9609 19.6391C19.1206 19.6978 19.2733 19.733 19.414 19.7465C19.6487 19.769 19.8524 19.7295 20.0068 19.6303L20.0078 19.6293L20.1045 19.5532C20.3142 19.3509 20.3754 19.0137 20.2734 18.6088L20.2187 18.4311C20.2072 18.3981 20.195 18.3648 20.1816 18.3315C20.0226 17.9368 19.7364 17.5215 19.3721 17.143L19.3515 17.1225C19.3012 17.0708 19.2494 17.0193 19.1963 16.9692L18.8711 16.6616C18.7926 16.5874 18.7142 16.5131 18.6357 16.4389C17.7704 15.6219 16.9047 14.8049 16.039 13.9877L14.8681 12.8823L14.1582 12.2124L12 10.0346L11.3281 9.35786L10.0293 7.95845L9.95603 7.87935L8.09666 5.87739L6.92478 4.61567L6.62205 4.28853C6.17283 3.80435 5.64877 3.42551 5.16111 3.24653L4.9824 3.18989C4.57292 3.07934 4.22791 3.13008 4.01756 3.33247L3.93748 3.4272C3.77063 3.66702 3.75522 4.03294 3.90428 4.45649C4.07459 4.94062 4.44556 5.46404 4.92576 5.91743L5.25096 6.22407L6.09666 7.0229C6.88013 7.76256 7.66456 8.50189 8.44822 9.24165C8.95404 9.71914 9.45932 10.197 9.96482 10.6743L11.25 11.9711L12.7929 13.5268C13.0899 13.8466 13.3865 14.1669 13.6836 14.4868C14.0265 14.856 14.3699 15.2249 14.7129 15.5942C15.3752 16.3073 16.0371 17.0208 16.6992 17.7338Z" fill="black"/>
</svg>
