<svg width="24" height="24" viewBox="0 0 24 24" fill="none" xmlns="http://www.w3.org/2000/svg">
<path d="M18.9434 16.0769C19.0142 16.1477 19.0502 16.1827 19.0792 16.2137C19.8774 17.0681 19.9469 18.3233 19.2393 19.0936C19.2137 19.1214 19.1824 19.1534 19.1192 19.2166L19.1149 19.2209C19.0387 19.2972 18.9997 19.3361 18.9679 19.365C18.0527 20.1945 16.5147 19.9165 15.7393 18.7811C15.7137 18.7436 15.6832 18.695 15.626 18.6036L15.6124 18.5818L13.921 15.8807C15.2331 15.9699 16.564 15.4576 17.5723 14.7058L18.9434 16.0769Z" fill="black"/>
<path d="M6.41702 4.22633C6.98593 4.11945 7.45416 4.58768 8.38974 5.52326L8.39262 5.52614L9.6934 6.82692C8.76408 8.07325 8.19927 9.81522 8.68559 11.4012L7.12894 12.7097C6.95335 12.5575 6.77603 12.3939 6.59866 12.2166C4.7278 10.3457 4.91127 7.78133 5.41702 5.91872C5.70391 4.8621 5.84739 4.3334 6.41702 4.22633Z" fill="black"/>
<path d="M12.5742 13.1127L7.37725 19.2941C6.52997 20.3019 5.1838 20.586 4.49935 19.9016C3.81491 19.2171 4.09902 17.871 5.10679 17.0237L11.2882 11.8267C11.0892 11.6276 10.9897 11.5281 10.9171 11.433C10.2124 10.5095 10.4472 8.98661 11.4778 7.79558C11.584 7.67294 11.7198 7.53714 11.9914 7.26554L15.088 4.16892C15.5726 3.68435 16.2533 3.57942 16.6084 3.93454C16.9635 4.28966 16.8586 4.97036 16.374 5.45492L13.5612 8.26769C13.3189 8.50997 13.2665 8.85032 13.444 9.02788C13.6216 9.20544 13.962 9.15297 14.2042 8.91069L17.017 6.09792C17.5016 5.61336 18.1823 5.50843 18.5374 5.86355C18.8925 6.21866 18.7876 6.89936 18.303 7.38392L15.4902 10.1967C15.248 10.439 15.1955 10.7793 15.373 10.9569C15.5506 11.1344 15.891 11.082 16.1332 10.8397L18.9454 8.02712C19.43 7.54256 20.1113 7.43744 20.4664 7.79255C20.8215 8.14766 20.7166 8.82837 20.232 9.31293L17.1354 12.4096C16.8638 12.6811 16.728 12.817 16.6054 12.9231C15.4143 13.9538 13.8914 14.1885 12.9679 13.4838C12.8728 13.4113 12.7733 13.3117 12.5742 13.1127Z" fill="black"/>
</svg>