<svg width="24" height="24" viewBox="0 0 24 24" fill="none" xmlns="http://www.w3.org/2000/svg">
<path d="M18.609 10.0468C19.1303 9.53426 19.1303 8.70344 18.609 8.19086C18.0875 7.67837 17.2422 7.67837 16.7208 8.19086L13.2687 11.5849C13.3916 9.12178 13.5135 6.65832 13.6365 4.19521C13.6439 4.04687 13.6517 3.89836 13.6591 3.75002C13.6826 3.28589 13.5152 2.84004 13.181 2.51184C12.8475 2.18387 12.3742 2 11.8787 2C11.3834 2.00004 10.91 2.1839 10.5765 2.51184C10.2423 2.84002 10.0749 3.28596 10.0984 3.75002C10.1058 3.89837 10.1136 4.04686 10.121 4.19521C10.2398 6.57489 10.3588 8.95483 10.4774 11.3346L7.27923 8.19086C6.75783 7.67837 5.91255 7.67845 5.39109 8.19086C4.86964 8.70344 4.86964 9.53426 5.39109 10.0468L11.0555 15.6156C11.577 16.1281 12.4231 16.1281 12.9445 15.6156L18.609 10.0468Z" fill="black"/>
<path d="M18.2035 19.9932L18.2383 19.9956C18.7 20.0258 19.1461 19.8997 19.4761 19.6306C19.5842 19.5424 19.6783 19.4405 19.7547 19.3294C19.8819 19.1445 19.9624 18.9325 19.9898 18.7115V18.7091C19.9958 18.6594 19.9994 18.6089 19.9999 18.5585C20.0036 18.1991 19.8665 17.8517 19.6154 17.5875L19.5007 17.4803C19.4363 17.4258 19.3664 17.3766 19.2932 17.3334C19.0448 17.1863 18.7512 17.1052 18.4429 17.0948H18.4226C18.3723 17.0937 18.3211 17.0947 18.2702 17.0972L17.9568 17.1129C16.4448 17.1892 14.9312 17.2664 13.4191 17.343L10.604 17.3213L9.34153 17.2382L5.7631 17.0045C5.30391 16.9742 4.85916 17.0979 4.52965 17.3635C4.52745 17.3652 4.52604 17.3677 4.52385 17.3695L4.40631 17.4755C4.1489 17.7362 4.00394 18.0817 4 18.4416L4.00726 18.5946C4.0435 18.9493 4.21702 19.2816 4.50063 19.521C4.82468 19.7944 5.26765 19.9274 5.72972 19.9041L6.04316 19.8884C7.55496 19.812 10.5627 19.9041 10.5627 19.9041H13.5C13.5 19.9041 16.4153 19.8765 17.9248 19.9751L18.2035 19.9932Z" fill="black"/>
</svg>