<svg width="24" height="25" viewBox="0 0 24 25" fill="none" xmlns="http://www.w3.org/2000/svg">
<path fill-rule="evenodd" clip-rule="evenodd" d="M12.4248 2.85913C17.8979 2.90605 21.9511 6.95927 21.998 12.4324C21.9992 12.5721 22 12.7138 22 12.8572C22 13.0005 21.9992 13.1423 21.998 13.282C21.9511 18.7551 17.8979 22.8083 12.4248 22.8552C12.2851 22.8564 12.1433 22.8572 12 22.8572C11.8567 22.8572 11.7149 22.8564 11.5752 22.8552C6.10209 22.8083 2.04887 18.7551 2.00195 13.282C2.00076 13.1423 2 13.0005 2 12.8572C2 12.7138 2.00076 12.5721 2.00195 12.4324C2.04887 6.95927 6.10209 2.90605 11.5752 2.85913C11.7149 2.85794 11.8567 2.85718 12 2.85718C12.1433 2.85718 12.2851 2.85794 12.4248 2.85913ZM9 13.8572C8.44788 13.8574 8 14.305 8 14.8572V16.3083C8 17.6622 9.7914 18.7601 12 18.7605C14.2087 18.7602 16 17.6623 16 16.3083V14.8572C16 14.3049 15.5523 13.8572 15 13.8572H9ZM8 7.85718C6.87408 7.85718 6.07426 8.34903 5.58887 9.02319C5.14019 9.64636 5 10.3638 5 10.8572C5 11.4095 5.44772 11.8572 6 11.8572C6.55228 11.8572 7 11.4095 7 10.8572C7 10.6839 7.0606 10.4013 7.21191 10.1912C7.32656 10.0321 7.52631 9.85718 8 9.85718C8.47369 9.85718 8.67344 10.0321 8.78809 10.1912C8.9394 10.4013 9 10.6839 9 10.8572C9 11.4095 9.44772 11.8572 10 11.8572C10.5523 11.8572 11 11.4095 11 10.8572C11 10.3638 10.8598 9.64636 10.4111 9.02319C9.92574 8.34903 9.12592 7.85718 8 7.85718ZM16 7.85718C14.8741 7.85718 14.0743 8.34903 13.5889 9.02319C13.1402 9.64636 13 10.3638 13 10.8572C13 11.4095 13.4477 11.8572 14 11.8572C14.5523 11.8572 15 11.4095 15 10.8572C15 10.6839 15.0606 10.4013 15.2119 10.1912C15.3266 10.0321 15.5263 9.85718 16 9.85718C16.4737 9.85718 16.6734 10.0321 16.7881 10.1912C16.9394 10.4013 17 10.6839 17 10.8572C17 11.4095 17.4477 11.8572 18 11.8572C18.5523 11.8572 19 11.4095 19 10.8572C19 10.3638 18.8598 9.64636 18.4111 9.02319C17.9257 8.34903 17.1259 7.85718 16 7.85718Z" fill="black"/>
</svg>
