<svg width="24" height="24" viewBox="0 0 24 24" >
<path fill-rule="evenodd" clip-rule="evenodd" d="M12.0002 3.00012C13.4833 3.00013 14.7483 3.07262 15.8049 3.17883C18.5278 3.45259 20.5476 5.47159 20.8215 8.19446C20.9277 9.25118 21.0002 10.5168 21.0002 12.0001C21.0002 13.4832 20.9277 14.7482 20.8215 15.8048C20.5477 18.5279 18.5279 20.5476 15.8049 20.8214C14.7483 20.9276 13.4833 21.0001 12.0002 21.0001C10.5169 21.0001 9.25124 20.9277 8.19452 20.8214C5.47162 20.5475 3.45265 18.5278 3.17889 15.8048C3.07268 14.7482 3.00019 13.4832 3.00018 12.0001C3.00018 10.5168 3.07266 9.25118 3.17889 8.19446C3.4528 5.47171 5.47175 3.4527 8.19452 3.17883C9.25124 3.07259 10.5169 3.00012 12.0002 3.00012ZM11.5002 7.00012C10.9479 7.00012 10.5002 7.44784 10.5002 8.00012C10.5002 8.55235 10.9479 9.00012 11.5002 9.00012H13.5861L6.79315 15.7931C6.40263 16.1836 6.40263 16.8166 6.79315 17.2072C7.18369 17.5975 7.81674 17.5976 8.20721 17.2072L15.0002 10.4142V13.0001C15.0002 13.5524 15.4479 14.0001 16.0002 14.0001C16.5523 14 17.0001 13.5523 17.0002 13.0001V8.00012C17.0002 7.4479 16.5524 7.00022 16.0002 7.00012H11.5002Z" />
</svg>
