<svg width="24" height="24" viewBox="0 0 24 24" fill="none" xmlns="http://www.w3.org/2000/svg">
<path d="M12.1543 9.00396C13.7394 9.08427 15 10.395 15 12.0001C15 13.6569 13.6568 15 12 15.0001C10.687 15.0001 9.57109 14.1566 9.16439 12.982C8.98369 12.4601 9.44772 12.0001 10 12.0001H11C11.5523 12.0001 12 11.5523 12 11.0001V9.1544C12 9.0698 12.0697 9.00182 12.1543 9.00396Z" fill="black"/>
<path fill-rule="evenodd" clip-rule="evenodd" d="M21.402 12C21.2857 11.8294 21.1117 11.5841 20.8848 11.2891C20.4284 10.6958 19.7598 9.90519 18.9102 9.11621C17.2004 7.52858 14.8171 6 12 6C9.1829 6 6.79959 7.52858 5.08984 9.11621C4.24019 9.90519 3.57156 10.6958 3.11523 11.2891C2.88828 11.5841 2.71432 11.8294 2.59801 12C2.71432 12.1706 2.88828 12.4159 3.11523 12.7109C3.57156 13.3042 4.24019 14.0948 5.08984 14.8838C6.79959 16.4714 9.1829 18 12 18C14.8171 18 17.2004 16.4714 18.9102 14.8838C19.7598 14.0948 20.4284 13.3041 20.8848 12.7109C21.1117 12.4159 21.2857 12.1706 21.402 12ZM12 16.5C14.4853 16.5 16.5 14.4853 16.5 12C16.5 9.51472 14.4853 7.5 12 7.5C9.51472 7.5 7.5 9.51472 7.5 12C7.5 14.4853 9.51472 16.5 12 16.5Z" fill="black"/>
<path fill-rule="evenodd" clip-rule="evenodd" d="M19.5908 8.38379C17.8004 6.72122 15.1827 5 12 5C8.81728 5 6.19964 6.72122 4.40918 8.38379C3.50908 9.21965 2.80313 10.0546 2.32226 10.6797C2.08293 10.9908 1.89767 11.2514 1.77148 11.4365C1.53988 11.7763 1.53988 12.2237 1.77148 12.5635C1.89767 12.7486 2.08293 13.0092 2.32226 13.3203C2.80313 13.9454 3.50908 14.7804 4.40918 15.6162C6.19964 17.2788 8.81728 19 12 19C15.1827 19 17.8004 17.2788 19.5908 15.6162C20.4909 14.7804 21.1969 13.9454 21.6777 13.3203C21.9171 13.0092 22.1023 12.7486 22.2285 12.5635C22.4601 12.2237 22.4601 11.7763 22.2285 11.4365C22.1023 11.2514 21.9171 10.9908 21.6777 10.6797C21.1969 10.0546 20.4909 9.21965 19.5908 8.38379ZM5.08984 9.11621C6.79959 7.52858 9.1829 6 12 6C14.8171 6 17.2004 7.52858 18.9102 9.11621C19.7598 9.90519 20.4284 10.6958 20.8848 11.2891C21.1117 11.5841 21.2857 11.8294 21.402 12C21.2857 12.1706 21.1117 12.4159 20.8848 12.7109C20.4284 13.3041 19.7598 14.0948 18.9102 14.8838C17.2004 16.4714 14.8171 18 12 18C9.1829 18 6.79959 16.4714 5.08984 14.8838C4.24019 14.0948 3.57156 13.3042 3.11523 12.7109C2.88828 12.4159 2.71432 12.1706 2.59801 12C2.71432 11.8294 2.88828 11.5841 3.11523 11.2891C3.57156 10.6958 4.24019 9.90519 5.08984 9.11621ZM12.1543 9.00396C13.7394 9.08427 15 10.395 15 12.0001C15 13.6569 13.6568 15 12 15.0001C10.687 15.0001 9.57109 14.1566 9.16439 12.982C8.98369 12.4601 9.44772 12.0001 10 12.0001H11C11.5523 12.0001 12 11.5523 12 11.0001V9.1544C12 9.0698 12.0697 9.00182 12.1543 9.00396Z" fill="black"/>
</svg>
