<svg width="24" height="24" viewBox="0 0 24 24" >
<path fill-rule="evenodd" clip-rule="evenodd" d="M11.9995 3C16.6919 3 19.3208 4.03228 20.6919 4.88574C21.5346 5.41062 21.4524 6.49297 20.7143 7.15723L13.9995 13.1992V19.4004C13.9992 20.0593 13.2474 20.4352 12.7202 20.04L10.8003 18.5996C10.2966 18.2219 9.99947 17.6295 9.99947 17V13.1992L3.28561 7.15723C2.5475 6.49292 2.46513 5.41057 3.30807 4.88574C4.67912 4.0323 7.30729 3.00006 11.9995 3ZM12.0005 5C8.13446 5 5.50045 5.44772 5.50045 6C5.50045 6.55228 8.13446 7 12.0005 7C15.8662 6.99997 18.5005 6.55226 18.5005 6C18.5005 5.44774 15.8662 5.00003 12.0005 5Z" />
</svg>
