<svg width="24" height="24" viewBox="0 0 24 24" fill="none" xmlns="http://www.w3.org/2000/svg">
<path d="M18.2951 12C19.7572 12 20.4886 12.0001 20.9132 12.373C21.1023 12.5392 21.247 12.7507 21.3331 12.9873C21.5261 13.5183 21.2604 14.1996 20.7296 15.5615C20.0195 17.3837 19.6643 18.2954 19.005 18.915C18.7039 19.198 18.3604 19.4325 17.9874 19.6104C17.1707 19.9998 16.1923 20 14.2365 20H9.83216C7.88742 20 6.91479 20.0001 6.10462 19.6182C5.68919 19.4222 5.31062 19.1555 4.98548 18.8311C4.35134 18.1983 4.02084 17.2832 3.36146 15.4531C2.89275 14.1522 2.65852 13.5012 2.83997 12.9941C2.93109 12.7397 3.0895 12.5147 3.29798 12.3428C3.71355 12.0002 4.40527 12 5.78822 12H18.2951Z" fill="black"/>
<path d="M8.70033 4C9.18415 4 9.42625 4.00031 9.64661 4.05078C10.0597 4.14544 10.4322 4.36852 10.7101 4.68848C10.8584 4.8592 10.9725 5.07288 11.2003 5.5C11.428 5.92693 11.5414 6.14083 11.6896 6.31152C11.9674 6.63143 12.3401 6.85454 12.7531 6.94922C12.9735 6.99971 13.2162 7 13.7003 7H17.0001C18.6569 7.00011 20.0001 8.34321 20.0001 10H4.00013V8.57129C4.00013 7.10682 4.00001 6.37442 4.25013 5.80078C4.55276 5.10714 5.10631 4.55267 5.79994 4.25C6.37366 3.99969 7.1065 4 8.57142 4H8.70033Z" fill="black"/>
</svg>
