<svg width="24" height="24" viewBox="0 0 24 24" fill="none" xmlns="http://www.w3.org/2000/svg">
<path d="M13.7679 7.44213H18.661C19.9136 7.40756 20.9301 8.43649 20.9301 9.68952L21 11.905C21 15.6545 20.9997 17.5292 20.0449 18.8435C19.7365 19.268 19.3629 19.6415 18.9385 19.9499C17.6242 20.9047 15.7495 20.905 12 20.905C8.25047 20.905 6.37584 20.9047 5.06152 19.9499C4.63705 19.6415 4.26348 19.268 3.95508 18.8435C3.00033 17.5292 3 15.6545 3 11.905C3 8.1555 3.00032 6.28086 3.95508 4.96655C4.26348 4.54207 4.63705 4.1685 5.06152 3.8601C6.00289 3.17627 7.28898 3.15016 9.28824 3.09498C10.5304 3.18748 11.5 3.92117 11.5 5.1742C11.5 6.42675 12.5154 7.44213 13.7679 7.44213Z" fill="black"/>
</svg>
