<svg width="24" height="24" viewBox="0 0 24 24" fill="none" xmlns="http://www.w3.org/2000/svg">
<path d="M8.30273 5.70997C9.66489 2.41333 14.3351 2.41333 15.6973 5.70997L17.9873 11.252L20.8037 17.1367C21.2806 18.133 20.8596 19.3268 19.8633 19.8037C18.867 20.2806 17.6732 19.8596 17.1963 18.8633L16.3184 17.0293H7.68164L6.80371 18.8633C6.32683 19.8596 5.13303 20.2806 4.13672 19.8037C3.14042 19.3268 2.71944 18.133 3.19629 17.1367L6.01172 11.252L8.30273 5.70997ZM9.69238 12.8223L9.6709 12.8731L9.64746 12.9219L9.5957 13.0293H14.4043L14.3525 12.9219L14.3291 12.8731L14.3076 12.8223L12 7.23731L9.69238 12.8223Z" fill="black"/>
</svg>
