<svg width="24" height="24" viewBox="0 0 24 24" fill="none" xmlns="http://www.w3.org/2000/svg">
<path d="M12 3C13.4831 3 14.7481 3.0725 15.8047 3.17871C18.5277 3.45247 20.5475 5.47227 20.8213 8.19531C20.9275 9.25193 21 10.5169 21 12C21 13.4831 20.9275 14.7481 20.8213 15.8047C20.5475 18.5277 18.5277 20.5475 15.8047 20.8213C14.7481 20.9275 13.4831 21 12 21C10.5169 21 9.25193 20.9275 8.19531 20.8213C5.47227 20.5475 3.45247 18.5277 3.17871 15.8047C3.0725 14.7481 3 13.4831 3 12C3 10.5169 3.0725 9.25193 3.17871 8.19531C3.45247 5.47227 5.47227 3.45247 8.19531 3.17871C9.25193 3.0725 10.5169 3 12 3ZM9.8418 13.2119C9.08036 12.5238 7.92071 12.524 7.15918 13.2119L5.53125 14.6826C5.27221 14.9166 5.13402 15.2581 5.16895 15.6055C5.34769 17.3819 6.61813 18.6523 8.39453 18.8311C9.38346 18.9305 10.5822 19 12 19C13.4178 19 14.6165 18.9305 15.6055 18.8311C16.8224 18.7086 17.7998 18.0733 18.3525 17.1143C18.7085 16.4966 18.434 15.7477 17.9053 15.2695L17.8418 15.2119C17.0804 14.5238 15.9207 14.524 15.1592 15.2119L14.9473 15.4033C14.1857 16.091 13.0269 16.0904 12.2656 15.4023L9.8418 13.2119ZM15 7C13.8956 7.00022 13 7.89557 13 9C13 10.1044 13.8956 10.9998 15 11C16.1044 10.9998 17 10.1044 17 9C17 7.89558 16.1044 7.00024 15 7Z" fill="black"/>
</svg>
