<svg width="24" height="24" viewBox="0 0 24 24" fill="none" xmlns="http://www.w3.org/2000/svg">
<path d="M9.4613 18.6094C10.0312 18.994 10.7043 19.1663 11.3685 19.126L11.5785 19.1143H11.5804C12.573 19.0538 13.568 18.9922 14.5599 18.9316H14.5629L14.6927 19.458C14.8597 20.14 14.531 20.8511 13.8705 21.0889C13.2872 21.2986 12.5709 21.4999 11.9779 21.5C11.385 21.4999 10.6694 21.2985 10.0863 21.0889C9.4255 20.8512 9.09705 20.1401 9.26403 19.458L9.44665 18.71C9.4548 18.6766 9.45736 18.6427 9.4613 18.6094ZM11.9779 3.5C12.571 3.50009 13.2871 3.70232 13.8705 3.91211C14.5309 4.14988 14.8596 4.86014 14.6927 5.54199L14.5092 6.28809C14.4112 6.68858 14.6232 7.09689 14.9799 7.30371C15.3369 7.51045 15.7931 7.48745 16.0912 7.20215L16.6468 6.6709C17.1541 6.18535 17.9339 6.11398 18.4701 6.56738C18.9434 6.9677 19.4764 7.48644 19.7728 8C20.0694 8.51371 20.2517 9.23466 20.3617 9.84473C20.4861 10.5357 20.0347 11.1756 19.3607 11.3721L18.6215 11.5869C18.2256 11.7022 17.9789 12.0876 17.9789 12.5C17.9789 12.6584 18.0153 12.8126 18.0824 12.9492C17.5123 12.9845 16.9423 13.02 16.3734 13.0547L14.9281 13.041C14.9601 12.8654 14.9789 12.6848 14.9789 12.5C14.9789 10.8434 13.6353 9.50043 11.9789 9.5C10.322 9.5 8.97888 10.8431 8.97888 12.5C8.97888 12.8621 9.04592 13.2079 9.16345 13.5293C9.12005 13.5673 9.07819 13.6075 9.03649 13.6484L9.03552 13.6475C8.39788 14.2727 8.09076 15.1154 8.08337 15.9268C8.07864 16.4812 8.21358 17.0528 8.49938 17.5615C8.2679 17.5553 8.03921 17.6306 7.86462 17.7979L7.30993 18.3301C6.80284 18.8156 6.02289 18.8857 5.48669 18.4326C5.0134 18.0324 4.48053 17.5136 4.18395 17C3.88744 16.4863 3.70411 15.7654 3.59411 15.1553C3.46976 14.4644 3.92122 13.8254 4.59509 13.6289L5.33435 13.4131C5.73002 13.2975 5.97882 12.9123 5.97888 12.5C5.97889 12.0877 5.73008 11.7023 5.33435 11.5869L4.59509 11.3721C3.92105 11.1756 3.4706 10.5357 3.59509 9.84473C3.70509 9.23457 3.88738 8.51371 4.18395 8C4.48054 7.48637 5.01332 6.96771 5.48669 6.56738C6.02292 6.11411 6.80279 6.18524 7.30993 6.6709L7.86462 7.20215C8.16278 7.48726 8.61887 7.51049 8.97595 7.30371C9.33261 7.09699 9.54459 6.68853 9.44665 6.28809L9.26403 5.54199C9.09711 4.85995 9.42553 4.14975 10.0863 3.91211C10.6695 3.70238 11.3849 3.50008 11.9779 3.5Z" fill="black"/>
<path d="M19.642 17.2031L19.6654 17.2051C19.9761 17.2296 20.2764 17.1273 20.4984 16.9092C20.5712 16.8377 20.6345 16.7551 20.6859 16.665C20.7715 16.5151 20.8257 16.3432 20.8441 16.1641V16.1621C20.8482 16.1218 20.8506 16.0809 20.8509 16.04C20.8534 15.7487 20.7611 15.4671 20.5922 15.2529L20.515 15.166C20.4716 15.1218 20.4246 15.082 20.3754 15.0469C20.2082 14.9277 20.0106 14.8619 19.8031 14.8535H19.7894C19.7556 14.8526 19.7211 14.8534 19.6869 14.8555L19.4759 14.8682C18.4584 14.93 17.4398 14.9926 16.4222 15.0547L14.5277 15.0371L13.6781 14.9697L13.5775 14.9619L11.2699 14.7803C10.9609 14.7557 10.6616 14.856 10.4398 15.0713C10.4383 15.0727 10.4374 15.0747 10.4359 15.0762L10.3568 15.1621C10.1836 15.3735 10.086 15.6535 10.0834 15.9453L10.0883 16.0693C10.1126 16.3568 10.2294 16.6263 10.4203 16.8203C10.6384 17.0419 10.9365 17.1498 11.2474 17.1309L11.4584 17.1182C12.4758 17.0562 13.4947 16.9937 14.5121 16.9316L16.4056 16.9492C17.4216 17.0292 18.4386 17.1085 19.4545 17.1885L19.642 17.2031Z" fill="black"/>
</svg>
