<svg width="24" height="24" viewBox="0 0 24 24" fill="none" xmlns="http://www.w3.org/2000/svg">
<path d="M9.24807 18.1084C9.81868 18.4942 10.493 18.6666 11.1582 18.626C11.2265 18.6218 11.2967 18.6175 11.3672 18.6133H11.3692C11.621 18.5979 11.873 18.5818 12.125 18.5664C12.1052 18.8183 12.0863 19.0704 12.0664 19.3223C12.0637 19.3569 12.0614 19.3926 12.0586 19.4277L12.0498 19.5342C12.0118 20.0163 12.0863 20.5047 12.2735 20.957C12.0981 20.9832 11.9269 21 11.7647 21C11.1718 20.9999 10.4562 20.7985 9.87307 20.5889C9.21227 20.3512 8.88383 19.6401 9.05081 18.958L9.23342 18.21C9.24165 18.1763 9.24413 18.1421 9.24807 18.1084ZM11.7647 3C12.3578 3.00012 13.0739 3.20233 13.6573 3.41211C14.3176 3.64991 14.6463 4.36018 14.4795 5.04199L14.2959 5.78809C14.1979 6.18858 14.4099 6.59689 14.7666 6.80371C15.1237 7.01041 15.5799 6.98743 15.878 6.70215L16.4336 6.1709C16.9408 5.68539 17.7206 5.614 18.2569 6.06738C18.7302 6.46769 19.2631 6.98646 19.5596 7.5C19.8561 8.01371 20.0385 8.73467 20.1485 9.34473C20.2729 10.0356 19.8214 10.6755 19.1475 10.8721L18.4668 11.0693C18.4356 10.3419 18.1517 9.62121 17.5987 9.05859C16.9711 8.41974 16.1288 8.11619 15.3233 8.1084H15.3213C14.5096 8.10125 13.6631 8.39382 13.0274 9.01855C12.9658 9.07901 12.9079 9.14184 12.8526 9.20605C12.5153 9.07466 12.1493 9.00011 11.7657 9C10.1088 9 8.76565 10.3431 8.76565 12C8.76565 12.3621 8.83269 12.7079 8.95022 13.0293C8.9072 13.067 8.86558 13.1069 8.82424 13.1475C8.18688 13.7726 7.87957 14.6146 7.8721 15.4258C7.86734 15.9803 8.0023 16.5525 8.28811 17.0615C8.05595 17.0548 7.8265 17.1302 7.65139 17.2979L7.0967 17.8301C6.58963 18.3156 5.80966 18.3857 5.27346 17.9326C4.80019 17.5324 4.26731 17.0135 3.97073 16.5C3.67422 15.9863 3.49089 15.2654 3.38088 14.6553C3.25653 13.9644 3.70799 13.3254 4.38186 13.1289L5.12112 12.9131C5.51674 12.7974 5.76559 12.4123 5.76565 12C5.76566 11.5877 5.5168 11.2024 5.12112 11.0869L4.38186 10.8721C3.70782 10.6756 3.25737 10.0357 3.38186 9.34473C3.49186 8.73457 3.67416 8.01371 3.97073 7.5C4.26732 6.98638 4.80011 6.46769 5.27346 6.06738C5.8097 5.61416 6.58959 5.68526 7.0967 6.1709L7.65139 6.70215C7.94956 6.98721 8.40566 7.01048 8.76272 6.80371C9.11933 6.59698 9.33135 6.18849 9.23342 5.78809L9.05081 5.04199C8.88389 4.35995 9.2123 3.64975 9.87307 3.41211C10.4563 3.20239 11.1717 3.00008 11.7647 3Z" fill="black"/>
<path d="M14.1533 20.2627C14.201 20.3572 14.263 20.4452 14.3399 20.5234C14.5577 20.7453 14.8748 20.872 15.208 20.875C15.5414 20.8779 15.8613 20.7562 16.083 20.5381C16.305 20.3199 16.4126 20.0222 16.3936 19.7109C16.3893 19.6411 16.3852 19.5699 16.3809 19.5C16.3438 18.8907 16.3059 18.2813 16.2686 17.6719C16.2436 17.264 16.2192 16.8561 16.1944 16.4482C17.2105 16.5282 18.2272 16.6075 19.2432 16.6875L19.4297 16.7021L19.4541 16.7041C19.765 16.7287 20.065 16.6265 20.2871 16.4082C20.5091 16.1903 20.6366 15.8724 20.6397 15.5391C20.6425 15.2061 20.5215 14.8868 20.3037 14.665C20.2598 14.6203 20.2119 14.5812 20.1621 14.5459C19.9642 14.4055 19.7245 14.3392 19.4756 14.3545L19.2647 14.3672C18.247 14.4291 17.2287 14.4916 16.211 14.5537C16.2912 13.5371 16.3722 12.5204 16.4522 11.5039C16.4576 11.434 16.4623 11.3628 16.4678 11.293C16.4925 10.9818 16.3913 10.6822 16.1729 10.46C15.955 10.2379 15.6371 10.1116 15.3037 10.1084C14.9703 10.1055 14.6506 10.2271 14.4287 10.4453C14.4072 10.4665 14.3866 10.4882 14.3672 10.5107C14.1866 10.7214 14.1008 10.9921 14.1182 11.2734L14.1293 11.4575L14.1309 11.4834C14.1751 12.2084 14.2187 12.9339 14.2627 13.6592C14.2805 13.9515 14.2986 14.2439 14.3164 14.5361C14.033 14.5138 13.7494 14.4911 13.4658 14.4688C12.7334 14.411 12.0007 14.3535 11.2686 14.2959L11.0586 14.2793C10.7489 14.2547 10.4495 14.3559 10.2276 14.5723L10.2246 14.5752C10.0024 14.7931 9.87514 15.1108 9.8721 15.4443C9.86925 15.7778 9.99085 16.0975 10.209 16.3193C10.4271 16.5412 10.725 16.6488 11.0362 16.6299L11.2471 16.6172C12.2646 16.5552 13.2833 16.4928 14.3008 16.4307L14.0606 19.4795L14.044 19.6904C14.0279 19.8922 14.0656 20.0887 14.1533 20.2627Z" fill="black"/>
</svg>
