<svg width="24" height="24" viewBox="0 0 24 24" fill="none" xmlns="http://www.w3.org/2000/svg">
<path fill-rule="evenodd" clip-rule="evenodd" d="M11.9995 3C12.5927 3.00002 13.3086 3.20228 13.8921 3.41211C14.5527 3.64979 14.8812 4.36002 14.7143 5.04199L14.5307 5.78809C14.4327 6.18858 14.6447 6.59689 15.0014 6.80371C15.3585 7.01063 15.8146 6.98753 16.1128 6.70215L16.6684 6.1709C17.1756 5.68518 17.9554 5.61392 18.4917 6.06738C18.9651 6.46772 19.4979 6.98637 19.7944 7.5C20.091 8.01372 20.2733 8.7346 20.3833 9.34473C20.5078 10.0358 20.0565 10.6757 19.3823 10.8721L18.643 11.0869C18.2471 11.2022 18.0005 11.5876 18.0005 12C18.0005 12.4123 18.2463 12.7975 18.6421 12.9131L19.3833 13.1289C20.0571 13.3255 20.5077 13.9644 20.3833 14.6553C20.2733 15.2654 20.0909 15.9863 19.7944 16.5C19.4979 17.0136 18.965 17.5323 18.4917 17.9326C17.9555 18.386 17.1756 18.3156 16.6684 17.8301L16.1128 17.2979C15.8148 17.0124 15.3587 16.9888 15.0014 17.1953C14.6445 17.4017 14.4325 17.8105 14.5307 18.2109L14.7143 18.958C14.8813 19.6401 14.5528 20.3512 13.8921 20.5889C13.3087 20.7987 12.5926 21 11.9995 21C11.4065 20.9999 10.6911 20.7986 10.1079 20.5889C9.4471 20.3512 9.11864 19.6401 9.28562 18.958L9.46824 18.21C9.56604 17.8097 9.3543 17.4015 8.99754 17.1953C8.64021 16.989 8.18412 17.0124 7.88621 17.2979L7.33152 17.8301C6.82436 18.3157 6.04449 18.3859 5.50828 17.9326C5.03495 17.5323 4.50211 17.0136 4.20555 16.5C3.90903 15.9863 3.7257 15.2654 3.6157 14.6553C3.49135 13.9644 3.94281 13.3254 4.61668 13.1289L5.35594 12.9131C5.7518 12.7976 6.00041 12.4124 6.00047 12C6.00048 11.5876 5.75186 11.2022 5.35594 11.0869L4.61668 10.8721C3.94264 10.6756 3.49219 10.0357 3.61668 9.34473C3.72668 8.73456 3.90897 8.01373 4.20555 7.5C4.50212 6.98632 5.03487 6.46774 5.50828 6.06738C6.04452 5.61392 6.82432 5.68518 7.33152 6.1709L7.88621 6.70215C8.18437 6.98742 8.64039 7.01053 8.99754 6.80371C9.35438 6.59702 9.56625 6.18865 9.46824 5.78809L9.28562 5.04199C9.1187 4.35995 9.44713 3.64975 10.1079 3.41211C10.6912 3.20234 11.4064 3.00008 11.9995 3ZM12.0005 9C10.3436 9 9.00047 10.3431 9.00047 12C9.00047 13.6569 10.3436 15 12.0005 15C13.6571 14.9997 15.0005 13.6567 15.0005 12C15.0005 10.3433 13.6571 9.00026 12.0005 9Z" fill="black"/>
</svg>
