<svg width="24" height="25" viewBox="0 0 24 25" fill="none" xmlns="http://www.w3.org/2000/svg">
<path fill-rule="evenodd" clip-rule="evenodd" d="M12 3.85718C16.0969 3.85718 19.7273 6.6028 20.4102 10.6423C20.7427 12.6102 21 14.6987 21 16.449C21 16.5912 20.9991 16.7322 20.9971 16.8718C20.9564 19.6723 20.9359 21.0727 19.667 21.5554C18.3977 22.038 17.3622 20.9073 15.292 18.6453L15.0312 18.3601C13.914 20.3864 13.3549 21.3994 12.5674 21.6326C12.1973 21.742 11.8027 21.742 11.4326 21.6326C10.6451 21.3994 10.086 20.3864 8.96875 18.3601L8.70801 18.6453C6.63777 20.9073 5.60232 22.038 4.33301 21.5554C3.0641 21.0727 3.04356 19.6723 3.00293 16.8718C3.0009 16.7322 3 16.5912 3 16.449C3 14.6987 3.25728 12.6102 3.58984 10.6423C4.27271 6.6028 7.90311 3.85718 12 3.85718ZM8.5 9.85718C7.11937 9.85718 6.00013 11.0499 6 12.5212C6 13.9927 7.11929 12.8533 8.5 12.8533C9.88071 12.8533 11 13.9927 11 12.5212C10.9999 11.0499 9.88063 9.85718 8.5 9.85718ZM15.5 9.85718C14.1194 9.85718 13.0001 11.0499 13 12.5212C13 13.9927 14.1193 12.8533 15.5 12.8533C16.8807 12.8533 18 13.9927 18 12.5212C17.9999 11.0499 16.8806 9.85718 15.5 9.85718Z" fill="black"/>
</svg>
