<svg width="24" height="24" viewBox="0 0 24 24" fill="none" xmlns="http://www.w3.org/2000/svg">
<path fill-rule="evenodd" clip-rule="evenodd" d="M12 3C16.0969 3 19.7273 5.74562 20.4102 9.78516C20.7427 11.753 21 13.8415 21 15.5918C21 15.734 20.9991 15.875 20.9971 16.0146C20.9564 18.8151 20.9359 20.2155 19.667 20.6982C18.3977 21.1808 17.3622 20.0501 15.292 17.7881L15.0312 17.5029C13.914 19.5292 13.3549 20.5422 12.5674 20.7754C12.1973 20.8848 11.8027 20.8848 11.4326 20.7754C10.6451 20.5422 10.086 19.5292 8.96875 17.5029L8.70801 17.7881C6.63777 20.0501 5.60232 21.1808 4.33301 20.6982C3.0641 20.2155 3.04356 18.8151 3.00293 16.0146C3.0009 15.875 3 15.734 3 15.5918C3 13.8415 3.25728 11.753 3.58984 9.78516C4.27271 5.74562 7.90311 3 12 3ZM8.5 9C7.11937 9 6.00013 10.1927 6 11.6641C6 13.1355 7.11929 11.9961 8.5 11.9961C9.88071 11.9961 11 13.1355 11 11.6641C10.9999 10.1927 9.88063 9 8.5 9ZM15.5 9C14.1194 9 13.0001 10.1927 13 11.6641C13 13.1355 14.1193 11.9961 15.5 11.9961C16.8807 11.9961 18 13.1355 18 11.6641C17.9999 10.1927 16.8806 9 15.5 9Z" fill="black"/>
</svg>
