<svg width="24" height="24" viewBox="0 0 24 24" fill="none" xmlns="http://www.w3.org/2000/svg">
<path fill-rule="evenodd" clip-rule="evenodd" d="M12 2C17.5228 2 22 6.47715 22 12C22 17.5228 17.5228 22 12 22C6.47715 22 2 17.5228 2 12C2 6.47715 6.47715 2 12 2ZM4.73926 9C4.6407 9 4.55559 9.06709 4.52056 9.15921C4.18489 10.0421 4 10.9994 4 12C4 16.4183 7.58172 20 12 20C12.5088 20 13 19.6719 13 19.1631C12.9998 18.149 12.1772 17.3271 11.1631 17.3271H8.82617C8.24987 17.3271 7.78223 16.8595 7.78223 16.2832C7.78238 15.707 8.24997 15.2402 8.82617 15.2402H8.86914C9.46936 15.2402 9.9559 14.7535 9.95605 14.1533V13.6436C9.95605 12.7619 9.24192 12.0471 8.36035 12.0469H8.00195C7.16056 12.0469 6.47852 11.3648 6.47852 10.5234C6.47849 9.68216 5.79632 9.00016 4.95508 9H4.73926ZM12.5176 7.22559C12.1868 7.54639 12 7.98745 12 8.44824C12 9.38888 12.7625 10.1513 13.7031 10.1514H15.5762C16.9149 10.1516 18 11.2374 18 12.5762V13.5C18 13.7937 18.0844 14.0672 18.2303 14.2981C18.687 15.021 19.6577 14.4662 19.8323 13.629C19.942 13.1032 20 12.5584 20 12C20 9.1841 18.5448 6.7087 16.3457 5.28326C15.667 4.84332 14.7905 5.02052 14.2099 5.58373L12.5176 7.22559Z" fill="black"/>
</svg>
