<svg width="24" height="24" viewBox="0 0 24 24" fill="none" xmlns="http://www.w3.org/2000/svg">
<path d="M12 2C17.0827 2 21.2776 5.79198 21.9141 10.7012C21.9619 11.07 21.5344 11.3126 21.1846 11.1865C20.854 11.0674 20.4977 10.9999 20.127 11L20.126 11.001C20.0205 11.001 19.9275 10.9246 19.9121 10.8203C19.5692 8.50077 18.2314 6.50576 16.3457 5.2832C15.667 4.8432 14.7905 5.02078 14.21 5.58398L12.5176 7.22559C12.1868 7.54639 12 7.98745 12 8.44824C12 9.38888 12.7625 10.1513 13.7031 10.1514H15.5762C16.6474 10.1515 17.5529 10.8477 17.873 11.8115C17.9017 11.8979 17.8761 11.9918 17.8164 12.0605C17.7945 12.0857 17.7714 12.1119 17.748 12.1387C17.7253 12.1648 17.7015 12.1924 17.6777 12.2197C17.415 12.5219 16.9454 12.5219 16.6826 12.2197C16.6588 12.1924 16.6351 12.1648 16.6123 12.1387L16.5439 12.0605C15.9812 11.4131 15.1562 11.0013 14.2344 11.001H14.2324C13.3404 11.001 12.5322 11.3859 11.959 11.959C11.3881 12.5304 11 13.3377 11 14.2314C10.9996 15.0981 11.364 15.8779 11.9434 16.4355L12.0615 16.5439C12.0865 16.5657 12.1122 16.5883 12.1387 16.6113C12.1648 16.6341 12.1923 16.6578 12.2197 16.6816C12.2991 16.7506 12.3785 16.8196 12.458 16.8887C12.6347 17.0422 12.6349 17.3165 12.458 17.4697C12.3233 17.5863 12.1278 17.5921 11.9678 17.5137C11.7248 17.3946 11.4519 17.3271 11.1631 17.3271H8.82617C8.24987 17.3271 7.78223 16.8595 7.78223 16.2832C7.78238 15.707 8.24997 15.2402 8.82617 15.2402H8.86914C9.46936 15.2402 9.9559 14.7535 9.95605 14.1533V13.6436C9.95605 12.7619 9.24192 12.0471 8.36035 12.0469H8.00195C7.16056 12.0469 6.47852 11.3648 6.47852 10.5234C6.47849 9.68216 5.79632 9.00016 4.95508 9H4.73926C4.64071 9 4.55553 9.06706 4.52051 9.15918C4.18484 10.0421 4 10.9994 4 12C4 16.0164 6.95999 19.3395 10.8174 19.9111C10.9228 19.9267 11 20.0194 11 20.126C10.9996 20.9373 10.4291 21.908 9.64062 21.7178C5.25662 20.6576 2 16.7099 2 12C2 6.47715 6.47715 2 12 2Z" fill="black"/>
<path d="M20.127 13C20.4383 12.9997 20.7514 13.1371 20.9873 13.373C21.223 13.6089 21.3606 13.9213 21.3604 14.2324C21.3605 14.544 21.223 14.8295 20.9873 15.0342C20.9344 15.0802 20.881 15.1268 20.8281 15.1729C20.0586 15.842 19.2883 16.5107 18.5186 17.1797C19.2883 17.8487 20.0586 18.5174 20.8281 19.1865C20.8811 19.2326 20.9343 19.2791 20.9873 19.3252C21.2231 19.5299 21.3606 19.8152 21.3604 20.127C21.3605 20.438 21.2229 20.7506 20.9873 20.9863C20.7514 21.2221 20.4382 21.3596 20.127 21.3594C19.8154 21.3595 19.5298 21.222 19.3252 20.9863C19.2792 20.9334 19.2325 20.8801 19.1865 20.8271C18.5177 20.058 17.8485 19.2888 17.1797 18.5195C16.511 19.2886 15.8425 20.0581 15.1738 20.8271C15.1278 20.8801 15.0812 20.9334 15.0352 20.9863C14.8305 21.222 14.545 21.3595 14.2334 21.3594C13.9222 21.3596 13.6089 21.2221 13.373 20.9863C13.1374 20.7506 12.9999 20.438 13 20.127C12.9997 19.8152 13.1373 19.5299 13.373 19.3252C13.426 19.2791 13.4792 19.2326 13.5322 19.1865C14.3016 18.5176 15.0713 17.8486 15.8408 17.1797C15.0713 16.5108 14.3016 15.8418 13.5322 15.1729C13.4793 15.1268 13.426 15.0802 13.373 15.0342C13.1373 14.8295 12.9999 14.544 13 14.2324C12.9998 13.9213 13.1374 13.6089 13.373 13.373C13.609 13.1371 13.922 12.9997 14.2334 13C14.5451 12.9999 14.8305 13.1372 15.0352 13.373C15.0811 13.4259 15.1279 13.4794 15.1738 13.5322C15.8424 14.3011 16.5112 15.07 17.1797 15.8389C17.8484 15.0698 18.5178 14.3012 19.1865 13.5322C19.2325 13.4794 19.2793 13.4259 19.3252 13.373C19.5298 13.1372 19.8153 12.9999 20.127 13Z" fill="black"/>
</svg>
