<svg width="24" height="25" viewBox="0 0 24 25" fill="none" xmlns="http://www.w3.org/2000/svg">
<path d="M16.4874 12.4616C16.615 12.8784 16.8272 13.9191 16.8272 16.2653C16.8271 17.8289 15.4321 18.0068 13.9346 18.82C12.8846 19.3903 12.3592 19.6755 10.3272 19.6755C8.29518 19.6755 7.76985 19.3903 6.71978 18.82C5.22225 18.0068 3.82729 17.8289 3.8272 16.2653C3.82721 13.9196 4.03839 12.8786 4.16607 12.4616C6.50512 13.872 7.86181 14.602 9.32427 14.7868C9.99 14.8709 10.6644 14.8709 11.3301 14.7868C12.7924 14.602 14.1488 13.8717 16.4874 12.4616Z" fill="black"/>
<path d="M8.36919 3.69699C9.75334 3.32912 11.2112 3.33958 12.5899 3.72726C13.5655 4.00164 14.4978 4.54237 16.3614 5.62472L16.6182 5.77414C18.0683 6.61636 18.7938 7.03788 19.3545 7.60422C19.9637 8.21953 20.4324 8.95953 20.7286 9.77316C21.0012 10.5221 21.0725 11.3578 21.2149 13.029L21.712 18.8591C21.7739 19.5887 21.1982 20.2155 20.4659 20.2155C19.7753 20.2155 19.2149 19.6552 19.2149 18.9646V13.4626C19.2149 12.5952 19.2155 12.1613 19.1231 11.8679C18.8168 10.8959 17.8281 10.3095 16.8282 10.5066C16.5264 10.5661 16.1459 10.7745 15.3848 11.1902C14.3007 11.7822 13.7581 12.0776 13.211 12.28C11.4513 12.9309 9.51847 12.9427 7.75103 12.3132C7.2016 12.1175 6.65552 11.8285 5.5645 11.2497L4.63384 10.7556C3.27311 10.0337 2.59261 9.67239 2.30864 9.22238C1.90654 8.58503 1.89655 7.77545 2.28325 7.12863C2.55632 6.67193 3.2284 6.29511 4.57134 5.54074C6.45004 4.48542 7.38984 3.95735 8.36919 3.69699Z" fill="black"/>
</svg>
