<svg width="24" height="24" viewBox="0 0 24 24" fill="none" xmlns="http://www.w3.org/2000/svg">
<path d="M16.4874 12.033C16.615 12.4498 16.8272 13.4905 16.8272 15.8368C16.8271 17.4003 15.4321 17.5782 13.9346 18.3914C12.8846 18.9617 12.3592 19.2469 10.3272 19.2469C8.29518 19.2469 7.76985 18.9617 6.71978 18.3914C5.22225 17.5782 3.82729 17.4003 3.8272 15.8368C3.82721 13.491 4.03839 12.45 4.16607 12.033C6.50512 13.4434 7.86181 14.1734 9.32427 14.3582C9.99 14.4423 10.6644 14.4423 11.3301 14.3582C12.7924 14.1734 14.1488 13.4431 16.4874 12.033Z" fill="black"/>
<path d="M8.36919 3.2684C9.75334 2.90053 11.2112 2.91099 12.5899 3.29867C13.5655 3.57305 14.4978 4.11378 16.3614 5.19614L16.6182 5.34555C18.0683 6.18777 18.7938 6.60929 19.3545 7.17563C19.9637 7.79094 20.4324 8.53094 20.7286 9.34457C21.0012 10.0936 21.0725 10.9292 21.2149 12.6004L21.712 18.4305C21.7739 19.1602 21.1982 19.7869 20.4659 19.787C19.7753 19.787 19.2149 19.2266 19.2149 18.536V13.034C19.2149 12.1666 19.2155 11.7327 19.1231 11.4393C18.8168 10.4673 17.8281 9.88087 16.8282 10.078C16.5264 10.1375 16.1459 10.3459 15.3848 10.7616C14.3007 11.3536 13.7581 11.649 13.211 11.8514C11.4513 12.5023 9.51847 12.5142 7.75103 11.8846C7.2016 11.6889 6.65552 11.3999 5.5645 10.8211L4.63384 10.327C3.27311 9.6051 2.59261 9.2438 2.30864 8.79379C1.90654 8.15644 1.89655 7.34686 2.28325 6.70004C2.55632 6.24335 3.2284 5.86652 4.57134 5.11215C6.45004 4.05683 7.38984 3.52877 8.36919 3.2684Z" fill="black"/>
</svg>
