<svg width="24" height="24" viewBox="0 0 24 24" fill="none" xmlns="http://www.w3.org/2000/svg">
<path d="M7 13C7.55169 13 8.03569 13.0226 8.4541 13.0576C9.81753 13.172 10.828 14.1825 10.9424 15.5459C10.9774 15.9643 11 16.4483 11 17C11 17.5517 10.9774 18.0357 10.9424 18.4541C10.828 19.8175 9.81753 20.828 8.4541 20.9424C8.03569 20.9774 7.55169 21 7 21C6.44831 21 5.96431 20.9774 5.5459 20.9424C4.18247 20.828 3.17195 19.8175 3.05762 18.4541C3.02256 18.0357 3 17.5517 3 17C3 16.4483 3.02256 15.9643 3.05762 15.5459C3.17195 14.1825 4.18247 13.172 5.5459 13.0576C5.96431 13.0226 6.44831 13 7 13Z" fill="black"/>
<path d="M17 13C17.5517 13 18.0357 13.0226 18.4541 13.0576C19.8175 13.172 20.828 14.1825 20.9424 15.5459C20.9774 15.9643 21 16.4483 21 17C21 17.5517 20.9774 18.0357 20.9424 18.4541C20.828 19.8175 19.8175 20.828 18.4541 20.9424C18.0357 20.9774 17.5517 21 17 21C16.4483 21 15.9643 20.9774 15.5459 20.9424C14.1825 20.828 13.172 19.8175 13.0576 18.4541C13.0226 18.0357 13 17.5517 13 17C13 16.4483 13.0226 15.9643 13.0576 15.5459C13.172 14.1825 14.1825 13.172 15.5459 13.0576C15.9643 13.0226 16.4483 13 17 13Z" fill="black"/>
<path d="M7 3C7.55169 3 8.03569 3.02256 8.4541 3.05762C9.81753 3.17195 10.828 4.18247 10.9424 5.5459C10.9774 5.96431 11 6.44831 11 7C11 7.55169 10.9774 8.03569 10.9424 8.4541C10.828 9.81753 9.81753 10.828 8.4541 10.9424C8.03569 10.9774 7.55169 11 7 11C6.44831 11 5.96431 10.9774 5.5459 10.9424C4.18247 10.828 3.17195 9.81753 3.05762 8.4541C3.02256 8.03569 3 7.55169 3 7C3 6.44831 3.02256 5.96431 3.05762 5.5459C3.17195 4.18247 4.18247 3.17195 5.5459 3.05762C5.96431 3.02256 6.44831 3 7 3Z" fill="black"/>
<path d="M17 3C17.5517 3 18.0357 3.02256 18.4541 3.05762C19.8175 3.17195 20.828 4.18247 20.9424 5.5459C20.9774 5.96431 21 6.44831 21 7C21 7.55169 20.9774 8.03569 20.9424 8.4541C20.828 9.81753 19.8175 10.828 18.4541 10.9424C18.0357 10.9774 17.5517 11 17 11C16.4483 11 15.9643 10.9774 15.5459 10.9424C14.1825 10.828 13.172 9.81753 13.0576 8.4541C13.0226 8.03569 13 7.55169 13 7C13 6.44831 13.0226 5.96431 13.0576 5.5459C13.172 4.18247 14.1825 3.17195 15.5459 3.05762C15.9643 3.02256 16.4483 3 17 3Z" fill="black"/>
</svg>
