<svg width="24" height="24" viewBox="0 0 24 24" fill="none" xmlns="http://www.w3.org/2000/svg">
<path d="M16.4824 17.8423C16.8406 17.5672 17.3545 17.6345 17.6298 17.9925C17.9051 18.3508 17.8377 18.8645 17.4796 19.1399C16.8605 19.6156 16.1774 20.0132 15.4453 20.3168C15.0279 20.4899 14.5493 20.2916 14.3762 19.8742C14.2032 19.4568 14.4015 18.9782 14.8189 18.8051C15.417 18.5571 15.9756 18.2318 16.4824 17.8423ZM18.8051 14.8181C18.9783 14.4009 19.4569 14.2033 19.8742 14.3762C20.2916 14.5493 20.4899 15.0279 20.3169 15.4453C20.0133 16.1774 19.6156 16.8605 19.1399 17.4796C18.8645 17.8377 18.3508 17.9051 17.9925 17.6298C17.6345 17.3545 17.5672 16.8406 17.8423 16.4824C18.2319 15.9755 18.5571 15.4163 18.8051 14.8181ZM19.3636 12C19.3636 11.6351 19.3372 11.2768 19.2861 10.9269L19.227 10.5802C19.1404 10.1367 19.4299 9.70712 19.8734 9.62054C20.2892 9.53941 20.6929 9.78848 20.813 10.1854L20.833 10.2669C20.9426 10.8284 21 11.4079 21 12C21 12.3977 20.9743 12.7898 20.9241 13.1745C20.8656 13.6226 20.4549 13.9385 20.0068 13.88C19.5588 13.8216 19.2429 13.4109 19.3013 12.9628C19.3424 12.648 19.3636 12.3267 19.3636 12Z" fill="black"/>
<path fill-rule="evenodd" clip-rule="evenodd" d="M12 5.45452C8.38502 5.45452 5.45455 8.38502 5.45455 12C5.45469 15.6148 8.38516 18.5455 12 18.5455C15.6148 18.5455 18.5453 15.6148 18.5455 12C18.5455 10.8078 18.2267 9.69 17.6698 8.72724H16.5C15.8222 8.72724 15.2727 8.17777 15.2727 7.49997C15.2727 7.13718 15.4301 6.81116 15.6804 6.58647C14.6317 5.87211 13.3646 5.45452 12 5.45452ZM12.7273 8.36361C12.7273 7.96195 12.4017 7.63633 12 7.63633C11.5983 7.63633 11.2727 7.96195 11.2727 8.36361V11.2215C11.2729 11.9509 11.6375 12.6323 12.2443 13.0369L13.7784 14.0596C14.1125 14.2823 14.5641 14.1919 14.7869 13.8579C15.0097 13.5238 14.9193 13.0722 14.5852 12.8494L13.0511 11.8267C12.8489 11.6919 12.7274 11.4646 12.7273 11.2215V8.36361Z" fill="black"/>
<path fill-rule="evenodd" clip-rule="evenodd" d="M12 5.45452C8.38502 5.45452 5.45455 8.38502 5.45455 12C5.45469 15.6148 8.38516 18.5455 12 18.5455C15.6148 18.5455 18.5453 15.6148 18.5455 12C18.5455 10.8078 18.2267 9.69 17.6698 8.72724H16.5C15.8222 8.72724 15.2727 8.17777 15.2727 7.49997C15.2727 7.13718 15.4301 6.81116 15.6804 6.58647C14.6317 5.87211 13.3646 5.45452 12 5.45452ZM12.7273 8.36361C12.7273 7.96195 12.4017 7.63633 12 7.63633C11.5983 7.63633 11.2727 7.96195 11.2727 8.36361V11.2215C11.2729 11.9509 11.6375 12.6323 12.2443 13.0369L13.7784 14.0596C14.1125 14.2823 14.5641 14.1919 14.7869 13.8579C15.0097 13.5238 14.9193 13.0722 14.5852 12.8494L13.0511 11.8267C12.8489 11.6919 12.7274 11.4646 12.7273 11.2215V8.36361Z" fill="black" fill-opacity="0.2"/>
<path d="M13.8801 20.0068C13.8216 19.5588 13.4109 19.2429 12.9628 19.3013C12.6481 19.3424 12.3267 19.3636 12 19.3636C7.93318 19.3636 4.63636 16.0668 4.63636 12C4.63636 7.93318 7.93318 4.63637 12 4.63637C13.7531 4.63637 15.3613 5.24931 16.6259 6.27269C16.7864 6.4026 16.9414 6.53911 17.0905 6.68182H16.5C16.3216 6.68182 16.1566 6.7389 16.0222 6.83578C15.816 6.98433 15.6818 7.2265 15.6818 7.50001C15.6818 7.95186 16.0481 8.31819 16.5 8.31819H17.4126H17.7273H18.9545C19.4064 8.31819 19.7727 7.95186 19.7727 7.50001V5.04546C19.7727 4.59359 19.4064 4.22727 18.9545 4.22727C18.5027 4.22727 18.1364 4.59359 18.1364 5.04546V5.417C16.5294 3.91853 14.3714 3 12 3C7.02944 3 3 7.02944 3 12C3 16.9706 7.02944 21 12 21C12.3977 21 12.7898 20.9743 13.1745 20.9241C13.6226 20.8656 13.9385 20.4549 13.8801 20.0068Z" fill="black"/>
<path d="M13.8801 20.0068C13.8216 19.5588 13.4109 19.2429 12.9628 19.3013C12.6481 19.3424 12.3267 19.3636 12 19.3636C7.93318 19.3636 4.63636 16.0668 4.63636 12C4.63636 7.93318 7.93318 4.63637 12 4.63637C13.7531 4.63637 15.3613 5.24931 16.6259 6.27269C16.7864 6.4026 16.9414 6.53911 17.0905 6.68182H16.5C16.3216 6.68182 16.1566 6.7389 16.0222 6.83578C15.816 6.98433 15.6818 7.2265 15.6818 7.50001C15.6818 7.95186 16.0481 8.31819 16.5 8.31819H17.4126H17.7273H18.9545C19.4064 8.31819 19.7727 7.95186 19.7727 7.50001V5.04546C19.7727 4.59359 19.4064 4.22727 18.9545 4.22727C18.5027 4.22727 18.1364 4.59359 18.1364 5.04546V5.417C16.5294 3.91853 14.3714 3 12 3C7.02944 3 3 7.02944 3 12C3 16.9706 7.02944 21 12 21C12.3977 21 12.7898 20.9743 13.1745 20.9241C13.6226 20.8656 13.9385 20.4549 13.8801 20.0068Z" fill="black" fill-opacity="0.2"/>
</svg>