<svg width="24" height="24" viewBox="0 0 24 24" fill="#000">
<path d="M9.41489 10.4288C10.0007 9.84317 10.9503 9.84305 11.536 10.4288C12.1213 11.0145 12.1214 11.9642 11.536 12.5499C11.4574 12.6285 11.3826 12.7053 11.3123 12.7803C10.7511 13.3802 10.7059 14.382 11.5516 15.3262C11.9051 15.7208 12.3279 16.1699 12.828 16.67C13.1447 16.9867 13.4407 17.2728 13.7157 17.5294C14.9194 18.6526 16.2835 18.6265 16.9481 17.962C17.5537 17.3563 17.8146 16.911 17.9227 16.6329C18.023 16.3745 17.9984 16.2477 17.9901 16.212C17.9778 16.1598 17.9503 16.1146 17.9178 16.0772C17.9104 16.0687 17.9034 16.0617 17.8983 16.0567C17.8943 16.0528 17.8914 16.0489 17.8914 16.0489C17.8914 16.0489 17.896 16.0534 17.9032 16.0587C17.9074 16.0618 17.913 16.0656 17.9198 16.0704C17.9233 16.0728 17.9281 16.0762 17.9325 16.0792C17.9344 16.0805 17.9362 16.0826 17.9383 16.084L17.9432 16.086C17.2542 15.6295 17.0637 14.7014 17.5184 14.0108C17.9741 13.3192 18.9048 13.1276 19.5965 13.5831L19.0155 14.4649C19.5693 13.6248 19.5964 13.5854 19.5985 13.584L19.6004 13.586L19.6053 13.5889C19.6081 13.5908 19.6111 13.5927 19.6141 13.5948C19.6204 13.599 19.6273 13.6043 19.6346 13.6094C19.6493 13.6197 19.6667 13.6318 19.6854 13.6456C19.7227 13.6731 19.7684 13.7085 19.8192 13.751C19.9203 13.8359 20.0479 13.954 20.1815 14.1075C20.4476 14.4133 20.7595 14.8856 20.91 15.5264C21.2358 16.915 20.6871 18.4659 19.0702 20.0831C16.796 22.3572 13.5047 21.4347 11.6698 19.7227C11.3692 19.4422 11.0478 19.132 10.7069 18.7911C10.1685 18.2527 9.70718 17.7637 9.31625 17.3272C7.74458 15.5723 7.20769 12.7765 9.12192 10.7305C9.21492 10.6311 9.31296 10.5307 9.41489 10.4288Z" />
<path d="M5.98129 4.11236C8.25547 1.83832 11.5468 2.76169 13.3817 4.47369C13.6822 4.75411 14.0038 5.06359 14.3446 5.40435C14.8829 5.94267 15.3433 6.43278 15.7342 6.8692C17.3058 8.62396 17.8434 11.4189 15.9295 13.4649C15.8365 13.5644 15.7386 13.6656 15.6366 13.7676C15.0508 14.3532 14.1012 14.3534 13.5155 13.7676C12.93 13.1819 12.93 12.2322 13.5155 11.6465C13.5941 11.5679 13.6689 11.4911 13.7391 11.4161C14.3004 10.8162 14.3456 9.8144 13.4998 8.87018C13.1464 8.47557 12.7235 8.02648 12.2235 7.52643C11.9067 7.20969 11.6098 6.92368 11.3348 6.66705C10.1311 5.54404 8.7679 5.57001 8.10336 6.23443C7.49775 6.84008 7.23684 7.28536 7.12875 7.56353C7.02887 7.82069 7.05291 7.9471 7.06137 7.98346C7.07365 8.0358 7.10104 8.08172 7.13364 8.1192C7.14102 8.12767 7.14806 8.13475 7.15317 8.13971C7.15732 8.14373 7.16 8.14752 7.16 8.14752C7.16 8.14752 7.15566 8.1432 7.14828 8.13775C7.14401 8.1346 7.13865 8.12991 7.13168 8.12506C7.12816 8.1226 7.12329 8.12015 7.11899 8.11725C7.11705 8.11594 7.11521 8.11381 7.11313 8.11236L7.10825 8.11041C7.79717 8.56694 7.98687 9.495 7.53207 10.1856C7.07619 10.877 6.14655 11.068 5.45493 10.6124L6.035 9.73053C5.48315 10.5677 5.45521 10.6107 5.45297 10.6124L5.45102 10.6104L5.44614 10.6075C5.44331 10.6056 5.44045 10.6027 5.43735 10.6006C5.43114 10.5964 5.42408 10.592 5.41684 10.587C5.40213 10.5767 5.38475 10.5646 5.36606 10.5508C5.32871 10.5233 5.28308 10.488 5.23227 10.4454C5.13113 10.3605 5.00355 10.2424 4.86996 10.0889C4.60391 9.7831 4.29193 9.3108 4.14145 8.66998C3.81558 7.28129 4.36399 5.72972 5.98129 4.11236Z" />
</svg>
