<svg width="24" height="24" viewBox="0 0 24 24" fill="none" xmlns="http://www.w3.org/2000/svg">
<path d="M12 3C13.483 3.00001 14.7481 3.07251 15.8047 3.17871C18.5276 3.45246 20.5473 5.47153 20.8213 8.19434C20.9275 9.25103 21 10.5167 21 12C21 13.483 20.9275 14.7481 20.8213 15.8047C20.5475 18.5277 18.5277 20.5475 15.8047 20.8213C14.7481 20.9275 13.483 21 12 21C10.5168 21 9.251 20.9275 8.19434 20.8213C5.47156 20.5473 3.45246 18.5276 3.17871 15.8047C3.0725 14.7481 3 13.483 3 12C3 10.5167 3.07248 9.25103 3.17871 8.19434C3.45264 5.4717 5.47172 3.45267 8.19434 3.17871C9.251 3.07248 10.5168 3.00001 12 3ZM11.5 15C10.1892 15 9.21877 15.0253 8.5625 15.0518C7.86067 15.0801 7 15.2977 7 16C7 16.7023 7.86067 16.9199 8.5625 16.9482C9.21877 16.9747 10.1892 17 11.5 17C12.8108 17 13.7812 16.9747 14.4375 16.9482C15.1393 16.9199 16 16.7023 16 16C16 15.2977 15.1393 15.0801 14.4375 15.0518C13.7812 15.0253 12.8108 15 11.5 15ZM10.5 11C9.59007 11 8.89128 11.0199 8.38867 11.043C7.73172 11.0732 7 11.3424 7 12C7 12.6576 7.73172 12.9268 8.38867 12.957C8.89128 12.9801 9.59007 13 10.5 13C11.4099 13 12.1087 12.9801 12.6113 12.957C13.2683 12.9268 14 12.6576 14 12C14 11.3424 13.2683 11.0732 12.6113 11.043C12.1087 11.0199 11.4099 11 10.5 11ZM12 7C10.4872 7 9.38276 7.02718 8.65332 7.05469C7.92733 7.08208 7 7.27351 7 8C7 8.72649 7.92733 8.91792 8.65332 8.94531C9.38276 8.97282 10.4872 9 12 9C13.5128 9 14.6172 8.97282 15.3467 8.94531C16.0727 8.91792 17 8.72649 17 8C17 7.27351 16.0727 7.08208 15.3467 7.05469C14.6172 7.02718 13.5128 7 12 7Z" fill="black"/>
</svg>
