<svg width="24" height="25" viewBox="0 0 24 25" fill="none" xmlns="http://www.w3.org/2000/svg">
<path fill-rule="evenodd" clip-rule="evenodd" d="M12.3242 3.86597C15.6401 4.03712 17.8282 6.8295 17.96 10.2146C17.9802 10.7348 17.9905 11.2945 17.9951 11.8943C18.6507 11.9382 19.1124 12.0357 19.5 12.2595C19.9559 12.5228 20.3344 12.9013 20.5977 13.3572C20.9996 14.0533 21 14.9879 21 16.8572C21 18.7264 20.9996 19.661 20.5977 20.3572C20.3344 20.8131 19.9559 21.1916 19.5 21.4548C18.8038 21.8568 17.8692 21.8572 16 21.8572H8C6.13077 21.8572 5.19615 21.8568 4.5 21.4548C4.04408 21.1916 3.66561 20.8131 3.40234 20.3572C3.00042 19.661 3 18.7264 3 16.8572C3 14.9879 3.00042 14.0533 3.40234 13.3572C3.66561 12.9013 4.04408 12.5228 4.5 12.2595C4.88741 12.0358 5.34881 11.9383 6.00391 11.8943C6.00568 11.6703 6.00663 11.4519 6.01074 11.239L6.04004 10.2146C6.17609 6.72035 8.5031 3.85718 12 3.85718L12.3242 3.86597ZM12 6.85718C10.5026 6.85718 9.12777 8.02866 9.03809 10.3308C9.01972 10.8024 9.00974 11.311 9.00488 11.8572H14.9951C14.9903 11.311 14.9803 10.8024 14.9619 10.3308C14.8722 8.02866 13.4974 6.85718 12 6.85718Z" fill="black"/>
</svg>
