<svg width="24" height="24" viewBox="0 0 24 24" fill="none" xmlns="http://www.w3.org/2000/svg">
<path d="M15.8756 3C14.6036 3 13.5941 3.14324 12.8307 3.32129C11.8191 3.55721 11.1206 4.32479 10.8209 5.28711C10.7029 5.66615 10.922 6.04257 11.2028 6.32324L14.9752 10.0957C15.9515 11.072 15.9514 12.6555 14.9752 13.6318L11.2028 17.4043C11.0946 17.5124 10.9788 17.6079 10.8571 17.6914C10.7382 17.7729 10.6637 17.9096 10.6803 18.0527C10.8265 19.3117 11.5964 20.3908 12.8307 20.6787C13.5941 20.8568 14.6036 21 15.8756 21C17.1477 21 18.1571 20.8568 18.9205 20.6787C20.1548 20.3908 20.9247 19.3117 21.0709 18.0527C21.2233 16.7401 21.3756 14.7432 21.3756 12C21.3756 9.25683 21.2233 7.25991 21.0709 5.94727C20.9247 4.68832 20.1548 3.60916 18.9205 3.32129C18.1571 3.14324 17.1477 3 15.8756 3ZM9.64319 7.38281C9.25275 6.99259 8.61863 6.99267 8.22815 7.38281C7.83769 7.77327 7.83782 8.40731 8.22815 8.79785L10.3707 10.9385C8.15256 10.8418 5.93358 10.7462 3.71545 10.6494C3.58831 10.6439 3.46076 10.6384 3.33362 10.6328C2.98014 10.6172 2.64126 10.744 2.39124 10.9941C2.14123 11.2439 2.00066 11.5966 2.00061 11.9658C2.00067 12.3348 2.1405 12.6878 2.39026 12.9375C2.64028 13.1876 2.98012 13.3145 3.33362 13.2988C3.46076 13.2933 3.58831 13.2878 3.71545 13.2822C5.86231 13.1886 8.00992 13.0946 10.1569 13.001L8.22815 14.9297C7.83803 15.3202 7.83794 15.9533 8.22815 16.3438C8.61867 16.7343 9.25266 16.7343 9.64319 16.3438L13.4156 12.5703C13.8059 12.1798 13.8061 11.5467 13.4156 11.1562L9.64319 7.38281Z" fill="black"/>
</svg>
