<svg width="24" height="24" viewBox="0 0 24 24" fill="none" xmlns="http://www.w3.org/2000/svg">
<path d="M7.5 3C8.77204 3 9.7815 3.14324 10.5449 3.32129C11.7792 3.60916 12.5491 4.68832 12.6953 5.94727C12.7404 6.33543 12.7854 6.78351 12.8262 7.29297C12.891 8.10446 12.1921 8.76206 11.3828 8.67383C11.2557 8.65998 11.128 8.64666 11.001 8.63281C10.1171 8.53511 9.26865 8.80021 8.64355 9.42676C8.0185 10.0502 7.66803 10.9842 7.66797 11.9658C7.66803 12.9475 8.0185 13.8815 8.64355 14.5049C9.26864 15.1314 10.1171 15.3965 11.001 15.2988C11.128 15.285 11.2557 15.2717 11.3828 15.2578C12.1939 15.1694 12.8945 15.8263 12.8311 16.6396C12.789 17.177 12.7423 17.6476 12.6953 18.0527C12.5491 19.3117 11.7792 20.3908 10.5449 20.6787C9.7815 20.8568 8.77204 21 7.5 21C6.22796 21 5.2185 20.8568 4.45508 20.6787C3.22079 20.3908 2.45087 19.3117 2.30469 18.0527C2.15229 16.7401 2 14.7432 2 12C2 9.25683 2.15229 7.25991 2.30469 5.94727C2.45087 4.68832 3.22079 3.60916 4.45508 3.32129C5.2185 3.14324 6.22795 3 7.5 3ZM15.8955 7.38379C16.286 6.99352 16.9191 6.99349 17.3096 7.38379L21.083 11.1572C21.473 11.5477 21.4732 12.1809 21.083 12.5713L17.3096 16.3438C16.919 16.734 16.2859 16.7342 15.8955 16.3438C15.5052 15.9533 15.5053 15.3202 15.8955 14.9297L17.8242 13.001C15.677 13.0946 13.5289 13.1886 11.3818 13.2822C11.2547 13.2878 11.1272 13.2933 11 13.2988C10.6465 13.3144 10.3066 13.1877 10.0566 12.9375C9.80697 12.6878 9.66705 12.3347 9.66699 11.9658C9.66704 11.5968 9.80779 11.2439 10.0576 10.9941C10.3076 10.7441 10.6466 10.6173 11 10.6328C11.1272 10.6384 11.2547 10.6439 11.3818 10.6494C13.5999 10.7461 15.819 10.8418 18.0371 10.9385L15.8955 8.79785C15.5052 8.40741 15.5053 7.77428 15.8955 7.38379Z" fill="black"/>
</svg>
