<svg width="24" height="24" viewBox="0 0 24 24" fill="none" xmlns="http://www.w3.org/2000/svg">
<path d="M18.8209 9.96069C19.3285 9.56573 19.5824 9.36825 19.8275 9.32533C20.2399 9.25312 20.6872 9.47184 20.8834 9.84165C21 10.0615 21 10.3743 21 11V13C21 15.8284 20.9998 17.2424 20.1211 18.1211C19.2424 18.9998 17.8284 19 15 19H9C6.17157 19 4.75759 18.9998 3.87891 18.1211C3.00023 17.2424 3 15.8284 3 13V11C3 10.3746 3 10.0619 3.1167 9.84206C3.3129 9.47239 3.76001 9.25373 4.17226 9.32582C4.41747 9.3687 4.67108 9.56597 5.1783 9.96049L8.31641 12.4014C10.4831 14.0865 13.5169 14.0865 15.6836 12.4014L18.8209 9.96069Z" fill="black"/>
<path d="M15 5C17.8284 5 19.2424 5.00023 20.1211 5.87891C20.2211 5.97894 20.3086 6.08663 20.3871 6.20186C20.3891 6.20476 20.3885 6.20878 20.3857 6.21094L14.4561 10.8232C13.0116 11.9467 10.9884 11.9467 9.54395 10.8232L3.61426 6.21094C3.61113 6.20851 3.61013 6.20447 3.61236 6.2012C3.69086 6.08606 3.77893 5.97888 3.87891 5.87891C4.75759 5.00023 6.17157 5 9 5H15Z" fill="black"/>
</svg>
