<svg width="24" height="24" viewBox="0 0 24 24" fill="none" xmlns="http://www.w3.org/2000/svg">
<path d="M16.5 11.0049C18.9853 11.0049 21 13.0196 21 15.5049C20.9998 17.99 18.9852 20.0049 16.5 20.0049C14.0148 20.0049 12.0002 17.99 12 15.5049C12 13.0196 14.0147 11.0049 16.5 11.0049ZM4.17188 9.45117C4.41709 9.49405 4.67149 9.69142 5.17871 10.0859L8.31641 12.5264C8.92229 12.9976 9.59623 13.3363 10.2998 13.5439C10.1052 14.1613 10 14.8184 10 15.5C10 16.8423 10.4073 18.0893 11.1045 19.125H9C6.17157 19.125 4.75759 19.1248 3.87891 18.2461C3.00023 17.3674 3 15.9534 3 13.125V11.125C3 10.4996 3.00049 10.1866 3.11719 9.9668C3.31345 9.59747 3.75986 9.37927 4.17188 9.45117ZM16.6943 12.4336C15.2355 12.4336 14.422 13.6072 14.4219 15.7207C14.4219 16.6303 14.5718 17.3115 14.875 17.7949C15.2354 18.3618 15.8286 18.6699 16.5713 18.6699C17.7927 18.6697 18.6191 17.848 18.6191 16.6396C18.6191 15.4928 17.8367 14.6887 16.7207 14.6885C16.0352 14.6885 15.4062 15.0664 15.2041 15.6025H15.1689C15.1821 13.959 15.7007 13.0977 16.6807 13.0977C17.0717 13.0977 17.4015 13.238 17.7178 13.5498C17.876 13.7036 17.9688 13.752 18.0918 13.752C18.2805 13.7518 18.417 13.6117 18.417 13.4229C18.417 13.2208 18.241 12.979 17.9512 12.79C17.6173 12.5616 17.1644 12.4337 16.6943 12.4336ZM16.5713 15.3428C17.3531 15.343 17.8631 15.8705 17.8633 16.6699C17.8633 17.4785 17.3574 18.0107 16.6016 18.0107C15.8238 18.0107 15.2793 17.4526 15.2793 16.666C15.2793 15.8882 15.811 15.3428 16.5713 15.3428ZM15 5.125C17.8284 5.125 19.2424 5.12523 20.1211 6.00391C20.2211 6.10394 20.3082 6.21192 20.3867 6.32715C20.3887 6.33004 20.3885 6.33378 20.3857 6.33594L16.9395 9.01562C16.7942 9.00593 16.6477 9 16.5 9C14.3247 9 12.3996 10.0691 11.2197 11.71C10.6237 11.5916 10.0482 11.3404 9.54395 10.9482L3.61426 6.33594C3.61113 6.33351 3.61008 6.32944 3.6123 6.32617C3.6908 6.21103 3.77893 6.10388 3.87891 6.00391C4.75759 5.12523 6.17158 5.125 9 5.125H15ZM19.8271 9.4502C20.2395 9.37799 20.6876 9.59699 20.8838 9.9668C20.9788 10.1461 20.9948 10.3874 20.998 10.8096C20.5207 10.3516 19.9744 9.96503 19.375 9.66895C19.5556 9.5449 19.6925 9.47385 19.8271 9.4502Z" fill="black"/>
</svg>
