<svg width="24" height="24" viewBox="0 0 24 24" fill="none" xmlns="http://www.w3.org/2000/svg">
<path d="M16.5 11.0049C18.9853 11.0049 21 13.0196 21 15.5049C20.9998 17.99 18.9852 20.0049 16.5 20.0049C14.0148 20.0049 12.0002 17.99 12 15.5049C12 13.0196 14.0147 11.0049 16.5 11.0049ZM4.17188 9.45117C4.41709 9.49405 4.67149 9.69142 5.17871 10.0859L8.31641 12.5264C8.92229 12.9976 9.59623 13.3363 10.2998 13.5439C10.1052 14.1613 10 14.8184 10 15.5C10 16.8423 10.4073 18.0893 11.1045 19.125H9C6.17157 19.125 4.75759 19.1248 3.87891 18.2461C3.00023 17.3674 3 15.9534 3 13.125V11.125C3 10.4996 3.00049 10.1866 3.11719 9.9668C3.31345 9.59747 3.75986 9.37927 4.17188 9.45117ZM16.501 12.4209C15.4113 12.4209 14.6204 13.1018 14.6201 14.0244C14.6201 14.6353 15.0068 15.167 15.5957 15.3604V15.4043C14.8708 15.58 14.383 16.1911 14.3828 16.916C14.3828 17.9531 15.2441 18.6738 16.4834 18.6738C17.7268 18.6737 18.6143 17.9398 18.6143 16.9072C18.614 16.1912 18.1223 15.5757 17.4062 15.4043V15.3604C17.9861 15.1668 18.3857 14.6263 18.3857 14.0244C18.3855 13.1019 17.5904 12.4211 16.501 12.4209ZM16.501 15.7295C17.2962 15.7297 17.8672 16.2179 17.8672 16.8857C17.8672 17.5536 17.2962 18.0321 16.501 18.0322C15.7056 18.0322 15.1338 17.5537 15.1338 16.8857C15.1338 16.2134 15.7056 15.7295 16.501 15.7295ZM16.501 13.0713C17.173 13.0715 17.6384 13.4843 17.6387 14.0771C17.6387 14.6747 17.1687 15.1014 16.501 15.1016C15.8374 15.1016 15.3623 14.6704 15.3623 14.0771C15.3626 13.4885 15.8332 13.0713 16.501 13.0713ZM15 5.125C17.8284 5.125 19.2424 5.12523 20.1211 6.00391C20.2211 6.10394 20.3082 6.21192 20.3867 6.32715C20.3887 6.33004 20.3885 6.33378 20.3857 6.33594L16.9395 9.01562C16.7942 9.00593 16.6477 9 16.5 9C14.3247 9 12.3996 10.0691 11.2197 11.71C10.6237 11.5916 10.0482 11.3404 9.54395 10.9482L3.61426 6.33594C3.61113 6.33351 3.61008 6.32944 3.6123 6.32617C3.6908 6.21103 3.77893 6.10388 3.87891 6.00391C4.75759 5.12523 6.17158 5.125 9 5.125H15ZM19.8271 9.4502C20.2395 9.37799 20.6876 9.59699 20.8838 9.9668C20.9788 10.1461 20.9948 10.3874 20.998 10.8096C20.5207 10.3516 19.9744 9.96503 19.375 9.66895C19.5556 9.5449 19.6925 9.47385 19.8271 9.4502Z" fill="black"/>
</svg>
