<svg width="24" height="24" viewBox="0 0 24 24" fill="none" xmlns="http://www.w3.org/2000/svg">
<path d="M16.5 11.0049C18.9853 11.0049 21 13.0196 21 15.5049C20.9998 17.99 18.9852 20.0049 16.5 20.0049C14.0148 20.0049 12.0002 17.99 12 15.5049C12 13.0196 14.0147 11.0049 16.5 11.0049ZM4.17188 9.45117C4.41709 9.49405 4.67149 9.69142 5.17871 10.0859L8.31641 12.5264C8.92229 12.9976 9.59623 13.3363 10.2998 13.5439C10.1052 14.1613 10 14.8184 10 15.5C10 16.8423 10.4073 18.0893 11.1045 19.125H9C6.17157 19.125 4.75759 19.1248 3.87891 18.2461C3.00023 17.3674 3 15.9534 3 13.125V11.125C3 10.4996 3.00049 10.1866 3.11719 9.9668C3.31345 9.59747 3.75986 9.37927 4.17188 9.45117ZM16.4395 12.4209C15.3586 12.4209 14.6244 13.0798 14.624 13.7607C14.624 13.9804 14.7559 14.1259 14.958 14.126C15.1294 14.126 15.2393 14.0337 15.3271 13.792C15.5029 13.3394 15.8989 13.0801 16.4219 13.0801C17.0938 13.0802 17.5466 13.4843 17.5469 14.0859C17.5469 14.6879 17.0808 15.1229 16.4395 15.123H15.9209C15.71 15.123 15.5693 15.2598 15.5693 15.4531C15.5693 15.6421 15.7188 15.7871 15.9209 15.7871H16.4697C17.2344 15.7871 17.749 16.2397 17.749 16.9121C17.749 17.5845 17.2475 18.0146 16.4609 18.0146C15.8633 18.0146 15.4062 17.7514 15.1777 17.2812C15.0636 17.0573 14.9671 16.9777 14.8135 16.9775C14.6201 16.9775 14.4834 17.1187 14.4834 17.3164C14.4834 17.9888 15.3145 18.6738 16.4482 18.6738C17.6697 18.6737 18.5225 17.953 18.5225 16.9248C18.5222 16.1693 17.9552 15.5192 17.2129 15.4355V15.3916C17.8236 15.2859 18.3203 14.6527 18.3203 13.9893C18.32 13.0755 17.5377 12.4211 16.4395 12.4209ZM15 5.125C17.8284 5.125 19.2424 5.12523 20.1211 6.00391C20.2211 6.10394 20.3082 6.21192 20.3867 6.32715C20.3887 6.33004 20.3885 6.33378 20.3857 6.33594L16.9395 9.01562C16.7942 9.00593 16.6477 9 16.5 9C14.3247 9 12.3996 10.0691 11.2197 11.71C10.6237 11.5916 10.0482 11.3404 9.54395 10.9482L3.61426 6.33594C3.61113 6.33351 3.61008 6.32944 3.6123 6.32617C3.6908 6.21103 3.77893 6.10388 3.87891 6.00391C4.75759 5.12523 6.17158 5.125 9 5.125H15ZM19.8271 9.4502C20.2395 9.37799 20.6876 9.59699 20.8838 9.9668C20.9788 10.1461 20.9948 10.3874 20.998 10.8096C20.5207 10.3516 19.9744 9.96503 19.375 9.66895C19.5556 9.5449 19.6925 9.47385 19.8271 9.4502Z" fill="black"/>
</svg>
