<svg width="24" height="24" viewBox="0 0 24 24" fill="none" xmlns="http://www.w3.org/2000/svg">
<path d="M16.5 11.0049C18.9853 11.0049 21 13.0196 21 15.5049C20.9998 17.99 18.9852 20.0049 16.5 20.0049C14.0148 20.0049 12.0002 17.99 12 15.5049C12 13.0196 14.0147 11.0049 16.5 11.0049ZM4.17188 9.45117C4.41709 9.49405 4.67149 9.69142 5.17871 10.0859L8.31641 12.5264C8.92229 12.9976 9.59623 13.3363 10.2998 13.5439C10.1052 14.1613 10 14.8184 10 15.5C10 16.8423 10.4073 18.0893 11.1045 19.125H9C6.17157 19.125 4.75759 19.1248 3.87891 18.2461C3.00023 17.3674 3 15.9534 3 13.125V11.125C3 10.4996 3.00049 10.1866 3.11719 9.9668C3.31345 9.59747 3.75986 9.37927 4.17188 9.45117ZM16.4697 12.4209C15.3096 12.4209 14.585 13.2031 14.585 13.9502C14.585 14.1875 14.7252 14.3496 14.9404 14.3496C15.1206 14.3496 15.2441 14.231 15.3057 13.998C15.4376 13.4271 15.8552 13.0889 16.4219 13.0889C17.0895 13.089 17.533 13.5018 17.5332 14.1211C17.5332 14.5342 17.3442 14.9038 16.8477 15.4707L15.0195 17.5625C14.7605 17.8566 14.6857 17.9797 14.6855 18.1377C14.6855 18.3926 14.8882 18.5469 15.209 18.5469H18.1094C18.3508 18.5467 18.4912 18.4193 18.4912 18.2129C18.4912 18.0021 18.3421 17.8742 18.1094 17.874H15.6699V17.8213L17.2959 15.9629C18.0869 15.062 18.3115 14.6445 18.3115 14.0732C18.3115 13.1064 17.5508 12.4209 16.4697 12.4209ZM15 5.125C17.8284 5.125 19.2424 5.12523 20.1211 6.00391C20.2211 6.10394 20.3082 6.21192 20.3867 6.32715C20.3887 6.33004 20.3885 6.33378 20.3857 6.33594L16.9395 9.01562C16.7942 9.00593 16.6477 9 16.5 9C14.3247 9 12.3996 10.0691 11.2197 11.71C10.6237 11.5916 10.0482 11.3404 9.54395 10.9482L3.61426 6.33594C3.61113 6.33351 3.61008 6.32944 3.6123 6.32617C3.6908 6.21103 3.77893 6.10388 3.87891 6.00391C4.75759 5.12523 6.17158 5.125 9 5.125H15ZM19.8271 9.4502C20.2395 9.37799 20.6876 9.59699 20.8838 9.9668C20.9788 10.1461 20.9948 10.3874 20.998 10.8096C20.5207 10.3516 19.9744 9.96503 19.375 9.66895C19.5556 9.5449 19.6925 9.47385 19.8271 9.4502Z" fill="black"/>
</svg>
