<svg width="24" height="24" viewBox="0 0 24 24" fill="none" xmlns="http://www.w3.org/2000/svg">
<path d="M4.17188 9.45117C4.41709 9.49405 4.67149 9.69142 5.17871 10.0859L8.31641 12.5264C8.92229 12.9976 9.59623 13.3363 10.2998 13.5439C10.1052 14.1613 10 14.8184 10 15.5C10 16.8423 10.4073 18.0893 11.1045 19.125H9C6.17157 19.125 4.75759 19.1248 3.87891 18.2461C3.00023 17.3674 3 15.9534 3 13.125V11.125C3 10.4996 3.00049 10.1866 3.11719 9.9668C3.31345 9.59747 3.75986 9.37927 4.17188 9.45117ZM15 5.125C17.8284 5.125 19.2424 5.12523 20.1211 6.00391C20.2211 6.10394 20.3082 6.21192 20.3867 6.32715C20.3887 6.33004 20.3885 6.33378 20.3857 6.33594L16.9395 9.01562C16.7942 9.00593 16.6477 9 16.5 9C14.3247 9 12.3996 10.0691 11.2197 11.71C10.6237 11.5916 10.0482 11.3404 9.54395 10.9482L3.61426 6.33594C3.61113 6.33351 3.61008 6.32944 3.6123 6.32617C3.6908 6.21103 3.77893 6.10388 3.87891 6.00391C4.75759 5.12523 6.17158 5.125 9 5.125H15ZM19.8271 9.4502C20.2395 9.37799 20.6876 9.59699 20.8838 9.9668C20.9788 10.1461 20.9948 10.3874 20.998 10.8096C20.5207 10.3516 19.9744 9.96503 19.375 9.66895C19.5556 9.5449 19.6925 9.47385 19.8271 9.4502Z" fill="black"/>
<path d="M16.5 11.0046C18.9853 11.0046 21 13.0193 21 15.5046C21 17.9899 18.9853 20.0046 16.5 20.0046C14.0147 20.0046 12 17.9899 12 15.5046C12 13.0193 14.0147 11.0046 16.5 11.0046ZM16.7725 12.5847C16.5925 12.5847 16.4871 12.6287 16.2412 12.8044L14.8828 13.7751C14.716 13.8937 14.6631 13.9861 14.6631 14.1267C14.6631 14.32 14.791 14.4519 14.9756 14.4519C15.072 14.4518 15.1555 14.4213 15.2432 14.3601L16.4297 13.529H16.4473V18.6755C16.4475 18.9169 16.6061 19.0837 16.8301 19.0837C17.054 19.0837 17.2117 18.9169 17.2119 18.6755V13.028C17.2119 12.7512 17.0449 12.5847 16.7725 12.5847Z" fill="black"/>
</svg>
