<svg width="24" height="24" viewBox="0 0 24 24" fill="none" xmlns="http://www.w3.org/2000/svg">
<path d="M16.5 11.0049C18.9853 11.0049 21 13.0196 21 15.5049C20.9998 17.99 18.9852 20.0049 16.5 20.0049C14.0148 20.0049 12.0002 17.99 12 15.5049C12 13.0196 14.0147 11.0049 16.5 11.0049ZM4.17188 9.45117C4.41709 9.49405 4.67149 9.69142 5.17871 10.0859L8.31641 12.5264C8.92229 12.9976 9.59623 13.3363 10.2998 13.5439C10.1052 14.1613 10 14.8184 10 15.5C10 16.8423 10.4073 18.0893 11.1045 19.125H9C6.17157 19.125 4.75759 19.1248 3.87891 18.2461C3.00023 17.3674 3 15.9534 3 13.125V11.125C3 10.4996 3.00049 10.1866 3.11719 9.9668C3.31345 9.59747 3.75986 9.37927 4.17188 9.45117ZM18.4492 13.1748C17.4785 13.1748 16.832 13.8076 16.832 14.7578C16.8322 15.6804 17.4406 16.3232 18.3154 16.3232C18.8724 16.3232 19.3105 16.0462 19.4814 15.585H19.5117C19.5116 16.8149 19.1188 17.5222 18.3467 17.5225C18.0323 17.5225 17.7787 17.41 17.5293 17.1641C17.403 17.0412 17.3314 17.0001 17.2393 17C17.0923 17 16.9863 17.0991 16.9863 17.2529C16.9866 17.4237 17.1296 17.6154 17.3584 17.7656C17.625 17.9399 17.9806 18.0351 18.3564 18.0352C19.4979 18.0352 20.0897 17.1877 20.0898 15.5576C20.0898 14.0095 19.5188 13.175 18.4492 13.1748ZM14.5557 14.293C14.419 14.293 14.3164 14.3985 14.3164 14.5352V15.8477H13.0518C12.9151 15.8477 12.8096 15.9571 12.8096 16.0938C12.8096 16.227 12.9151 16.333 13.0518 16.333H14.3164V17.7275C14.3164 17.8642 14.419 17.9707 14.5557 17.9707C14.689 17.9707 14.7988 17.8643 14.7988 17.7275V16.333H16.0703C16.2103 16.3328 16.3164 16.2269 16.3164 16.0938C16.3164 15.9572 16.2103 15.8479 16.0703 15.8477H14.7988V14.5352C14.7988 14.3984 14.689 14.293 14.5557 14.293ZM18.415 13.6943C19.0061 13.6945 19.4092 14.1325 19.4092 14.7715C19.409 15.3931 19.0128 15.8065 18.415 15.8066C17.8203 15.8066 17.4238 15.3896 17.4238 14.7676C17.4238 14.1318 17.8271 13.6943 18.415 13.6943ZM15 5.125C17.8284 5.125 19.2424 5.12523 20.1211 6.00391C20.2211 6.10394 20.3082 6.21192 20.3867 6.32715C20.3887 6.33004 20.3885 6.33378 20.3857 6.33594L16.9395 9.01562C16.7942 9.00593 16.6477 9 16.5 9C14.3247 9 12.3996 10.0691 11.2197 11.71C10.6237 11.5916 10.0482 11.3404 9.54395 10.9482L3.61426 6.33594C3.61113 6.33351 3.61008 6.32944 3.6123 6.32617C3.6908 6.21103 3.77893 6.10388 3.87891 6.00391C4.75759 5.12523 6.17158 5.125 9 5.125H15ZM19.8271 9.4502C20.2395 9.37799 20.6876 9.59699 20.8838 9.9668C20.9788 10.1461 20.9948 10.3874 20.998 10.8096C20.5207 10.3516 19.9744 9.96503 19.375 9.66895C19.5556 9.5449 19.6925 9.47385 19.8271 9.4502Z" fill="black"/>
</svg>
