<svg width="24" height="24" viewBox="0 0 24 24" >
<path d="M15 10.5C15.8284 10.5 16.5 11.1716 16.5 12C16.5 12.8284 15.8284 13.5 15 13.5H9C8.17157 13.5 7.5 12.8284 7.5 12C7.5 11.1716 8.17157 10.5 9 10.5H15Z" />
<path d="M20 4.5C20.8284 4.5 21.5 5.17157 21.5 6C21.5 6.82843 20.8284 7.5 20 7.5H4C3.17157 7.5 2.5 6.82843 2.5 6C2.5 5.17157 3.17157 4.5 4 4.5H20Z" />
<path d="M18 16.5C18.8284 16.5 19.5 17.1716 19.5 18C19.5 18.8284 18.8284 19.5 18 19.5H6C5.17157 19.5 4.5 18.8284 4.5 18C4.5 17.1716 5.17157 16.5 6 16.5H18Z" />
</svg>
