<svg width="24" height="24" viewBox="0 0 24 24" fill="none" xmlns="http://www.w3.org/2000/svg">
<path d="M12 17C14.4721 17 15.2628 17.0428 16.4287 17.085C17.5426 17.1253 19 17.3855 19 18.5C19 19.6145 17.5426 19.8747 16.4287 19.915C15.2628 19.9572 14.4721 20 12 20C9.52788 20 8.73718 19.9572 7.57129 19.915C6.45743 19.8747 5 19.6145 5 18.5C5 17.3855 6.45743 17.1253 7.57129 17.085C8.73718 17.0428 9.52788 17 12 17Z" fill="black"/>
<path d="M12 11C14.4721 11 14.2628 11.0428 15.4287 11.085C16.5426 11.1253 18 11.3855 18 12.5C18 13.6145 16.5426 13.8747 15.4287 13.915C14.2628 13.9572 14.4721 14 12 14C9.52788 14 9.73718 13.9572 8.57129 13.915C7.45743 13.8747 6 13.6145 6 12.5C6 11.3855 7.45743 11.1253 8.57129 11.085C9.73718 11.0428 9.52788 11 12 11Z" fill="black"/>
<path d="M12 5C14.4721 5 16.2628 5.04283 17.4287 5.08496C18.5426 5.12527 20 5.38551 20 6.5C20 7.61449 18.5426 7.87473 17.4287 7.91504C16.2628 7.95717 14.4721 8 12 8C9.52788 8 7.73718 7.95717 6.57129 7.91504C5.45743 7.87473 4 7.61449 4 6.5C4 5.38551 5.45743 5.12527 6.57129 5.08496C7.73718 5.04283 9.52788 5 12 5Z" fill="black"/>
</svg>
