<svg width="24" height="24" viewBox="0 0 24 24" fill="none" xmlns="http://www.w3.org/2000/svg">
  <path
    d="M16.1123 6.35449C16.6566 6.39971 16.9784 6.76704 17.1133 6.97461C17.258 7.19741 17.3324 7.43725 17.375 7.60742C17.4645 7.96534 17.5063 8.40806 17.5283 8.84863C17.5735 9.75193 17.543 10.9242 17.4863 12.0576C17.4292 13.1998 17.3443 14.3387 17.2734 15.1895C17.2379 15.6154 17.2057 15.9706 17.1826 16.2197C17.1711 16.3442 17.1618 16.4425 17.1553 16.5098C17.152 16.5433 17.1492 16.5693 17.1475 16.5869C17.1466 16.5956 17.146 16.6028 17.1455 16.6074C17.1453 16.6095 17.1445 16.6123 17.1445 16.6123V16.6143C17.0813 17.2461 16.5175 17.7074 15.8857 17.6445C15.254 17.5812 14.7933 17.0176 14.8564 16.3857V16.3799C14.8568 16.3759 14.8576 16.3695 14.8584 16.3613C14.86 16.3449 14.8621 16.3202 14.8652 16.2881C14.8715 16.2235 14.8813 16.1282 14.8926 16.0068C14.9151 15.7638 14.9466 15.4157 14.9814 14.998C15.0512 14.1614 15.1341 13.05 15.1895 11.9424C15.2152 11.4268 15.2327 10.9193 15.2422 10.4453C15.1658 10.5831 15.0868 10.7238 15.0078 10.8672C14.6278 11.5566 14.2167 12.3049 13.8398 12.8779C13.6534 13.1614 13.4439 13.4507 13.2227 13.6807C13.1118 13.7959 12.9676 13.9273 12.7939 14.0361C12.6268 14.1408 12.3513 14.2753 12 14.2754C11.649 14.2753 11.3742 14.1408 11.207 14.0361C11.0333 13.9273 10.8892 13.7959 10.7783 13.6807C10.557 13.4507 10.3476 13.1615 10.1611 12.8779C9.78425 12.3049 9.37316 11.5567 8.99316 10.8672C8.9142 10.7239 8.83416 10.584 8.75781 10.4463C8.76729 10.9201 8.78577 11.4271 8.81152 11.9424C8.86689 13.05 8.94983 14.1614 9.01953 14.998C9.05433 15.4157 9.08583 15.7638 9.1084 16.0068C9.11967 16.1282 9.1295 16.2235 9.13574 16.2881C9.13884 16.3202 9.14097 16.3449 9.14258 16.3613C9.14338 16.3695 9.14413 16.3759 9.14453 16.3799V16.3857C9.20759 17.0174 8.74674 17.581 8.11523 17.6445C7.52269 17.7038 6.99023 17.3017 6.87402 16.7305L6.85645 16.6143V16.6123C6.85645 16.6123 6.85568 16.6095 6.85547 16.6074C6.85501 16.6028 6.85437 16.5956 6.85352 16.5869C6.85178 16.5693 6.84894 16.5433 6.8457 16.5098C6.83921 16.4425 6.82992 16.3442 6.81836 16.2197C6.79524 15.9707 6.76303 15.6154 6.72754 15.1895C6.65666 14.3387 6.57175 13.1998 6.51465 12.0576C6.45799 10.9242 6.4275 9.75192 6.47266 8.84863C6.49469 8.40803 6.5375 7.96533 6.62695 7.60742C6.66953 7.43721 6.74303 7.19731 6.8877 6.97461C7.03167 6.75316 7.38829 6.34961 8.00098 6.34961L8.12891 6.35547C8.41897 6.38263 8.64776 6.49731 8.79395 6.58887C8.96759 6.6977 9.11179 6.82915 9.22266 6.94434C9.44392 7.17431 9.65337 7.46357 9.83984 7.74707C10.2167 8.32009 10.6278 9.06835 11.0078 9.75781C11.3679 10.4113 11.7037 11.0157 12 11.4824C12.2964 11.0157 12.6329 10.4114 12.9932 9.75781C13.3732 9.06832 13.7843 8.32007 14.1611 7.74707C14.3476 7.46354 14.557 7.17429 14.7783 6.94434C14.8892 6.82913 15.0333 6.69766 15.207 6.58887C15.3743 6.48418 15.6497 6.34961 16.001 6.34961L16.1123 6.35449Z"
    fill="black" />
  <path fill-rule="evenodd" clip-rule="evenodd"
    d="M12 1.5C17.799 1.5 22.5 6.20101 22.5 12C22.5 17.799 17.799 22.5 12 22.5C6.20101 22.5 1.5 17.799 1.5 12C1.5 6.20101 6.20101 1.5 12 1.5ZM12 3.7998C7.47126 3.7998 3.7998 7.47126 3.7998 12C3.7998 16.5287 7.47126 20.2002 12 20.2002C16.5287 20.2002 20.2002 16.5287 20.2002 12C20.2002 7.47126 16.5287 3.7998 12 3.7998Z"
    fill="black" />
</svg>