<svg width="24" height="24" viewBox="0 0 24 24" >
<path fill-rule="evenodd" clip-rule="evenodd" d="M12.2432 3C17.3475 3.00027 22.5648 7.21424 20.5615 12C19.1729 15.3173 14.1433 13.9137 12.7051 15.5C11.0115 17.3684 15.4772 21 9.93164 21C5.10708 20.9998 3 16.9704 3 12C3 7.02944 7.13857 3 12.2432 3ZM8 13C6.89543 13 6 13.8954 6 15C6 16.1046 6.89543 17 8 17C9.10457 17 10 16.1046 10 15C10 13.8954 9.10457 13 8 13ZM9 7C7.89543 7 7 7.89543 7 9C7 10.1046 7.89543 11 9 11C10.1046 11 11 10.1046 11 9C11 7.89543 10.1046 7 9 7ZM15 6C13.8954 6 13 6.89543 13 8C13 9.10457 13.8954 10 15 10C16.1046 10 17 9.10457 17 8C17 6.89543 16.1046 6 15 6Z" />
</svg>
