<svg width="24" height="25" viewBox="0 0 24 25" fill="none" xmlns="http://www.w3.org/2000/svg">
<path fill-rule="evenodd" clip-rule="evenodd" d="M12.2432 3.85718C17.3475 3.85745 22.5648 8.07142 20.5615 12.8572C19.1729 16.1744 14.1433 14.7708 12.7051 16.3572C11.0115 18.2256 15.4772 21.8572 9.93164 21.8572C5.10708 21.857 3 17.8276 3 12.8572C3 7.88661 7.13857 3.85718 12.2432 3.85718ZM8 13.8572C6.89543 13.8572 6 14.7526 6 15.8572C6 16.9617 6.89543 17.8572 8 17.8572C9.10457 17.8572 10 16.9617 10 15.8572C10 14.7526 9.10457 13.8572 8 13.8572ZM9 7.85718C7.89543 7.85718 7 8.75261 7 9.85718C7 10.9617 7.89543 11.8572 9 11.8572C10.1046 11.8572 11 10.9617 11 9.85718C11 8.75261 10.1046 7.85718 9 7.85718ZM15 6.85718C13.8954 6.85718 13 7.75261 13 8.85718C13 9.96175 13.8954 10.8572 15 10.8572C16.1046 10.8572 17 9.96175 17 8.85718C17 7.75261 16.1046 6.85718 15 6.85718Z" fill="black"/>
</svg>
