<svg width="24" height="24" viewBox="0 0 24 24" fill="none" xmlns="http://www.w3.org/2000/svg">
<path d="M12 7.82767C12 10.0368 13.7909 11.8277 16 11.8277V11.8277C16.9319 11.8277 17.3978 11.8277 17.7654 11.9799C18.2554 12.1829 18.6448 12.5722 18.8478 13.0623C19 13.4298 19 13.8958 19 14.8277V14.9995C19 17.828 18.9998 19.2429 18.1211 20.1216C17.2424 21 15.8282 20.9995 13 20.9995H11C8.17185 20.9995 6.7576 21 5.87891 20.1216C5.00023 19.2429 5 17.828 5 14.9995V10.9995C5 8.19114 4.9999 6.78668 5.67383 5.77786C5.96558 5.34122 6.34074 4.96615 6.77734 4.67435C7.16635 4.41442 7.61421 4.25462 8.17873 4.15637C9.71708 3.88863 10.4863 3.75476 11.1691 4.24675C11.2422 4.29938 11.3338 4.37647 11.3982 4.4394C12 5.0278 12 5.96109 12 7.82767V7.82767Z" fill="black"/>
<path d="M14 6.3647C14 5.36076 14 4.8588 14.3043 4.72935C14.6085 4.59991 14.9702 4.94801 15.6935 5.64422L18.4857 8.33181C18.8016 8.63591 18.987 9.03324 18.9934 9.47169V9.47169C18.9961 9.6578 18.8456 9.82767 18.6594 9.82767H16L15.7959 9.81693C14.7872 9.71464 14 8.8633 14 7.82767V6.3647Z" fill="black"/>
</svg>
