<svg width="24" height="24" viewBox="0 0 24 24" fill="none" xmlns="http://www.w3.org/2000/svg">
<rect width="24" height="24" fill="white"/>
<path d="M14 6.3647C14 5.36076 14 4.8588 14.3043 4.72935C14.6085 4.59991 14.9702 4.94801 15.6935 5.64422L18.4857 8.33181C18.8016 8.63591 18.987 9.03324 18.9934 9.47169C18.9961 9.6578 18.8456 9.82767 18.6594 9.82767H16L15.7959 9.81693C14.7872 9.71464 14 8.8633 14 7.82767V6.3647Z" fill="black"/>
<path d="M11.1865 16.5249C11.3794 16.5249 11.5442 16.5564 11.6807 16.6196C11.8172 16.6795 11.9274 16.7615 12.0107 16.8647C12.0973 16.9679 12.1612 17.0798 12.2012 17.1997C12.2411 17.316 12.2607 17.4329 12.2607 17.5493C12.2607 17.7289 12.2229 17.8993 12.1465 18.059C12.0699 18.219 11.9525 18.3512 11.7959 18.4545C11.6393 18.5544 11.4362 18.6049 11.1865 18.6049H10.3311V19.5444C10.3311 19.6609 10.3026 19.7531 10.2461 19.8198C10.1895 19.8829 10.0995 19.9144 9.97656 19.9145C9.85998 19.9145 9.76938 19.883 9.70605 19.8198C9.65872 19.7698 9.62906 19.7053 9.61719 19.6274L9.61133 19.5444V16.894C9.61149 16.7745 9.64294 16.6828 9.70605 16.6196C9.7727 16.5564 9.86491 16.5249 9.98145 16.5249H11.1865ZM18.459 16.5249C18.5552 16.5249 18.6319 16.5494 18.6885 16.5991C18.745 16.6456 18.7733 16.7161 18.7734 16.809C18.7734 16.9022 18.745 16.9749 18.6885 17.0249C18.6319 17.0746 18.5553 17.099 18.459 17.0991H17.0938V17.8598H18.3232C18.4197 17.8598 18.4971 17.8843 18.5537 17.934C18.6135 17.9806 18.6434 18.0495 18.6436 18.1391C18.6436 18.2323 18.6136 18.3049 18.5537 18.3549C18.4971 18.4048 18.4198 18.4292 18.3232 18.4292H17.0938V19.519C17.0938 19.6455 17.0653 19.7449 17.0088 19.8149C16.9555 19.8814 16.8703 19.9145 16.7539 19.9145C16.634 19.9145 16.5403 19.8814 16.4736 19.8149C16.4105 19.7449 16.3789 19.6455 16.3789 19.519V16.9292C16.379 16.7962 16.412 16.6959 16.4785 16.6293C16.5451 16.5596 16.6453 16.5249 16.7783 16.5249H18.459ZM13.9746 16.5249C14.3745 16.5249 14.7105 16.5949 14.9805 16.7348C15.2534 16.8747 15.4581 17.0716 15.5947 17.3247C15.7347 17.5745 15.8046 17.865 15.8047 18.1948C15.8047 18.4777 15.7644 18.7242 15.6846 18.934C15.6079 19.1439 15.4915 19.3195 15.335 19.4594C15.1817 19.5994 14.9912 19.7049 14.7646 19.7749C14.5381 19.8414 14.2744 19.8745 13.9746 19.8745H13.125C12.9985 19.8745 12.9016 19.8414 12.835 19.7749C12.7718 19.7082 12.7403 19.6128 12.7402 19.4897V16.9096C12.7403 16.7865 12.7717 16.691 12.835 16.6245C12.9016 16.558 12.9985 16.5249 13.125 16.5249H13.9746ZM13.4551 17.1049V19.2749H13.9297C14.1264 19.2749 14.2971 19.2543 14.4404 19.2143C14.5867 19.1744 14.7082 19.1128 14.8047 19.0297C14.9045 18.9431 14.9788 18.8313 15.0254 18.6948C15.0753 18.5583 15.0996 18.3911 15.0996 18.1948C15.0995 17.9816 15.0563 17.7926 14.9697 17.6293C14.8831 17.4663 14.7532 17.3378 14.5801 17.2446C14.4068 17.1513 14.1896 17.1049 13.9297 17.1049H13.4551ZM10.3311 17.0747V18.0346H10.9863C11.1929 18.0346 11.3432 17.9929 11.4365 17.9096C11.5329 17.8263 11.5811 17.7057 11.5811 17.5493C11.5809 17.4629 11.5588 17.3847 11.5156 17.3149C11.4756 17.2417 11.4111 17.1824 11.3213 17.1391C11.2347 17.0959 11.1228 17.0747 10.9863 17.0747H10.3311Z" fill="black"/>
<path d="M11.1689 4.24654C11.242 4.29915 11.334 4.376 11.3984 4.43892C12 5.02709 12 5.96028 12 7.82538V7.82759C12 10.0367 13.7909 11.8276 16 11.8276C16.9319 11.8276 17.398 11.8277 17.7656 11.9799C18.2554 12.1829 18.6447 12.5721 18.8477 13.062C18.9861 13.3962 18.9979 13.812 18.999 14.5854C18.8065 14.5415 18.6226 14.5249 18.459 14.5249H9.98145C9.52794 14.5249 8.94323 14.6478 8.43555 15.0747L8.33105 15.1665L8.32812 15.1694L8.30957 15.187L8.29199 15.2055C7.74036 15.7572 7.6115 16.4295 7.61133 16.894V19.5444C7.61133 19.9501 7.71175 20.4596 8.03809 20.9262C7.04217 20.8324 6.3751 20.6176 5.87891 20.1215C5.00023 19.2428 5 17.8279 5 14.9995L5 10.9983C5 8.19071 5 6.78646 5.67383 5.77779C5.96558 5.34115 6.34074 4.96607 6.77734 4.67427C7.16633 4.41436 7.61423 4.25494 8.17871 4.15669L8.18177 4.15616C9.71796 3.8888 10.4866 3.75501 11.1689 4.24654Z" fill="black"/>
</svg>
