<svg width="24" height="25" viewBox="0 0 24 25" fill="none" xmlns="http://www.w3.org/2000/svg">
<path d="M12.0002 3.28589C13.4833 3.28589 14.7483 3.35838 15.8049 3.4646C18.5278 3.73835 20.5476 5.75735 20.8215 8.48022C20.8548 8.81136 20.8819 9.16352 20.9074 9.53589L20.8351 9.50562L20.7189 9.46753C20.1433 9.3033 19.6089 9.50708 19.2375 9.73999C18.8314 9.99467 18.4572 10.3784 18.1213 10.8142C17.944 11.0441 17.7671 11.3019 17.593 11.5847C17.2152 10.689 16.6581 9.70684 15.8703 8.75171C14.8019 7.45658 13.5838 6.43286 12.4426 5.84546C11.874 5.55283 11.2778 5.34482 10.6994 5.29663C10.1135 5.24794 9.47583 5.3617 8.96014 5.80151C8.44968 6.23721 8.22423 6.86052 8.14667 7.44409C8.06791 8.03708 8.12424 8.69515 8.27557 9.35718C8.34788 9.67338 8.44464 9.99967 8.56366 10.3308C8.26667 10.3681 7.98173 10.4183 7.71307 10.4822C7.09135 10.6301 6.50395 10.861 6.03241 11.2009C5.55529 11.5451 5.14648 12.0427 5.03143 12.7058C4.91665 13.3681 5.13255 13.9756 5.46307 14.4617C5.79024 14.9427 6.26329 15.3617 6.79706 15.7166C7.8675 16.428 9.34918 16.9907 10.9894 17.2849C12.6639 17.5852 14.2586 17.4295 15.4846 17.0789C15.336 17.7566 15.2321 18.4025 15.1808 18.9832C15.1249 19.6175 15.1249 20.2286 15.2209 20.7361C15.2462 20.8696 15.2812 21.0092 15.3293 21.1482C14.3746 21.2299 13.2671 21.2859 12.0002 21.2859C10.5169 21.2859 9.25124 21.2134 8.19452 21.1072C5.47162 20.8333 3.45265 18.8135 3.17889 16.0906C3.07268 15.034 3.00019 13.769 3.00018 12.2859C3.00018 10.8026 3.07266 9.53694 3.17889 8.48022C3.4528 5.75747 5.47175 3.73847 8.19452 3.4646C9.25124 3.35836 10.5169 3.28589 12.0002 3.28589Z" fill="black"/>
<path d="M19.9943 11.699C20.0034 11.8746 20.0024 12.0901 19.9836 12.3464C19.9128 13.3122 19.6222 14.6354 19.1096 16.0681C18.5969 17.501 17.983 18.7034 17.4279 19.488C17.3272 19.6304 17.2308 19.7513 17.1437 19.8552C17.1412 19.6578 17.1495 19.4252 17.173 19.1589C17.2649 18.118 17.5636 16.7542 18.0392 15.3835C18.0587 15.3388 18.0764 15.2922 18.092 15.2439C18.1304 15.16 18.1567 15.0762 18.1779 14.9978C18.67 13.6742 19.2186 12.6663 19.7053 12.0349C19.8105 11.8984 19.9082 11.7884 19.9943 11.699Z" fill="black"/>
<path d="M9.50018 12.2615C9.76295 12.6879 10.0611 13.109 10.3947 13.5134C11.0882 14.3541 11.8878 14.9899 12.7033 15.4402C12.2652 15.4351 11.8079 15.3995 11.343 15.3162C9.90717 15.0586 8.69793 14.5779 7.90448 14.0505C7.50648 13.786 7.25344 13.5367 7.11737 13.3367C6.98549 13.1427 6.99977 13.0556 7.00116 13.0476C7.0022 13.0416 7.01554 12.9577 7.20233 12.823C7.39492 12.6842 7.71415 12.5384 8.17596 12.4285C8.55807 12.3376 9.0056 12.2804 9.50018 12.2615Z" fill="black"/>
<path d="M12.1691 12.5046C13.4558 12.7733 14.5386 13.2157 15.2687 13.7009C15.5802 13.908 15.8022 14.107 15.9494 14.2791C15.6398 14.3053 15.243 14.2735 14.7932 14.1511C13.9507 13.9217 12.9918 13.397 12.1691 12.5046Z" fill="black"/>
<path d="M10.5334 7.28979C10.7663 7.3092 11.1031 7.40533 11.5275 7.62378C12.373 8.05901 13.388 8.88549 14.3273 10.0242C14.7166 10.4961 15.0343 10.9745 15.2941 11.4353C14.3909 11.0104 13.3264 10.6725 12.1838 10.4675C11.6842 10.3779 11.1892 10.3192 10.7082 10.2859C10.4863 9.80512 10.3235 9.33933 10.2258 8.91187C10.1109 8.40941 10.0903 8.00004 10.1291 7.70776C10.1692 7.40584 10.258 7.323 10.258 7.323C10.2619 7.31968 10.2742 7.30984 10.3098 7.30054C10.3495 7.29017 10.4212 7.28047 10.5334 7.28979Z" fill="black"/>
</svg>
