<svg width="24" height="25" viewBox="0 0 24 25" fill="none" xmlns="http://www.w3.org/2000/svg">
<path d="M9.00683 3.29655C9.61243 3.34692 10.239 3.56593 10.8408 3.87566C12.0484 4.49711 13.3411 5.58222 14.4766 6.95866C15.3482 8.01543 15.9559 9.1017 16.3564 10.0837C16.5627 9.74024 16.7712 9.42969 16.9814 9.15691C17.3373 8.69526 17.7313 8.29196 18.1553 8.02605C18.5436 7.78261 19.0936 7.57552 19.6826 7.74382L19.8008 7.78288L19.9277 7.83659C20.5391 8.12713 20.7835 8.74418 20.8857 9.17155C21.0063 9.67533 21.0223 10.2764 20.9766 10.901C20.884 12.1647 20.5211 13.7638 19.9297 15.4167C19.3384 17.0693 18.6056 18.5322 17.877 19.5622C17.517 20.071 17.123 20.5231 16.709 20.8327C16.3328 21.114 15.6908 21.4562 14.9795 21.193C14.5881 21.0481 14.3367 20.7626 14.1846 20.4987C14.0355 20.24 13.9517 19.9534 13.9014 19.6872C13.8006 19.1544 13.7999 18.5095 13.8594 17.8356C13.9165 17.1883 14.0341 16.4637 14.2051 15.7038C14.1903 15.7082 14.176 15.7141 14.1611 15.7184C12.8545 16.1025 11.1378 16.2754 9.33398 15.9518C7.59099 15.6392 6.01935 15.0426 4.88672 14.2897C4.32183 13.9142 3.82501 13.4722 3.48242 12.9684C3.13658 12.4597 2.91358 11.8297 3.03223 11.1452C3.15116 10.4595 3.57476 9.94182 4.07422 9.58171C4.56788 9.22592 5.18503 8.98333 5.84277 8.82683C6.15175 8.75332 6.48063 8.6962 6.82519 8.65593C6.68591 8.27836 6.57437 7.90695 6.49219 7.54753C6.3319 6.84651 6.27275 6.15259 6.35547 5.52995C6.43695 4.91686 6.67267 4.27025 7.20019 3.81999C7.733 3.36537 8.3938 3.24561 9.00683 3.29655ZM18.9805 9.91179C18.8622 10.023 18.7218 10.1748 18.5654 10.3776C18.0399 11.0594 17.4512 12.1444 16.9238 13.5651C16.9015 13.647 16.8744 13.7342 16.834 13.821C16.8191 13.8671 16.8026 13.9117 16.7842 13.9548C16.2726 15.4257 15.9504 16.8912 15.8516 18.0114C15.8193 18.3772 15.815 18.6852 15.8271 18.9323C15.9511 18.7957 16.0917 18.6224 16.2441 18.4069C16.8406 17.5637 17.4976 16.2752 18.0459 14.7428C18.5941 13.2107 18.9054 11.7932 18.9814 10.7555C19.007 10.4066 19.0009 10.1259 18.9805 9.91179ZM7.76953 10.5925C7.22249 10.6111 6.72782 10.6717 6.30566 10.7721C5.80741 10.8907 5.45794 11.0499 5.24316 11.2048C5.03443 11.3553 5.00784 11.4587 5.00293 11.487C4.99782 11.5165 4.9886 11.6266 5.13672 11.8444C5.28822 12.0671 5.56516 12.3385 5.99414 12.6237C6.84973 13.1924 8.14901 13.7071 9.6875 13.9831C10.2831 14.0899 10.8663 14.127 11.418 14.1169C10.4742 13.6363 9.54031 12.9238 8.73926 11.9528C8.37671 11.5133 8.05303 11.056 7.76953 10.5925ZM10.3965 10.8132C11.3115 11.8667 12.4049 12.4793 13.3623 12.7399C13.862 12.8759 14.3031 12.9108 14.6465 12.8776C14.6783 12.8745 14.7082 12.867 14.7373 12.863C14.579 12.6518 14.3162 12.4002 13.9238 12.1393C13.0992 11.5912 11.8622 11.0955 10.3965 10.8132ZM8.84082 5.28972C8.58841 5.26877 8.51126 5.33019 8.49805 5.34148C8.47904 5.35784 8.38179 5.46329 8.33789 5.79362C8.2952 6.11538 8.31864 6.55998 8.44238 7.10124C8.5502 7.5728 8.73106 8.08697 8.97851 8.61687C9.50126 8.6516 10.0397 8.71358 10.584 8.8112C11.8774 9.04321 13.076 9.4328 14.0713 9.92546C13.7758 9.37538 13.4023 8.79937 12.9336 8.23112C11.9272 7.01107 10.8376 6.12322 9.92578 5.65398C9.46804 5.41841 9.10081 5.31132 8.84082 5.28972Z" fill="black"/>
</svg>
