<svg width="24" height="25" viewBox="0 0 24 25" fill="none" xmlns="http://www.w3.org/2000/svg">
<path d="M10.5 19.8572V16.3201L7.42578 19.2019C6.82149 19.7682 5.87221 19.7376 5.30566 19.1335C4.73907 18.5292 4.76965 17.579 5.37402 17.0125L8.20605 14.3572H5C4.17157 14.3572 3.5 13.6856 3.5 12.8572C3.5 12.0288 4.17157 11.3572 5 11.3572H8.20605L5.37402 8.7019C4.76966 8.13531 4.73907 7.18518 5.30566 6.58081C5.87219 5.97675 6.82147 5.9462 7.42578 6.51245L10.5 9.39331V5.85718C10.5 5.02875 11.1716 4.35718 12 4.35718C12.8284 4.35718 13.5 5.02875 13.5 5.85718V9.39331L16.5742 6.51245C17.1785 5.9462 18.1278 5.97675 18.6943 6.58081C19.2609 7.18518 19.2303 8.13531 18.626 8.7019L15.7939 11.3572H19C19.8284 11.3572 20.5 12.0288 20.5 12.8572C20.5 13.6856 19.8284 14.3572 19 14.3572H15.7939L18.626 17.0125C19.2303 17.579 19.2609 18.5292 18.6943 19.1335C18.1278 19.7376 17.1785 19.7682 16.5742 19.2019L13.5 16.3201V19.8572C13.5 20.6856 12.8284 21.3572 12 21.3572C11.1716 21.3572 10.5 20.6856 10.5 19.8572Z" fill="black"/>
</svg>
