<svg width="24" height="24" viewBox="0 0 24 24" fill="none" xmlns="http://www.w3.org/2000/svg">
<path d="M13.6831 5.24183C13.593 4.03724 14.542 3 15.7499 3C16.9579 3 17.9069 4.03724 17.8168 5.24183C17.6741 7.14988 17.5 9.90623 17.5 12C17.5 14.0938 17.6741 16.8501 17.8168 18.7582C17.9069 19.9628 16.9579 21 15.7499 21C14.542 21 13.593 19.9628 13.6831 18.7582C13.8258 16.8501 13.9999 14.0938 13.9999 12C13.9999 9.90623 13.8258 7.14988 13.6831 5.24183Z" fill="black"/>
<path d="M6.18317 5.24178C6.09307 4.03722 7.04205 3 8.24998 3C9.45791 3 10.4069 4.03722 10.3168 5.24178C10.1741 7.14983 9.99998 9.90621 9.99998 12C9.99998 14.0938 10.1741 16.8502 10.3168 18.7582C10.4069 19.9628 9.45791 21 8.24998 21C7.04205 21 6.09307 19.9628 6.18317 18.7582C6.3259 16.8502 6.49998 14.0938 6.49998 12C6.49998 9.90621 6.3259 7.14983 6.18317 5.24178Z" fill="black"/>
</svg>
