<svg width="24" height="25" viewBox="0 0 24 25" fill="none" xmlns="http://www.w3.org/2000/svg">
<path d="M19.1452 14.6881C19.2125 14.6996 19.2425 14.7092 19.3024 14.7418C19.5308 14.8668 19.6454 15.8872 19.8747 17.9264L19.904 18.1861C20.0263 19.2739 20.0877 19.8187 19.776 20.152C19.7581 20.1711 19.7388 20.1889 19.7194 20.2067C19.3821 20.5146 18.8318 20.4545 17.7311 20.3336L17.4684 20.3053C15.4035 20.0786 14.3706 19.9647 14.2448 19.7389C14.2119 19.6799 14.2017 19.6508 14.1901 19.5846C14.1455 19.3306 14.9363 18.5491 16.5172 16.9869C18.0979 15.425 18.8881 14.6442 19.1452 14.6881Z" fill="black"/>
<path d="M12.3258 8.00646C12.7905 7.54725 13.5369 7.53459 14.0016 7.99376C15.7018 9.67377 16.6944 10.9274 17.2067 11.6442C17.5142 12.0744 17.5731 12.6182 17.318 13.0807C16.9857 13.6829 16.3603 14.6103 15.236 15.7213C14.1119 16.832 13.1736 17.4495 12.5641 17.7779C12.096 18.0301 11.5456 17.9716 11.11 17.6676C10.3846 17.1613 9.1157 16.1814 7.41568 14.5016C6.95446 14.0458 6.96717 13.3021 7.42838 12.8463L12.3258 8.00646Z" fill="black"/>
<path d="M8.49381 4.92345C9.17538 4.50999 10.0035 4.59817 10.6452 5.06994C11.1971 5.47575 11.2301 6.27692 10.7428 6.75841L6.16275 11.2838C5.67316 11.7676 4.87076 11.735 4.4567 11.1852C3.97926 10.5511 3.88978 9.73267 4.30826 9.05919C4.67253 8.47302 5.25909 7.6853 6.18131 6.77404C7.10344 5.86288 7.90061 5.28339 8.49381 4.92345Z" fill="black"/>
</svg>
