<svg width="24" height="24" viewBox="0 0 24 24" >
<path d="M12 4.99999C13.8278 4.99999 15.1586 5.0216 16.0338 5.04327C16.8865 5.06439 18 4.89643 18 4.04347C18 3.88735 17.9684 3.74977 17.919 3.63004C17.697 3.0919 17.045 2.94047 16.4669 2.87217C15.627 2.77295 14.1608 2.65216 12 2.65216C9.83921 2.65216 8.37298 2.77295 7.5331 2.87217C6.95497 2.94047 6.30302 3.0919 6.08097 3.63004C6.03157 3.74977 6 3.88735 6 4.04346C6 4.89643 7.11353 5.06439 7.96623 5.04327C8.84135 5.0216 10.1722 4.99999 12 4.99999Z" />
<path d="M12 6.99998C14.5892 6.99999 15.8838 7.00014 16.4725 7.35577C16.665 7.47209 16.7339 7.52511 16.8948 7.67972C17.3868 8.15237 17.5762 9.10793 17.9554 10.6911L18.6656 13.6533C18.951 14.8447 19.0929 15.4405 18.9334 16.0051C18.7739 16.5698 18.3377 17.0143 17.4646 17.9022L15.5074 19.8914C15.4644 19.9352 15.422 19.9783 15.3801 20.0209C14.5946 20.8194 14.2018 21.2186 13.7049 21.0151C13.2081 20.8117 13.2081 20.2265 13.2081 19.0562V16.1608C13.9293 15.7581 14.4161 15.0088 14.4161 14.1478C14.4161 12.8622 13.3343 11.8199 12 11.8198C10.6657 11.8198 9.58395 12.8621 9.58386 14.1478C9.58386 15.0088 10.0706 15.7581 10.7919 16.1608V19.0562C10.7919 20.2272 10.7919 20.8128 10.2951 21.0162C9.79824 21.2197 9.40528 20.8203 8.61938 20.0215C8.57727 19.9788 8.53462 19.9354 8.49141 19.8914L6.53537 17.9022C5.66229 17.0143 5.22612 16.5698 5.06657 16.0051C4.90709 15.4405 5.04901 14.8448 5.33438 13.6533L6.04459 10.6911C6.42377 9.10794 6.61322 8.15237 7.10519 7.67972C7.26608 7.52516 7.33502 7.47207 7.52754 7.35577C8.11627 7.00019 9.41092 6.99998 12 6.99998Z" />
</svg>
