<svg width="24" height="25" viewBox="0 0 24 25" fill="none" xmlns="http://www.w3.org/2000/svg">
<path d="M12 5.42858C13.8278 5.42858 15.1586 5.45018 16.0338 5.47186C16.8865 5.49298 18 5.32502 18 4.47205C18 4.31594 17.9684 4.17836 17.919 4.05863C17.697 3.52049 17.045 3.36906 16.4669 3.30076C15.627 3.20154 14.1608 3.08075 12 3.08075C9.83921 3.08075 8.37298 3.20154 7.5331 3.30076C6.95497 3.36906 6.30302 3.52049 6.08097 4.05863C6.03157 4.17836 6 4.31594 6 4.47205C6 5.32502 7.11353 5.49298 7.96623 5.47186C8.84135 5.45018 10.1722 5.42858 12 5.42858Z" fill="black"/>
<path d="M12 7.42857C14.5892 7.42857 15.8838 7.42873 16.4725 7.78436C16.665 7.90068 16.7339 7.9537 16.8948 8.10831C17.3868 8.58096 17.5762 9.53652 17.9554 11.1197L18.6656 14.0819C18.951 15.2733 19.0929 15.8691 18.9334 16.4337C18.7739 16.9984 18.3377 17.4429 17.4646 18.3308L15.5074 20.32C15.4644 20.3638 15.422 20.4069 15.3801 20.4495C14.5946 21.2479 14.2018 21.6472 13.7049 21.4437C13.2081 21.2403 13.2081 20.6551 13.2081 19.4848V16.5894C13.9293 16.1867 14.4161 15.4373 14.4161 14.5763C14.4161 13.2908 13.3343 12.2484 12 12.2484C10.6657 12.2484 9.58395 13.2907 9.58386 14.5763C9.58386 15.4374 10.0706 16.1867 10.7919 16.5894V19.4848C10.7919 20.6558 10.7919 21.2413 10.2951 21.4448C9.79824 21.6482 9.40528 21.2489 8.61938 20.4501C8.57727 20.4073 8.53462 20.364 8.49141 20.32L6.53537 18.3308C5.66229 17.4429 5.22612 16.9984 5.06657 16.4337C4.90709 15.8691 5.04901 15.2733 5.33438 14.0819L6.04459 11.1197C6.42377 9.53653 6.61322 8.58096 7.10519 8.10831C7.26608 7.95375 7.33502 7.90066 7.52754 7.78436C8.11627 7.42878 9.41092 7.42857 12 7.42857Z" fill="black"/>
</svg>
