<svg width="24" height="25" viewBox="0 0 24 25" fill="none" xmlns="http://www.w3.org/2000/svg">
<path fill-rule="evenodd" clip-rule="evenodd" d="M12 3.85718C13.8198 3.85718 15.2175 4.03788 16.2227 4.24585C17.5361 4.51762 18.4372 5.58326 18.6279 6.91089C18.8166 8.2241 19 10.1871 19 12.8572C19 15.5272 18.8166 17.4903 18.6279 18.8035C18.4372 20.1311 17.5361 21.1967 16.2227 21.4685C15.2175 21.6765 13.8198 21.8572 12 21.8572C10.1802 21.8572 8.78255 21.6765 7.77734 21.4685C6.46392 21.1967 5.56278 20.1311 5.37207 18.8035C5.18344 17.4903 5 15.5272 5 12.8572C5 10.1871 5.18344 8.22409 5.37207 6.91089C5.56278 5.58326 6.46392 4.51762 7.77734 4.24585C8.78255 4.03788 10.1802 3.85718 12 3.85718ZM12 15.8572C10.8956 15.8574 10 16.7527 10 17.8572C10 18.9616 10.8956 19.857 12 19.8572C13.1044 19.8569 14 18.9616 14 17.8572C14 16.7528 13.1044 15.8574 12 15.8572ZM12 5.85718C11.2869 5.85718 10.725 5.87374 10.3047 5.89429C9.66842 5.92541 9 6.22015 9 6.85718C9 7.49421 9.66842 7.78895 10.3047 7.82007C10.725 7.84061 11.2869 7.85718 12 7.85718C12.7131 7.85718 13.275 7.84061 13.6953 7.82007C14.3316 7.78895 15 7.49421 15 6.85718C15 6.22015 14.3316 5.92541 13.6953 5.89429C13.275 5.87374 12.7131 5.85718 12 5.85718Z" fill="black"/>
</svg>
