<svg width="24" height="24" viewBox="0 0 24 24" fill="#000">
<path d="M11 12C11 12.5523 11.4477 13 12 13H16.4767C18.5939 13 19.6525 13 20.2135 14.0743C20.7744 15.1485 20.3125 15.8118 19.3886 17.1385C17.763 19.4725 15.0602 21 12 21C7.02944 21 3 16.9706 3 12C3 8.93975 4.52746 6.23698 6.86153 4.61144C8.18817 3.68752 8.85149 3.22556 9.92574 3.78652C11 4.34747 11 5.40607 11 7.52327V12Z" />
<path d="M13 7.24721C13 5.47043 13 4.58204 13.8229 3.98298C13.935 3.90138 14.159 3.78002 14.2886 3.7307C15.2399 3.36864 15.7964 3.73154 16.9094 4.45733C17.9596 5.14218 18.8578 6.04043 19.5427 7.09064C20.2685 8.20364 20.6314 8.76013 20.2693 9.71142C20.22 9.84099 20.0986 10.065 20.017 10.1771C19.418 11 18.5296 11 16.7528 11C15.1064 11 14.2832 11 13.7295 10.5446C13.6295 10.4623 13.5377 10.3705 13.4554 10.2705C13 9.71684 13 8.89363 13 7.24721Z" />
</svg>
