<svg width="24" height="24" viewBox="0 0 24 24" fill="none" xmlns="http://www.w3.org/2000/svg">
<path d="M11 12C11 12.5523 11.4477 13 12 13H16.4767C18.5939 13 19.6525 13 20.2135 14.0743C20.7744 15.1485 20.3125 15.8119 19.3886 17.1385C17.763 19.4726 15.0602 21 12 21C7.02944 21 3 16.9706 3 12C3 8.93978 4.52746 6.23701 6.86153 4.61147C8.18817 3.68755 8.85149 3.22559 9.92574 3.78655C11 4.3475 11 5.4061 11 7.5233V12Z" fill="black"/>
<path d="M13 7.24725C13 5.47046 13 4.58207 13.8229 3.98301C13.935 3.90141 14.159 3.78005 14.2886 3.73073C15.2399 3.36867 15.7964 3.73157 16.9094 4.45736C17.9596 5.14221 18.8578 6.04046 19.5427 7.09067C20.2685 8.20367 20.6314 8.76016 20.2693 9.71145C20.22 9.84102 20.0986 10.065 20.017 10.1771C19.418 11 18.5296 11 16.7528 11C15.1064 11 14.2832 11 13.7295 10.5447C13.6295 10.4624 13.5377 10.3706 13.4554 10.2705C13 9.71687 13 8.89366 13 7.24725Z" fill="black"/>
</svg>
