<svg width="24" height="25" viewBox="0 0 24 25" fill="none" xmlns="http://www.w3.org/2000/svg">
<path d="M17.0908 4.4668C17.7958 4.21474 18.441 4.85524 18.2578 5.58106C18.0835 6.27109 17.8653 7.13679 17.6279 8.07617C17.6231 8.0952 17.6272 8.1156 17.6406 8.12989C18.0533 8.56836 18.3874 9.08147 18.6211 9.64649C18.7627 9.98855 19.1298 10.1924 19.5 10.1924C20.9479 10.1926 21.9465 11.3419 21.9912 12.7891C21.9968 12.9719 22 13.1674 22 13.374C22 13.5804 21.9968 13.7753 21.9912 13.958C21.9468 15.4055 20.9481 16.5544 19.5 16.5547C19.3229 16.5547 19.152 16.5378 18.9893 16.5049C18.8524 16.4772 18.7138 16.5573 18.6787 16.6924C18.5933 17.0236 18.4364 17.3119 18.2285 17.5527C18.05 17.7595 17.949 18.0345 18.0215 18.2979C18.5139 20.0879 17.1669 21.8559 15.3105 21.8564C14.0447 21.8564 12.9344 21.0105 12.5986 19.79L12.4932 19.4111C12.3715 18.9703 11.9661 18.6694 11.5088 18.6738C11.3425 18.6755 11.1729 18.6758 11 18.6758C10.8269 18.6758 10.6567 18.6755 10.4902 18.6738C10.0323 18.6694 9.62697 18.9714 9.50586 19.4131L9.40234 19.79C9.06662 21.0104 7.95609 21.8562 6.69043 21.8564C4.83374 21.8563 3.48704 20.0881 3.97949 18.2979C4.0513 18.0345 3.94878 17.7596 3.77051 17.5527C3.56292 17.3118 3.40758 17.0233 3.32227 16.6924C3.14762 16.0147 3.00004 15.091 3 13.9043C3 13.7439 3.00272 13.5874 3.00781 13.4365C3.09292 10.923 5.26051 9.36118 7.77148 9.21875C8.16278 9.19659 8.58524 9.17829 9.03906 9.16407C9.39561 9.15289 9.71503 8.95175 9.92188 8.66114C10.6762 7.60054 11.8344 6.84682 13.1719 6.62403C13.4501 6.57769 13.7056 6.43852 13.9062 6.24024C14.7249 5.43124 16.0482 4.83963 17.0908 4.4668ZM9 11.2539C8.31464 11.2539 7.76906 11.2704 7.35449 11.291C6.68708 11.3242 6.00024 11.6454 6 12.3135C6 12.9818 6.68696 13.3037 7.35449 13.3369C7.76906 13.3575 8.31465 13.374 9 13.374C9.68535 13.374 10.2309 13.3575 10.6455 13.3369C11.313 13.3037 12 12.9818 12 12.3135C11.9998 11.6454 11.3129 11.3242 10.6455 11.291C10.2309 11.2704 9.68536 11.2539 9 11.2539Z" fill="black"/>
</svg>
