<svg width="24" height="25" viewBox="0 0 24 25" fill="none" xmlns="http://www.w3.org/2000/svg">
<path d="M12 2.42859C19.4997 2.42859 21.4998 5.58624 21.5 8.74402C21.5 11.9019 18 11.955 18 11.955H17.1055C16.4951 11.955 16.0001 11.4599 16 10.8495C15.9999 10.2973 15.5522 9.84949 15 9.84949C14.4478 9.84949 14.0001 10.2973 14 10.8495C14.0001 12.5644 15.3905 13.955 17.1055 13.955H18V17.3925C18 19.3396 17.9998 20.313 17.2441 21.1649C16.6419 21.8438 16.0212 22.0396 15 22.1874V17.1659C14.9999 16.6137 14.5522 16.1659 14 16.1659C13.4478 16.1659 13.0001 16.6137 13 17.1659V22.3983C12.6772 22.4166 12.3435 22.4286 12 22.4286C11.6565 22.4286 11.3228 22.4166 11 22.3983V17.1659C10.9999 16.6137 10.5522 16.1659 10 16.1659C9.4478 16.1659 9.00014 16.6137 9 17.1659V22.1874C7.97875 22.0396 7.35808 21.8438 6.75586 21.1649C6.00021 20.313 6 19.3396 6 17.3925V13.955H6.89453C8.60949 13.955 9.99995 12.5644 10 10.8495C9.99986 10.2973 9.5522 9.84949 9 9.84949C8.4478 9.84949 8.00014 10.2973 8 10.8495C7.99995 11.4599 7.50492 11.955 6.89453 11.955H6C6 11.955 2.5 11.9019 2.5 8.74402C2.50015 5.58624 4.50029 2.42859 12 2.42859Z" fill="black"/>
</svg>
