<svg width="24" height="24" viewBox="0 0 24 24" fill="none" xmlns="http://www.w3.org/2000/svg">
<path d="M6.16425 15.505C6.29545 16.8087 7.19176 17.7049 8.49432 17.8361L8.19452 20.8214C5.47162 20.5475 3.45265 18.5278 3.17889 15.8048L6.16425 15.505Z" fill="black"/>
<path d="M8.49432 6.16418C7.1914 6.29543 6.29553 7.19127 6.16425 8.49426L3.17889 8.19446C3.4528 5.47171 5.47175 3.4527 8.19452 3.17883L8.49432 6.16418Z" fill="black"/>
<path d="M15.1789 6.16418C16.4818 6.29543 17.3777 7.19127 17.509 8.49426L20.4943 8.19446C20.2204 5.47171 18.2015 3.4527 15.4787 3.17883L15.1789 6.16418Z" fill="black"/>
<path d="M17.509 15.505C17.3778 16.8087 16.4815 17.7049 15.1789 17.8361L15.4787 20.8214C18.2016 20.5475 20.2206 18.5278 20.4943 15.8048L17.509 15.505Z" fill="black"/>
<path d="M15 12C15 13.6569 13.6569 15 12 15C10.3431 15 9 13.6569 9 12C9 10.3432 10.3431 9.00001 12 9.00001C13.6569 9.00001 15 10.3432 15 12Z" fill="black"/>
</svg>
