<svg width="24" height="25" viewBox="0 0 24 25" fill="none" xmlns="http://www.w3.org/2000/svg">
<path d="M4 17.3572C4.82843 17.3572 5.5 18.0288 5.5 18.8572V19.3572H6C6.82843 19.3572 7.5 20.0288 7.5 20.8572C7.5 21.6856 6.82843 22.3572 6 22.3572H5C3.61929 22.3572 2.5 21.2379 2.5 19.8572V18.8572C2.5 18.0288 3.17157 17.3572 4 17.3572Z" fill="black"/>
<path d="M13 19.3572C13.8284 19.3572 14.5 20.0288 14.5 20.8572C14.5 21.6856 13.8284 22.3572 13 22.3572H11C10.1716 22.3572 9.5 21.6856 9.5 20.8572C9.5 20.0288 10.1716 19.3572 11 19.3572H13Z" fill="black"/>
<path d="M20 17.3572C20.8284 17.3572 21.5 18.0288 21.5 18.8572V19.8572C21.5 21.2379 20.3807 22.3572 19 22.3572H18C17.1716 22.3572 16.5 21.6856 16.5 20.8572C16.5 20.0288 17.1716 19.3572 18 19.3572H18.5V18.8572C18.5 18.0288 19.1716 17.3572 20 17.3572Z" fill="black"/>
<path d="M4 10.3572C4.82843 10.3572 5.5 11.0288 5.5 11.8572V13.8572C5.5 14.6856 4.82843 15.3572 4 15.3572C3.17157 15.3572 2.5 14.6856 2.5 13.8572V11.8572C2.5 11.0288 3.17157 10.3572 4 10.3572Z" fill="black"/>
<path d="M20 10.3572C20.8284 10.3572 21.5 11.0288 21.5 11.8572V13.8572C21.5 14.6856 20.8284 15.3572 20 15.3572C19.1716 15.3572 18.5 14.6856 18.5 13.8572V11.8572C18.5 11.0288 19.1716 10.3572 20 10.3572Z" fill="black"/>
<path d="M6 3.35718C6.82843 3.35718 7.5 4.02875 7.5 4.85718C7.5 5.6856 6.82843 6.35718 6 6.35718H5.5V6.85718C5.5 7.6856 4.82843 8.35718 4 8.35718C3.17157 8.35718 2.5 7.6856 2.5 6.85718V5.85718C2.5 4.47647 3.61929 3.35718 5 3.35718H6Z" fill="black"/>
<path d="M19 3.35718C20.3807 3.35718 21.5 4.47647 21.5 5.85718V6.85718C21.5 7.6856 20.8284 8.35718 20 8.35718C19.1716 8.35718 18.5 7.6856 18.5 6.85718V6.35718H18C17.1716 6.35718 16.5 5.6856 16.5 4.85718C16.5 4.02875 17.1716 3.35718 18 3.35718H19Z" fill="black"/>
<path d="M13 3.35718C13.8284 3.35718 14.5 4.02875 14.5 4.85718C14.5 5.6856 13.8284 6.35718 13 6.35718H11C10.1716 6.35718 9.5 5.6856 9.5 4.85718C9.5 4.02875 10.1716 3.35718 11 3.35718H13Z" fill="black"/>
</svg>
