<svg width="24" height="24" viewBox="0 0 24 24" fill="#000">
<path d="M20.4141 10.5147C20.789 10.889 21.0003 11.4314 21.0004 12C21.0003 12.5687 20.7898 13.1117 20.4148 13.486C20.0398 13.8617 19.5302 14.0388 18.9999 14.0005C18.8836 13.9922 18.7669 13.9839 18.6505 13.9756C16.9723 13.8557 15.2935 13.7351 13.6152 13.6152C13.7351 15.2935 13.8557 16.9723 13.9756 18.6505C13.9839 18.7669 13.9922 18.8836 14.0005 18.9999C14.0388 19.5302 13.8616 20.0398 13.486 20.4148C13.1117 20.7898 12.5686 21.0003 12 21.0004C11.4314 21.0003 10.889 20.789 10.5147 20.4141C10.1392 20.0392 9.96198 19.5308 10.0002 19.0006C10.0085 18.8841 10.0174 18.767 10.0258 18.6505C10.1456 16.972 10.2657 15.2931 10.3855 13.6145C8.70694 13.7342 7.02799 13.8543 5.34946 13.9742C5.23295 13.9826 5.11586 13.9915 4.99936 13.9998C4.46924 14.038 3.96074 13.8608 3.58584 13.4853C3.21104 13.111 2.99965 12.5686 2.99957 12C2.99965 11.4313 3.21022 10.8883 3.58515 10.514C3.96013 10.1383 4.46975 9.96121 5.00005 9.99952C5.1164 10.0078 5.23311 10.0161 5.34946 10.0244C7.02744 10.1442 8.70605 10.2642 10.3841 10.3841C10.2642 8.70605 10.1442 7.02744 10.0244 5.34946C10.0161 5.23311 10.0078 5.1164 9.99952 5.00005C9.9612 4.46974 10.1383 3.96014 10.514 3.58515C10.8883 3.21023 11.4313 2.99965 12 2.99957C12.5686 2.99965 13.111 3.21104 13.4853 3.58584C13.8608 3.96074 14.038 4.46924 13.9998 4.99936C13.9915 5.11586 13.9826 5.23295 13.9742 5.34946C13.8544 7.02775 13.7349 8.70649 13.6152 10.3848C15.2935 10.2651 16.9722 10.1456 18.6505 10.0258C18.767 10.0174 18.8841 10.0085 19.0006 10.0002C19.5307 9.96198 20.0392 10.1392 20.4141 10.5147Z" />
</svg>
