<svg width="24" height="24" viewBox="0 0 24 24" fill="none" xmlns="http://www.w3.org/2000/svg">
<path fill-rule="evenodd" clip-rule="evenodd" d="M11.9824 7.01706C11.4647 7.01706 11.0385 7.41125 10.9873 7.9155L10.9824 8.01706V11.0005H8C7.44772 11.0005 7 11.4482 7 12.0005C7.00024 12.5525 7.44787 13.0005 8 13.0005H10.9824V15.9819C10.9824 16.5342 11.4301 16.9819 11.9824 16.9819C12.5346 16.9818 12.9824 16.5341 12.9824 15.9819V13.0005H15.9648L16.0664 12.9956C16.5707 12.9445 16.9646 12.5181 16.9648 12.0005C16.9648 11.4826 16.5708 11.0564 16.0664 11.0053L15.9648 11.0005H12.9824V8.01706L12.9775 7.9155C12.9263 7.41129 12.5001 7.01715 11.9824 7.01706Z" fill="black"/>
<path fill-rule="evenodd" clip-rule="evenodd" d="M12 22C6.47715 22 2 17.5228 2 12C2 6.47715 6.47715 2 12 2C17.5228 2 22 6.47715 22 12C22 17.5228 17.5228 22 12 22ZM12 4C16.4183 4 20 7.58172 20 12C20 16.4183 16.4183 20 12 20C7.58172 20 4 16.4183 4 12C4 7.58172 7.58172 4 12 4Z" fill="black"/>
</svg>