<svg width="24" height="24" viewBox="0 0 24 24" fill="none" xmlns="http://www.w3.org/2000/svg">
<path d="M9.00683 3.01079C9.61243 3.06116 10.239 3.28017 10.8408 3.58989C12.0484 4.21134 13.3411 5.29645 14.4766 6.6729C15.3482 7.72967 15.9559 8.81594 16.3564 9.7979C16.5627 9.45448 16.7712 9.14393 16.9814 8.87114C17.3373 8.4095 17.7313 8.00619 18.1553 7.74028C18.5436 7.49685 19.0936 7.28975 19.6826 7.45805L19.8008 7.49712L19.9277 7.55083C20.5391 7.84137 20.7835 8.45841 20.8857 8.88579C21.0063 9.38957 21.0223 9.99066 20.9766 10.6153C20.884 11.879 20.5211 13.4781 19.9297 15.1309C19.3384 16.7835 18.6056 18.2465 17.877 19.2764C17.517 19.7852 17.123 20.2373 16.709 20.5469C16.3328 20.8282 15.6908 21.1705 14.9795 20.9073C14.5881 20.7624 14.3367 20.4768 14.1846 20.2129C14.0355 19.9543 13.9517 19.6677 13.9014 19.4014C13.8006 18.8686 13.7999 18.2237 13.8594 17.5498C13.9165 16.9026 14.0341 16.178 14.2051 15.418C14.1903 15.4224 14.176 15.4283 14.1611 15.4327C12.8545 15.8167 11.1378 15.9896 9.33398 15.6661C7.59099 15.3534 6.01935 14.7568 4.88672 14.004C4.32183 13.6284 3.82501 13.1865 3.48242 12.6827C3.13658 12.1739 2.91358 11.5439 3.03223 10.8594C3.15116 10.1737 3.57476 9.65606 4.07422 9.29594C4.56788 8.94015 5.18503 8.69756 5.84277 8.54106C6.15175 8.46755 6.48063 8.41043 6.82519 8.37016C6.68591 7.9926 6.57437 7.62118 6.49219 7.26176C6.3319 6.56075 6.27275 5.86682 6.35547 5.24419C6.43695 4.63109 6.67267 3.98449 7.20019 3.53422C7.733 3.0796 8.3938 2.95984 9.00683 3.01079ZM18.9805 9.62602C18.8622 9.73726 18.7218 9.88899 18.5654 10.0918C18.0399 10.7736 17.4512 11.8586 16.9238 13.2793C16.9015 13.3612 16.8744 13.4484 16.834 13.5352C16.8191 13.5813 16.8026 13.6259 16.7842 13.669C16.2726 15.1399 15.9504 16.6054 15.8516 17.7256C15.8193 18.0915 15.815 18.3994 15.8271 18.6465C15.9511 18.5099 16.0917 18.3366 16.2441 18.1211C16.8406 17.278 17.4976 15.9894 18.0459 14.4571C18.5941 12.925 18.9054 11.5075 18.9814 10.4698C19.007 10.1208 19.0009 9.8401 18.9805 9.62602ZM7.76953 10.3067C7.22249 10.3254 6.72782 10.3859 6.30566 10.4864C5.80741 10.6049 5.45794 10.7641 5.24316 10.919C5.03443 11.0696 5.00784 11.1729 5.00293 11.2012C4.99782 11.2307 4.9886 11.3408 5.13672 11.5586C5.28822 11.7813 5.56516 12.0528 5.99414 12.3379C6.84973 12.9067 8.14901 13.4214 9.6875 13.6973C10.2831 13.8041 10.8663 13.8412 11.418 13.8311C10.4742 13.3505 9.54031 12.6381 8.73926 11.667C8.37671 11.2275 8.05303 10.7702 7.76953 10.3067ZM10.3965 10.5274C11.3115 11.581 12.4049 12.1935 13.3623 12.4541C13.862 12.5902 14.3031 12.6251 14.6465 12.5918C14.6783 12.5888 14.7082 12.5812 14.7373 12.5772C14.579 12.3661 14.3162 12.1144 13.9238 11.8536C13.0992 11.3055 11.8622 10.8098 10.3965 10.5274ZM8.84082 5.00395C8.58841 4.983 8.51126 5.04443 8.49805 5.05571C8.47904 5.07208 8.38179 5.17753 8.33789 5.50786C8.2952 5.82961 8.31864 6.27422 8.44238 6.81547C8.5502 7.28704 8.73106 7.8012 8.97851 8.3311C9.50126 8.36584 10.0397 8.42781 10.584 8.52544C11.8774 8.75744 13.076 9.14703 14.0713 9.63969C13.7758 9.08961 13.4023 8.5136 12.9336 7.94536C11.9272 6.7253 10.8376 5.83745 9.92578 5.36821C9.46804 5.13264 9.10081 5.02556 8.84082 5.00395Z" fill="black"/>
</svg>
