<svg width="24" height="24" viewBox="0 0 24 24" fill="none" xmlns="http://www.w3.org/2000/svg">
<path d="M12.0002 3.00012C13.4833 3.00013 14.7483 3.07262 15.8049 3.17883C18.5278 3.45259 20.5476 5.47159 20.8215 8.19446C20.8548 8.5256 20.8819 8.87775 20.9074 9.25012L20.8351 9.21985L20.7189 9.18176C20.1433 9.01753 19.6089 9.22131 19.2375 9.45422C18.8314 9.7089 18.4572 10.0927 18.1213 10.5284C17.944 10.7584 17.7671 11.0161 17.593 11.299C17.2152 10.4032 16.6581 9.42107 15.8703 8.46594C14.8019 7.17081 13.5838 6.1471 12.4426 5.55969C11.874 5.26707 11.2778 5.05905 10.6994 5.01086C10.1135 4.96218 9.47583 5.07593 8.96014 5.51575C8.44968 5.95145 8.22423 6.57475 8.14667 7.15833C8.06791 7.75131 8.12424 8.40939 8.27557 9.07141C8.34788 9.38762 8.44464 9.7139 8.56366 10.045C8.26667 10.0824 7.98173 10.1325 7.71307 10.1964C7.09135 10.3444 6.50395 10.5752 6.03241 10.9152C5.55529 11.2593 5.14648 11.7569 5.03143 12.42C4.91665 13.0823 5.13255 13.6898 5.46307 14.1759C5.79024 14.6569 6.26329 15.076 6.79706 15.4308C7.8675 16.1423 9.34918 16.7049 10.9894 16.9991C12.6639 17.2994 14.2586 17.1437 15.4846 16.7931C15.336 17.4708 15.2321 18.1167 15.1808 18.6974C15.1249 19.3317 15.1249 19.9428 15.2209 20.4503C15.2462 20.5839 15.2812 20.7234 15.3293 20.8624C14.3746 20.9441 13.2671 21.0001 12.0002 21.0001C10.5169 21.0001 9.25124 20.9277 8.19452 20.8214C5.47162 20.5475 3.45265 18.5278 3.17889 15.8048C3.07268 14.7482 3.00019 13.4832 3.00018 12.0001C3.00018 10.5168 3.07266 9.25118 3.17889 8.19446C3.4528 5.47171 5.47175 3.4527 8.19452 3.17883C9.25124 3.07259 10.5169 3.00012 12.0002 3.00012Z" fill="black"/>
<path d="M19.9943 11.4132C20.0034 11.5888 20.0024 11.8044 19.9836 12.0607C19.9128 13.0265 19.6222 14.3497 19.1096 15.7823C18.5969 17.2152 17.983 18.4176 17.4279 19.2023C17.3272 19.3447 17.2308 19.4655 17.1437 19.5695C17.1412 19.372 17.1495 19.1395 17.173 18.8732C17.2649 17.8322 17.5636 16.4685 18.0392 15.0978C18.0587 15.053 18.0764 15.0065 18.092 14.9581C18.1304 14.8743 18.1567 14.7904 18.1779 14.712C18.67 13.3885 19.2186 12.3805 19.7053 11.7491C19.8105 11.6127 19.9082 11.5026 19.9943 11.4132Z" fill="black"/>
<path d="M9.50018 11.9757C9.76295 12.4022 10.0611 12.8232 10.3947 13.2277C11.0882 14.0683 11.8878 14.7041 12.7033 15.1544C12.2652 15.1494 11.8079 15.1138 11.343 15.0304C9.90717 14.7729 8.69793 14.2921 7.90448 13.7648C7.50648 13.5002 7.25344 13.2509 7.11737 13.0509C6.98549 12.8569 6.99977 12.7699 7.00116 12.7618C7.0022 12.7559 7.01554 12.672 7.20233 12.5372C7.39492 12.3984 7.71415 12.2526 8.17596 12.1427C8.55807 12.0518 9.0056 11.9946 9.50018 11.9757Z" fill="black"/>
<path d="M12.1691 12.2189C13.4558 12.4875 14.5386 12.9299 15.2687 13.4152C15.5802 13.6222 15.8022 13.8212 15.9494 13.9933C15.6398 14.0195 15.243 13.9878 14.7932 13.8654C13.9507 13.6359 12.9918 13.1112 12.1691 12.2189Z" fill="black"/>
<path d="M10.5334 7.00403C10.7663 7.02344 11.1031 7.11957 11.5275 7.33801C12.373 7.77324 13.388 8.59972 14.3273 9.7384C14.7166 10.2103 15.0343 10.6888 15.2941 11.1495C14.3909 10.7246 13.3264 10.3868 12.1838 10.1818C11.6842 10.0922 11.1892 10.0335 10.7082 10.0001C10.4863 9.51935 10.3235 9.05357 10.2258 8.6261C10.1109 8.12364 10.0903 7.71427 10.1291 7.422C10.1692 7.12008 10.258 7.03723 10.258 7.03723C10.2619 7.03391 10.2742 7.02407 10.3098 7.01477C10.3495 7.0044 10.4212 6.99471 10.5334 7.00403Z" fill="black"/>
</svg>
