<svg width="24" height="25" viewBox="0 0 24 25" fill="none" xmlns="http://www.w3.org/2000/svg">
<path d="M12.114 11.8005C13.5315 9.08835 16.9246 7.87965 19.9558 9.07L20.447 9.26629H20.4344C20.8822 9.44422 21.1158 9.9286 20.9441 10.3581L20.6433 11.0944C19.6984 13.4077 17.5016 14.9851 14.949 15.2429C14.9445 15.2433 14.7 15.2676 14.323 15.2858H14.0896C14.2613 15.4453 14.4212 15.6165 14.5623 15.8005C15.5072 17.0093 15.7408 18.5871 15.1824 19.9616L15.0291 20.3356C14.845 20.8019 14.2926 21.0286 13.7957 20.8386L13.4148 20.6911C11.7767 20.0468 10.6661 18.5745 10.531 16.9118C10.531 16.9118 10.2734 14.8684 12.114 11.8005Z" fill="black"/>
<path d="M5.8865 4.16082C6.06445 3.73744 6.57361 3.54748 7.01541 3.74383L7.49978 3.95184C10.4942 5.23428 12.0531 8.48099 11.1511 11.4079C10.3043 14.8867 8.67849 16.1511 8.67849 16.1511C7.4206 17.2371 5.58521 17.5007 3.97146 16.8073L3.59744 16.6481H3.59158C3.10685 16.4334 2.87378 15.8869 3.07009 15.4206L3.22341 15.0466C3.79405 13.6721 5.07017 12.7205 6.58572 12.5241C6.81874 12.4934 7.05192 12.4809 7.28494 12.487L7.1199 12.322C6.8676 12.0456 6.70945 11.8571 6.70291 11.8493C5.07071 9.86735 4.6165 7.20431 5.57986 4.89715L5.8865 4.16082Z" fill="black"/>
</svg>
