<svg width="24" height="24" viewBox="0 0 24 24" fill="none" xmlns="http://www.w3.org/2000/svg">
<path d="M16.1455 6.34766H18.7363C19.9863 6.34785 20.9999 7.36133 21 8.61133C21 9.8614 20.888 10.912 19.638 10.9122H19.4017C18.021 10.9122 16.9018 12.0315 16.9017 13.4122V14.4122C16.9017 15.7929 18.021 16.9122 19.4017 16.9122C20.7822 16.9124 20.9999 17.9945 21 19.375V19.4375C21 20.8526 19.8526 21.9998 18.4375 22H17.625C16.2443 22 15.1146 21.1366 15.1146 19.7559C15.1145 18.3753 13.9951 17.2561 12.6146 17.2559H11.6146C10.2339 17.2559 9.11468 18.3752 9.11459 19.7559V20.0117C9.11459 21.251 8.1201 21.9998 6.88086 22C5.64145 22 4.63672 20.9953 4.63672 19.7559V16.6934C4.63672 15.6891 3.82261 14.875 2.81836 14.875C1.81411 14.875 1 14.0609 1 13.0566V11.7618C1 10.7197 1.84475 9.875 2.88679 9.875C4.03416 9.85446 4.58433 9.36617 4.6195 8.46694C4.6195 7.22753 5.62423 6.2228 6.86364 6.2228C8.12352 6.25413 8.97454 5.70718 8.90918 4.14025C8.90918 2.88919 9.92337 1.875 11.1744 1.875H11.6729C12.9079 1.875 13.9092 2.87624 13.9092 4.11133C13.9092 5.34642 14.9104 6.34766 16.1455 6.34766Z" fill="black"/>
</svg>