<svg width="24" height="24" viewBox="0 0 24 24" fill="#000">
<path fill-rule="evenodd" clip-rule="evenodd" d="M10 3C13.866 3 17 6.13401 17 10C17 11.591 16.4674 13.0568 15.5732 14.2324L19.6514 17.7803C20.9315 18.8943 20.1433 21 18.4463 21C17.8908 20.9999 17.3649 20.7481 17.0166 20.3154L13.5625 16.0244C12.5187 16.643 11.3013 17 10 17C6.13401 17 3 13.866 3 10C3 6.13401 6.13401 3 10 3ZM10 6C7.79086 6 6 7.79086 6 10C6 12.2091 7.79086 14 10 14C12.2091 14 14 12.2091 14 10C14 7.79086 12.2091 6 10 6Z" />
</svg>
