<svg width="24" height="24" viewBox="0 0 24 24" >
<path fill-rule="evenodd" clip-rule="evenodd" d="M13.011 2C14.0073 2.00022 14.727 2.95402 14.4533 3.91211L14.0539 5.30664C15.0779 5.6205 16.0012 6.16361 16.7658 6.875L17.7776 5.83105C18.4705 5.11512 19.6563 5.26111 20.1545 6.12402L21.1662 7.87598C21.6641 8.73888 21.1971 9.83891 20.2307 10.0811L18.8215 10.4336C18.9367 10.9374 19.0002 11.4613 19.0002 12C19.0002 12.5384 18.9366 13.062 18.8215 13.5654L20.2307 13.9189C21.1971 14.1611 21.6641 15.2611 21.1662 16.124L20.1545 17.876C19.6563 18.7389 18.4705 18.8848 17.7776 18.1689L16.7658 17.124C16.0012 17.8356 15.078 18.3784 14.0539 18.6924L14.4533 20.0879C14.727 21.046 14.0073 21.9998 13.011 22H10.9885C9.99195 22 9.27235 21.0461 9.54612 20.0879L9.94455 18.6924C8.92065 18.3783 7.99716 17.8356 7.23264 17.124L6.22287 18.1689C5.52996 18.8851 4.34328 18.7389 3.84494 17.876L2.8342 16.124C2.33592 15.261 2.80204 14.161 3.76877 13.9189L5.17698 13.5654C5.06196 13.062 5.00022 12.5383 5.00022 12C5.00022 11.4614 5.06182 10.9373 5.17698 10.4336L3.76877 10.0811C2.80204 9.83904 2.33592 8.73903 2.8342 7.87598L3.84494 6.12402C4.34328 5.2611 5.52996 5.11488 6.22287 5.83105L7.23264 6.875C7.99714 6.16356 8.92076 5.62065 9.94455 5.30664L9.54612 3.91211C9.27235 2.9539 9.99195 2.00002 10.9885 2H13.011ZM12.0002 9C10.3434 9 9.00022 10.3431 9.00022 12C9.00022 13.6569 10.3434 15 12.0002 15C13.657 14.9999 15.0002 13.6568 15.0002 12C15.0002 10.3432 13.657 9.00012 12.0002 9Z" />
</svg>
