<svg width="24" height="24" viewBox="0 0 24 24" fill="none" xmlns="http://www.w3.org/2000/svg">
<rect width="24" height="24" fill="white"/>
<path fill-rule="evenodd" clip-rule="evenodd" d="M12 3C13.8591 3 14.7887 3.00028 15.5576 3.17578C18.1791 3.77412 20.2259 5.82094 20.8242 8.44238C20.9997 9.21132 21 10.1409 21 12C21 13.8591 20.9997 14.7887 20.8242 15.5576C20.2259 18.1791 18.1791 20.2259 15.5576 20.8242C14.7887 20.9997 13.8591 21 12 21C10.3729 21 9.45779 21.0005 8.73926 20.8828L8.44238 20.8242C5.90283 20.2446 3.90186 18.3057 3.23535 15.8018L3.17578 15.5576C3.00028 14.7887 3 13.8591 3 12C3 10.3729 2.99955 9.45779 3.11719 8.73926L3.17578 8.44238C3.75543 5.90283 5.69428 3.90186 8.19824 3.23535L8.44238 3.17578C9.21132 3.00028 10.1409 3 12 3ZM12 5C11.0897 5 10.4613 5.0036 10 5.01758V18.9814C10.4613 18.9954 11.0896 19 12 19C13.9685 19 14.6185 18.9876 15.1123 18.875C16.9848 18.4476 18.4476 16.9848 18.875 15.1123C18.9876 14.6185 19 13.9685 19 12C19 10.0315 18.9876 9.38151 18.875 8.8877C18.4476 7.01522 16.9848 5.55238 15.1123 5.125C14.6185 5.01236 13.9685 5 12 5ZM8.8877 18.875C8.89315 18.8762 8.8988 18.8767 8.9043 18.8779C8.89319 18.8754 8.88217 18.8727 8.87109 18.8701C8.8767 18.8714 8.88208 18.8737 8.8877 18.875ZM5.125 15.1123C5.12619 15.1175 5.1277 15.1227 5.12891 15.1279C5.12635 15.1169 5.12357 15.1058 5.12109 15.0947C5.1224 15.1006 5.12367 15.1065 5.125 15.1123Z" fill="black"/>
</svg>