<svg width="24" height="24" viewBox="0 0 24 24" fill="none" xmlns="http://www.w3.org/2000/svg">
<path fill-rule="evenodd" clip-rule="evenodd" d="M14.3604 3.00879C18.0589 3.19633 21 6.25486 21 10V14L20.9912 14.3604C20.8097 17.9395 17.9395 20.8097 14.3604 20.9912L14 21H10C6.25486 21 3.19633 18.0589 3.00879 14.3604L3 14V10C3 6.13401 6.13401 3 10 3H14L14.3604 3.00879ZM10 19H14C16.7614 19 19 16.7614 19 14V10C19 7.23858 16.7614 5 14 5H10V19ZM8 5.41602C6.23409 6.18757 5 7.94968 5 10V14C5 16.0502 6.23428 17.8114 8 18.583V5.41602Z" fill="black"/>
</svg>