<svg width="24" height="25" viewBox="0 0 24 25" fill="none" xmlns="http://www.w3.org/2000/svg">
<path fill-rule="evenodd" clip-rule="evenodd" d="M12 2.28577C14.3988 2.28588 16.6007 3.13552 18.3232 4.54651L18.3604 4.51038L19.7744 5.92542L19.7373 5.96155C20.7301 7.1769 21.4443 8.63069 21.7812 10.2252L21.7822 10.2262C21.7835 10.2323 21.7839 10.2386 21.7852 10.2448L21.7939 10.2819L21.7949 10.2955C21.9274 10.9458 22 11.6193 22 12.3102C22 16.5989 19.3118 20.2535 15.5332 21.6852L15.5469 21.736L13.6162 22.2535L13.6025 22.2037C13.0806 22.2885 12.5448 22.3336 11.999 22.3336C10.9166 22.3336 9.87398 22.159 8.89746 21.8395C8.88533 21.8355 8.87344 21.8318 8.86133 21.8278L8.84277 21.8219L8.83789 21.819C4.86571 20.4921 2.00004 16.7386 2 12.3102C2.00001 11.7527 2.04597 11.2059 2.13379 10.6735L2.08691 10.6608L2.34473 9.69983L2.3457 9.69592L2.60547 8.72815L2.65527 8.74182C3.22563 7.24109 4.14331 5.91335 5.31152 4.85901L5.35547 4.81995L5.36719 4.81018C7.13109 3.24166 9.45515 2.28586 12 2.28577ZM8.50391 16.902C8.49346 17.1686 8.48649 17.4281 8.49023 17.6979C8.499 18.3261 8.57144 18.7919 8.73438 19.1461C8.87388 19.4491 9.10504 19.7225 9.55957 19.9469C9.56607 19.9501 9.57251 19.9535 9.5791 19.9567C10.3428 20.2 11.1547 20.3336 11.999 20.3336C12.3853 20.3336 12.7653 20.305 13.1367 20.2516L13.1357 20.2496C13.1321 20.2275 13.1304 20.2052 13.127 20.1832C13.1072 20.0587 13.0904 19.936 13.0762 19.8151C13.071 19.7705 13.066 19.7263 13.0615 19.6823C13.0487 19.5569 13.0381 19.4336 13.0312 19.3121C13.0286 19.2647 13.0281 19.2174 13.0264 19.1705C13.0222 19.0592 13.0196 18.9495 13.0205 18.8414C13.0207 18.8251 13.0202 18.8088 13.0205 18.7926C13.0249 18.513 13.0457 18.2437 13.084 17.985C12.7329 18.0523 12.37 18.0895 11.999 18.0895C10.6822 18.0893 9.472 17.6454 8.50391 16.902ZM12 8.53088C9.92246 8.53088 8.23362 10.2205 8.2334 12.3102C8.23342 12.6049 8.27178 12.8975 8.34082 13.1881L8.34277 13.1959C8.74171 14.8585 10.2289 16.0892 11.999 16.0895C13.005 16.0895 13.9167 15.6914 14.5957 15.0416L14.5977 15.0406C14.6221 15.0172 14.6489 14.9934 14.6592 14.984C14.6709 14.9732 14.6758 14.9684 14.6758 14.9684C15.3504 14.2843 15.7656 13.3469 15.7656 12.3102C15.7656 10.6204 14.6604 9.18913 13.1357 8.70569L13.127 8.70374L13.124 8.70276C13.1184 8.70133 13.1018 8.6973 13.0889 8.69397C13.0741 8.69018 13.0541 8.68461 13.0322 8.67834C12.6987 8.5831 12.3532 8.53091 12 8.53088ZM18.1475 7.45178C18.0993 7.49006 18.0519 7.5284 18.0039 7.56506C17.9473 7.60827 17.8905 7.65006 17.834 7.69104C17.7405 7.75885 17.6479 7.82458 17.5547 7.88635C17.5214 7.90837 17.4873 7.92857 17.4541 7.94983C17.3788 7.99805 17.3036 8.04416 17.2285 8.0885C17.1805 8.11681 17.1329 8.14476 17.085 8.17151C16.9943 8.22211 16.9039 8.27001 16.8135 8.31506C16.7657 8.33885 16.7177 8.36116 16.6699 8.38342C16.6132 8.40987 16.5566 8.43529 16.5 8.45959C16.4506 8.48078 16.4019 8.50253 16.3525 8.52209C17.2323 9.53633 17.7656 10.8604 17.7656 12.3102C17.7656 12.5573 17.7479 12.8007 17.7178 13.0397C17.9726 12.9047 18.2153 12.7734 18.4551 12.6276C18.6504 12.5087 18.822 12.3931 18.9717 12.2789C19.1713 12.1265 19.332 11.9763 19.457 11.8219C19.4882 11.7834 19.5171 11.7447 19.5439 11.7057C19.6151 11.6021 19.6761 11.4887 19.7227 11.36C19.7987 11.1487 19.835 10.8958 19.8105 10.5758C19.547 9.3763 19.0156 8.278 18.2822 7.34534C18.2377 7.38206 18.1919 7.41645 18.1475 7.45178ZM7.57129 6.05823C7.49012 6.05813 7.4073 6.06424 7.32227 6.07874C7.11653 6.11389 6.89811 6.19801 6.65625 6.35413C6.63662 6.36679 6.61661 6.37954 6.59668 6.39319C5.72141 7.19784 5.027 8.19518 4.57715 9.31702C4.60183 9.32636 4.62597 9.33684 4.65039 9.34631C4.76522 9.39082 4.87722 9.43661 4.98633 9.48401C5.02221 9.49959 5.0575 9.51597 5.09277 9.53186C5.21342 9.58624 5.33076 9.64183 5.44434 9.69983C5.47838 9.71719 5.5115 9.73585 5.54492 9.75354C5.6283 9.79772 5.70954 9.84311 5.78906 9.88928C5.82638 9.91092 5.86391 9.93166 5.90039 9.95374C5.99505 10.0111 6.08668 10.0702 6.17578 10.1305C6.22045 10.1607 6.26432 10.1913 6.30762 10.2223C6.39234 10.2829 6.47515 10.3445 6.55469 10.4078C7.09271 8.86115 8.26711 7.61285 9.76562 6.98108C9.65632 6.91231 9.54823 6.84475 9.43945 6.77893C9.3215 6.70788 9.20273 6.63818 9.08008 6.56995C8.94399 6.49424 8.81484 6.42662 8.69141 6.3678C8.62986 6.33846 8.56947 6.3119 8.51074 6.28674C8.21631 6.16067 7.95602 6.0868 7.71582 6.06506C7.67323 6.06123 7.6303 6.05872 7.58691 6.05823C7.58171 6.05817 7.5765 6.05823 7.57129 6.05823Z" fill="black"/>
</svg>
