<svg width="24" height="24" viewBox="0 0 24 24" fill="none" xmlns="http://www.w3.org/2000/svg">
<path d="M12.6468 16.8589C11.56 19.0445 11.0166 20.1373 10.2354 20.4022C9.8188 20.5435 9.36724 20.5435 8.95064 20.4022C8.16948 20.1373 7.62607 19.0445 6.53925 16.8589C5.38268 16.6575 4.8044 16.5569 4.66322 16.5099C2.77517 15.8825 2.86171 13.1828 4.78608 12.6776C4.92997 12.6398 5.4664 12.5815 6.53925 12.4649C7.60286 10.2132 8.13467 9.08735 8.90409 8.80503C9.34888 8.64183 9.83716 8.64183 10.2819 8.80503C11.0514 9.08735 11.5832 10.2132 12.6468 12.4649C13.8235 12.5794 14.4118 12.6367 14.5561 12.6728C16.5154 13.1637 16.5948 15.9188 14.667 16.5217C14.5251 16.5661 13.899 16.6637 12.6468 16.8589Z" fill="black"/>
<path d="M14.294 9.11395L14.0434 8.97309C13.0998 8.44293 12.628 8.17785 12.4953 7.86028C12.3686 7.55716 12.3988 7.21115 12.5763 6.93464C12.7621 6.64495 13.2728 6.46582 14.294 6.10755C15.0622 4.67727 15.4462 3.96213 15.9765 3.76466C16.3142 3.63891 16.6858 3.63891 17.0235 3.76466C17.5538 3.96213 17.9378 4.67727 18.7059 6.10755C19.7272 6.46582 20.2379 6.64495 20.4237 6.93464C20.6011 7.21115 20.6314 7.55716 20.5047 7.86028C20.372 8.17785 19.9002 8.44293 18.9566 8.97309L18.7059 9.11396C17.9167 10.5043 17.5221 11.1995 16.9801 11.3826C16.6687 11.4878 16.3313 11.4878 16.0199 11.3826C15.4779 11.1995 15.0833 10.5043 14.294 9.11395Z" fill="black"/>
</svg>
