<svg width="24" height="24" viewBox="0 0 24 24" fill="#000">
<path d="M7.82032 8.83999L6.25654 14.0434L12 17.68L17.7435 14.0434L16.1797 8.83999H7.82032Z" />
<path d="M12 17.68C14.7225 20.2309 16.0837 21.5063 17.0809 21.3186C17.4986 21.2399 17.8805 21.0302 18.171 20.7198C18.8643 19.979 18.5182 18.146 17.8259 14.48L17.7435 14.0434L12 17.68Z" />
<path d="M16.1797 8.83999L17.7435 14.0434C20.0495 12.9774 21.2026 12.4444 21.5049 12.0426C22.2419 11.0633 21.9327 9.65753 20.8528 9.07784C20.4098 8.83999 19.1395 8.83999 16.599 8.83999H16.1797Z" />
<path d="M7.82032 8.83999H16.1797L15.6162 7.64815C14.0498 4.33535 13.2667 2.67896 12 2.67896C10.7333 2.67896 9.95018 4.33535 8.38384 7.64815L7.82032 8.83999Z" />
<path d="M6.1741 14.48C5.48181 18.146 5.13567 19.979 5.829 20.7198C6.11951 21.0302 6.50136 21.2399 6.91915 21.3186C7.91626 21.5063 9.27751 20.2309 12 17.68L6.25654 14.0434L6.1741 14.48Z" />
<path d="M6.25654 14.0434L7.82032 8.83999H7.40101C4.86049 8.83999 3.59024 8.83999 3.14716 9.07784C2.0673 9.65753 1.7581 11.0633 2.49508 12.0426C2.79746 12.4444 3.95049 12.9774 6.25654 14.0434Z" />
</svg>
