<svg width="24" height="24" viewBox="0 0 24 24" >
<path d="M17.9999 14.743C17.9999 15.7474 18 16.2499 17.8544 16.7C17.7256 17.0982 17.5144 17.4652 17.2353 17.7771C16.9199 18.1296 16.4857 18.3834 15.6181 18.8894L14.2431 19.6912C13.4238 20.1692 13.0137 20.4087 12.5761 20.5115C12.1887 20.6025 11.786 20.6154 11.3935 20.5496C10.9503 20.4752 10.5259 20.2628 9.67768 19.8387L7.65327 18.8269C6.69016 18.3454 6.20823 18.1041 5.85639 17.7449C5.54536 17.4273 5.30897 17.0441 5.16401 16.6238C5.00013 16.1485 4.99995 15.6097 4.99995 14.533V12.9998L10.0165 15.5086C11.2501 16.1254 12.7147 16.0627 13.8915 15.3435L17.9999 12.8328V14.743Z" />
<path d="M10.5917 3.7039C11.4734 3.26306 12.5161 3.28354 13.3798 3.75859L20.9638 7.93046C21.6028 8.28197 21.9999 8.95313 21.9999 9.68242V15.9998C21.9999 16.5521 21.5522 16.9998 20.9999 16.9998C20.4477 16.9998 19.9999 16.5521 19.9999 15.9998V11.2098C19.9999 10.445 19.1763 9.96371 18.5097 10.3387L13.3876 13.2195C12.5197 13.7075 11.4657 13.7332 10.5751 13.2879L2.78901 9.39433C2.05196 9.02581 2.05196 7.97379 2.78901 7.60527L10.5917 3.7039Z" />
</svg>
