<svg width="24" height="25" viewBox="0 0 24 25" fill="none" xmlns="http://www.w3.org/2000/svg">
<path d="M15 12.8572C15 14.514 13.6569 15.8572 12 15.8572C10.3431 15.8572 9 14.514 9 12.8572C9 11.2003 10.3431 9.85718 12 9.85718C13.6569 9.85718 15 11.2003 15 12.8572Z" fill="black"/>
<path d="M11.9994 9.85732C13.6563 9.85732 14.9994 11.2005 14.9994 12.8573C14.9993 14.514 13.6562 15.8573 11.9994 15.8573C10.3429 15.8571 8.99959 14.5139 8.99943 12.8573C8.99943 11.2006 10.3428 9.85754 11.9994 9.85732Z" fill="black"/>
<path fill-rule="evenodd" clip-rule="evenodd" d="M12.224 2.71279C13.1976 2.82269 13.8745 3.93342 15.2279 6.1542C17.808 5.82774 19.0985 5.66373 19.7914 6.35635C19.8975 6.46241 19.9909 6.58086 20.0707 6.70791C20.5916 7.53758 20.1456 8.75872 19.2533 11.2011C21.1171 13.0146 22.0492 13.9219 21.9399 14.8954C21.9231 15.0444 21.8898 15.1914 21.8403 15.3329C21.5165 16.2576 20.283 16.6707 17.8168 17.496C17.561 20.084 17.4324 21.3779 16.6029 21.8993C16.4762 21.979 16.3409 22.0442 16.1996 22.0937C15.2748 22.4171 14.1824 21.7104 11.9994 20.2968C9.81658 21.7103 8.72506 22.4171 7.80021 22.0937C7.65874 22.0441 7.52282 21.9791 7.39592 21.8993C6.56669 21.3778 6.43883 20.0837 6.18303 17.496C3.71676 16.6707 2.48338 16.2576 2.15959 15.3329C2.11005 15.1914 2.07674 15.0444 2.05998 14.8954C1.95064 13.9218 2.88271 13.0146 4.7465 11.2011C3.8542 8.75861 3.40816 7.53759 3.92912 6.70791C4.00891 6.58086 4.10231 6.46241 4.20842 6.35635C4.9014 5.66383 6.19193 5.82775 8.77189 6.1542C10.1253 3.93342 10.8022 2.82269 11.7758 2.71279C11.9247 2.696 12.0751 2.69599 12.224 2.71279ZM11.9994 7.85732C9.23819 7.85754 6.99943 10.096 6.99943 12.8573C6.99959 15.6185 9.23829 17.8571 11.9994 17.8573C14.7608 17.8573 16.9993 15.6186 16.9994 12.8573C16.9994 10.0959 14.7609 7.85732 11.9994 7.85732Z" fill="black"/>
</svg>
