<svg width="24" height="24" viewBox="0 0 24 24" fill="#000">
<path d="M15 12C15 13.6569 13.6569 15 12 15C10.3431 15 9 13.6569 9 12C9 10.3431 10.3431 9 12 9C13.6569 9 15 10.3431 15 12Z" />
<path d="M11.9994 9.00021C13.6563 9.00021 14.9994 10.3434 14.9994 12.0002C14.9993 13.6569 13.6562 15.0002 11.9994 15.0002C10.3429 15 8.9996 13.6568 8.99944 12.0002C8.99944 10.3435 10.3428 9.00043 11.9994 9.00021Z" />
<path fill-rule="evenodd" clip-rule="evenodd" d="M12.224 1.85568C13.1977 1.96558 13.8745 3.0763 15.228 5.29708C17.808 4.97062 19.0985 4.80661 19.7914 5.49923C19.8975 5.6053 19.9909 5.72375 20.0707 5.85079C20.5916 6.68046 20.1456 7.90161 19.2533 10.344C21.1171 12.1575 22.0492 13.0647 21.9399 14.0383C21.9231 14.1873 21.8898 14.3343 21.8403 14.4758C21.5165 15.4005 20.283 15.8136 17.8168 16.6389C17.561 19.2268 17.4324 20.5208 16.603 21.0422C16.4762 21.1219 16.341 21.1871 16.1996 21.2365C15.2748 21.56 14.1824 20.8533 11.9994 19.4397C9.81658 20.8532 8.72507 21.5599 7.80022 21.2365C7.65874 21.187 7.52282 21.122 7.39592 21.0422C6.5667 20.5206 6.43884 19.2265 6.18303 16.6389C3.71677 15.8135 2.48339 15.4005 2.1596 14.4758C2.11005 14.3343 2.07675 14.1873 2.05999 14.0383C1.95065 13.0647 2.88272 12.1575 4.74651 10.344C3.85421 7.90149 3.40816 6.68047 3.92913 5.85079C4.00892 5.72375 4.10232 5.6053 4.20842 5.49923C4.90141 4.80671 6.19193 4.97063 8.7719 5.29708C10.1253 3.0763 10.8022 1.96558 11.7758 1.85568C11.9248 1.83889 12.0751 1.83887 12.224 1.85568ZM11.9994 7.00021C9.2382 7.00043 6.99944 9.23892 6.99944 12.0002C6.9996 14.7614 9.2383 17 11.9994 17.0002C14.7608 17.0002 16.9993 14.7615 16.9994 12.0002C16.9994 9.23878 14.7609 7.00021 11.9994 7.00021Z" />
</svg>
