<svg width="24" height="24" viewBox="0 0 24 24" fill="#000">
<path d="M15.228 7.29693C17.8084 6.9706 19.0986 6.80743 19.7915 7.50013C19.8976 7.60621 19.9915 7.7239 20.0712 7.85096C20.5923 8.68071 20.146 9.90207 19.2534 12.3448C19.442 12.5283 19.5363 12.62 19.5869 12.6775C20.6783 13.9155 19.8852 15.868 18.2396 15.9942C18.1633 16.0001 18.0317 16.0001 17.7686 16.0001H17.2925C17.1848 16.0001 17.1309 16.0001 17.1015 15.9957C16.8686 15.9608 16.735 15.7852 16.7636 15.5515C16.7672 15.522 16.7848 15.4585 16.8199 15.3316C16.9373 14.9077 17.0005 14.4613 17.0005 14.0001C17.0005 11.2388 14.7617 9.0003 12.0005 9.00006C9.23906 9.00006 7.00049 11.2386 7.00049 14.0001C7.00049 14.4612 7.06323 14.9076 7.18033 15.3315C7.21545 15.4586 7.23302 15.5222 7.23661 15.5517C7.26505 15.7855 7.13156 15.9608 6.89869 15.9957C6.86928 16.0001 6.81535 16.0001 6.7075 16.0001H6.23139C5.96827 16.0001 5.83672 16.0001 5.76035 15.9942C4.1148 15.868 3.32166 13.9155 4.41306 12.6775C4.46371 12.62 4.558 12.5283 4.74658 12.3448C3.854 9.90207 3.40772 8.68071 3.92876 7.85096C4.00855 7.7239 4.10238 7.60621 4.2085 7.50013C4.9014 6.80743 6.19159 6.9706 8.77197 7.29693C10.1255 5.07621 10.8023 3.96585 11.7758 3.8559C11.925 3.83904 12.0757 3.83905 12.225 3.85593C13.1984 3.96601 13.8749 5.07632 15.228 7.29693ZM12.0005 11.0001C13.6571 11.0003 15.0005 12.3434 15.0005 14.0001C15.0005 14.4174 14.9144 14.8143 14.7597 15.1748C14.6586 15.4102 14.6081 15.5279 14.2581 15.8296C13.908 16.1312 13.7031 16.1851 13.2931 16.2929C12.8781 16.4021 12.3957 16.5 12.0005 16.5C11.605 16.5 11.1223 16.4021 10.707 16.2929C10.2971 16.1851 10.0922 16.1312 9.74196 15.8292C9.39173 15.5272 9.34136 15.4097 9.24064 15.1745C9.08622 14.8141 9.0005 14.4173 9.00049 14.0001C9.00049 12.3432 10.3436 11.0001 12.0005 11.0001Z" />
<path d="M12 21C17.5 21 20 19.7826 20 19.7826C20 19.7826 21 19.3478 21 18.3913C21 17.2289 19.3862 17.2056 18.241 17.4045C16.9342 17.6315 14.8778 17.8696 12 17.8696C9.12223 17.8696 7.06577 17.6315 5.759 17.4045C4.61376 17.2056 3 17.2289 3 18.3913C3 19.3478 4 19.7826 4 19.7826C4 19.7826 6.5 21 12 21Z" />
</svg>
