<svg width="24" height="25" viewBox="0 0 24 25" fill="none" xmlns="http://www.w3.org/2000/svg">
<path d="M15.228 8.15411C17.8084 7.82777 19.0986 7.66461 19.7915 8.35731C19.8976 8.46339 19.9915 8.58107 20.0712 8.70814C20.5923 9.53789 20.146 10.7592 19.2534 13.202C19.442 13.3854 19.5363 13.4772 19.5869 13.5346C20.6783 14.7726 19.8852 16.7252 18.2396 16.8514C18.1633 16.8572 18.0317 16.8572 17.7686 16.8572H17.2925C17.1848 16.8572 17.1309 16.8572 17.1015 16.8528C16.8686 16.818 16.735 16.6424 16.7636 16.4087C16.7672 16.3791 16.7848 16.3157 16.8199 16.1888C16.9373 15.7649 17.0005 15.3185 17.0005 14.8572C17.0005 12.096 14.7617 9.85748 12.0005 9.85723C9.23906 9.85723 7.00049 12.0958 7.00049 14.8572C7.00049 15.3184 7.06323 15.7648 7.18033 16.1887C7.21545 16.3158 7.23302 16.3794 7.23661 16.4089C7.26505 16.6426 7.13156 16.818 6.89869 16.8528C6.86928 16.8572 6.81535 16.8572 6.7075 16.8572H6.23139C5.96827 16.8572 5.83672 16.8572 5.76035 16.8514C4.1148 16.7252 3.32166 14.7726 4.41306 13.5346C4.46371 13.4772 4.558 13.3854 4.74658 13.202C3.854 10.7592 3.40772 9.53789 3.92876 8.70814C4.00855 8.58107 4.10239 8.46339 4.2085 8.35731C4.90141 7.66461 6.19159 7.82777 8.77197 8.15411C10.1255 5.93339 10.8023 4.82303 11.7758 4.71308C11.925 4.69622 12.0757 4.69623 12.225 4.71311C13.1984 4.82319 13.8749 5.9335 15.228 8.15411ZM12.0005 11.8572C13.6571 11.8575 15.0005 13.2005 15.0005 14.8572C15.0005 15.2746 14.9144 15.6715 14.7597 16.032C14.6586 16.2674 14.6081 16.3851 14.2581 16.6867C13.908 16.9884 13.7031 17.0423 13.2931 17.1501C12.8781 17.2592 12.3957 17.3571 12.0005 17.3572C11.605 17.3572 11.1223 17.2593 10.707 17.1501C10.2971 17.0423 10.0922 16.9884 9.74196 16.6864C9.39173 16.3844 9.34136 16.2668 9.24064 16.0317C9.08622 15.6712 9.0005 15.2745 9.00049 14.8572C9.00049 13.2004 10.3436 11.8572 12.0005 11.8572Z" fill="black"/>
<path d="M12 21.8572C14.7739 21.8572 16.6893 21.8035 17.8274 21.7571C18.6772 21.7224 19.6913 21.5638 19.9415 20.751C19.9782 20.6318 20 20.5006 20 20.3572C20 20.2138 19.9782 20.0826 19.9415 19.9633C19.6913 19.1505 18.6772 18.9919 17.8274 18.9573C16.6893 18.9108 14.7739 18.8572 12 18.8572C9.2261 18.8572 7.31068 18.9108 6.17255 18.9573C5.32281 18.9919 4.30865 19.1505 4.05847 19.9633C4.02176 20.0826 4 20.2138 4 20.3572C4 20.5006 4.02176 20.6318 4.05847 20.751C4.30865 21.5638 5.32281 21.7224 6.17255 21.7571C7.31068 21.8035 9.2261 21.8572 12 21.8572Z" fill="black"/>
</svg>
