<svg width="24" height="24" viewBox="0 0 24 24" fill="none" xmlns="http://www.w3.org/2000/svg">
<path fill-rule="evenodd" clip-rule="evenodd" d="M12.0002 21.0001L10.9279 20.9874C10.2407 20.9705 9.60723 20.9381 9.02656 20.8946L8.19453 20.8214C5.55661 20.556 3.57894 18.6522 3.20917 16.0577L3.17889 15.8048C3.09923 15.0123 3.03824 14.1025 3.01288 13.0714L3.00018 12.0001C3.00018 10.8877 3.04143 9.89773 3.10663 9.02648L3.17889 8.19445C3.44426 5.55669 5.34736 3.57899 7.9416 3.20911L8.19453 3.17883C9.25124 3.07259 10.5169 3.00012 12.0002 3.00012C13.4833 3.00013 14.7483 3.07262 15.8049 3.17883C18.5278 3.45259 20.5476 5.47159 20.8215 8.19445C20.9277 9.25117 21.0002 10.5168 21.0002 12.0001L20.9875 13.0714C20.9621 14.1025 20.9011 15.0123 20.8215 15.8048L20.7912 16.0577C20.4214 18.6523 18.4429 20.5561 15.8049 20.8214L14.9729 20.8937C14.1019 20.9588 13.1124 21.0001 12.0002 21.0001ZM18.8313 8.39465C18.9306 9.38333 19.0002 10.5821 19.0002 12.0001C19.0002 13.4179 18.9306 14.616 18.8313 15.6046C18.6526 17.3814 17.3814 18.6525 15.6047 18.8312C14.6161 18.9305 13.418 19.0001 12.0002 19.0001C10.582 19.0001 9.38319 18.9306 8.39472 18.8312C6.61843 18.6525 5.34779 17.3816 5.16913 15.6046C5.06977 14.616 5.0002 13.4179 5.00019 12.0001C5.00019 10.5821 5.06975 9.38328 5.16913 8.39465C5.34786 6.61812 6.61824 5.34775 8.39472 5.16906C9.38332 5.06968 10.5821 5.00012 12.0002 5.00012C13.418 5.00013 14.6161 5.0697 15.6047 5.16906C17.3816 5.34772 18.6526 6.61841 18.8313 8.39465Z" fill="black"/>
</svg>