<svg width="24" height="24" viewBox="0 0 24 24" fill="#000">
<path d="M12 7C15.6667 7 17.3333 5.83333 17.3333 5.83333C17.3333 5.83333 18 5.41667 18 4.5C18 3.53756 16.7964 3.41794 15.8567 3.62579C14.9829 3.81905 13.7086 4 12 4C10.2914 4 9.01707 3.81905 8.14329 3.62579C7.20357 3.41794 6 3.53756 6 4.5C6 5.41667 6.66667 5.83333 6.66667 5.83333C6.66667 5.83333 8.33333 7 12 7Z" />
<path d="M7.43176 14.7957L8.39732 10.6116C8.639 9.56434 8.75984 9.0407 9.0905 8.82044C9.42115 8.60017 10.112 8.71785 11.4936 8.95319C11.668 8.98291 11.8385 9 12 9C12.1615 9 12.332 8.98291 12.5064 8.95319C13.888 8.71785 14.5788 8.60017 14.9095 8.82044C15.2402 9.0407 15.361 9.56434 15.6027 10.6116L16.5682 14.7957C16.7804 15.715 16.8865 16.1747 16.7868 16.6188C16.6871 17.0629 16.3948 17.4332 15.8102 18.1737L15.1395 19.0233C13.6926 20.856 12.9692 21.7723 12 21.7723C11.0308 21.7723 10.3074 20.856 8.86047 19.0233L8.18979 18.1737C7.60517 17.4332 7.31285 17.0629 7.21319 16.6188C7.11353 16.1747 7.21961 15.715 7.43176 14.7957Z" />
</svg>
