<svg width="24" height="24" viewBox="0 0 24 24" fill="none" xmlns="http://www.w3.org/2000/svg">
<path fill-rule="evenodd" clip-rule="evenodd" d="M12.5003 3C12.9251 3 13.3309 3.00598 13.7181 3.01758C17.8214 3.14057 20.8588 6.17892 20.9817 10.2822C20.9933 10.6694 21.0003 11.0752 21.0003 11.5C21.0003 11.9248 20.9933 12.3306 20.9817 12.7178C20.8588 16.8211 17.8214 19.8594 13.7181 19.9824C13.3309 19.994 12.9251 20 12.5003 20C12.0754 20 11.6688 19.994 11.2815 19.9824C10.5767 19.9613 9.90317 19.8532 9.2708 19.6689C8.7758 19.525 8.1667 19.6887 7.68681 19.877C7.37512 19.9992 6.96512 20.1196 6.44169 20.2734C5.14068 20.6557 4.48998 20.8465 4.09404 20.5645C4.00374 20.5001 3.92405 20.4213 3.85966 20.3311C3.57739 19.9351 3.76928 19.2837 4.15166 17.9824C4.3002 17.4769 4.41786 17.0766 4.53544 16.7686C4.69208 16.3581 4.74954 15.867 4.58427 15.46C4.24483 14.6243 4.04735 13.7016 4.01787 12.7178C4.00627 12.3306 4.00029 11.9248 4.00029 11.5C4.00029 11.0752 4.00627 10.6694 4.01787 10.2822C4.14084 6.17899 7.17834 3.14066 11.2815 3.01758C11.6688 3.00597 12.0754 3 12.5003 3ZM7.50029 10.5C6.67186 10.5 6.00029 11.1716 6.00029 12C6.00029 12.8284 6.67186 13.5 7.50029 13.5C8.32857 13.4998 9.00029 12.8283 9.00029 12C9.00029 11.1717 8.32857 10.5002 7.50029 10.5ZM12.5003 10.5C11.6719 10.5 11.0003 11.1716 11.0003 12C11.0003 12.8284 11.6719 13.5 12.5003 13.5C13.3286 13.4998 14.0003 12.8283 14.0003 12C14.0003 11.1717 13.3286 10.5002 12.5003 10.5ZM17.5003 10.5C16.6719 10.5 16.0003 11.1716 16.0003 12C16.0003 12.8284 16.6719 13.5 17.5003 13.5C18.3286 13.4998 19.0003 12.8283 19.0003 12C19.0003 11.1717 18.3286 10.5002 17.5003 10.5Z" fill="black"/>
</svg>
