<svg width="24" height="24" viewBox="0 0 24 24" fill="none" xmlns="http://www.w3.org/2000/svg">
<path fill-rule="evenodd" clip-rule="evenodd" d="M10.7605 2.57261C11.1785 2.57261 11.5779 2.57835 11.9589 2.58949C15.9968 2.70762 18.9858 5.62593 19.1067 9.56708C19.1181 9.93898 19.125 10.3287 19.125 10.7368C19.125 11.1448 19.1181 11.5345 19.1067 11.9064C18.9858 15.8476 15.9968 18.7659 11.9589 18.884C11.5779 18.8952 11.1785 18.9009 10.7605 18.9009C10.3424 18.9009 9.94225 18.8952 9.56112 18.884C8.86755 18.8637 8.20476 18.7599 7.58247 18.5829C7.09536 18.4447 6.49597 18.6019 6.02373 18.7828C5.71701 18.9001 5.31354 19.0158 4.79846 19.1635C3.51819 19.5307 2.87786 19.714 2.48823 19.4431C2.39937 19.3813 2.32095 19.3056 2.25759 19.2189C1.97982 18.8386 2.16865 18.2129 2.54493 16.963C2.6911 16.4775 2.80689 16.093 2.92259 15.7972C3.07674 15.4029 3.13328 14.9312 2.97065 14.5403C2.63662 13.7376 2.44228 12.8514 2.41327 11.9064C2.40186 11.5345 2.39597 11.1448 2.39597 10.7368C2.39597 10.3287 2.40186 9.93898 2.41327 9.56708C2.53428 5.62599 5.52337 2.70771 9.56112 2.58949C9.94225 2.57834 10.3424 2.57261 10.7605 2.57261ZM5.84018 9.77627C5.02496 9.77627 4.36409 10.4213 4.36409 11.217C4.36409 12.0127 5.02496 12.6577 5.84018 12.6577C6.65526 12.6575 7.31627 12.0126 7.31627 11.217C7.31627 10.4214 6.65526 9.77647 5.84018 9.77627ZM10.7605 9.77627C9.9453 9.77627 9.2844 10.4213 9.2844 11.217C9.2844 12.0127 9.9453 12.6577 10.7605 12.6577C11.5756 12.6575 12.2366 12.0126 12.2366 11.217C12.2366 10.4214 11.5756 9.77647 10.7605 9.77627ZM15.6808 9.77627C14.8656 9.77627 14.2047 10.4213 14.2047 11.217C14.2047 12.0127 14.8656 12.6577 15.6808 12.6577C16.4959 12.6575 17.1569 12.0126 17.1569 11.217C17.1569 10.4214 16.4959 9.77647 15.6808 9.77627Z" fill="black"/>
<path d="M18.9485 6.00105C20.5502 7.25352 21.5551 9.17082 21.6243 11.422C21.6357 11.7939 21.6419 12.1839 21.6419 12.5919C21.6419 12.9999 21.6357 13.3899 21.6243 13.7618C21.5952 14.7066 21.4007 15.593 21.0667 16.3956C20.9042 16.7864 20.9614 17.2583 21.1155 17.6524C21.2312 17.9482 21.3463 18.333 21.4924 18.8184C21.8687 20.0682 22.0583 20.694 21.7805 21.0743C21.7172 21.1609 21.6379 21.2361 21.5491 21.2979C21.1595 21.5686 20.5195 21.3857 19.2395 21.0186C18.7244 20.8709 18.3207 20.7551 18.0139 20.6378C17.5418 20.4569 16.9424 20.2994 16.4553 20.4376C15.8331 20.6146 15.1703 20.7191 14.4768 20.7393C14.0958 20.7505 13.6956 20.7559 13.2776 20.7559C12.8597 20.7559 12.4602 20.7505 12.0794 20.7393C10.5307 20.694 9.13772 20.2338 8.00026 19.4649C8.49572 19.5665 9.00949 19.6281 9.53835 19.6436C9.92717 19.655 10.3351 19.6602 10.76 19.6602C11.1849 19.6602 11.592 19.655 11.9807 19.6436C16.4046 19.5142 19.7326 16.2883 19.8665 11.9298C19.8781 11.551 19.885 11.1529 19.885 10.7364C19.885 10.3199 19.8781 9.92177 19.8665 9.54305C19.8267 8.2508 19.503 7.05183 18.9485 6.00105Z" fill="black"/>
</svg>