<svg width="24" height="24" viewBox="0 0 24 24" fill="none" xmlns="http://www.w3.org/2000/svg">
<path d="M14.876 10.2891C17.2815 10.2054 18.4841 10.1634 19.1094 10.876C19.7347 11.5886 19.5423 12.7465 19.1562 15.0625L18.835 16.9863C18.4359 19.3808 18.2367 20.5781 17.3975 21.2891C16.5582 22 15.3444 22 12.917 22H11.082C8.65486 22 7.44074 22 6.60156 21.2891C5.76256 20.5781 5.5631 19.3805 5.16406 16.9863L4.84375 15.0625C4.45778 12.7467 4.26459 11.5886 4.88965 10.876C5.51497 10.1633 6.71833 10.2054 9.12402 10.2891C10.0581 10.3216 11.0413 10.3428 12 10.3428C12.9587 10.3428 13.9418 10.3216 14.876 10.2891ZM8.5 12C7.94775 12 7.50001 12.4477 7.5 13V19C7.5 19.5523 7.94774 20 8.5 20C9.05215 19.9998 9.5 19.5522 9.5 19V13C9.49999 12.4478 9.05215 12.0002 8.5 12ZM12 12C11.4477 12 11 12.4477 11 13V19C11 19.5523 11.4477 20 12 20C12.5522 19.9998 13 19.5522 13 19V13C13 12.4478 12.5521 12.0002 12 12ZM15.5 12C14.9477 12 14.5 12.4477 14.5 13V19C14.5 19.5523 14.9477 20 15.5 20C16.0522 19.9998 16.5 19.5522 16.5 19V13C16.5 12.4478 16.0521 12.0002 15.5 12ZM12 2C13.2752 2 14.271 2.27648 14.9707 2.85449C15.6924 3.45088 15.9479 4.2418 15.9922 4.93652C16.0162 5.31286 15.9793 5.67654 15.9189 6H18.6494C19.3953 6.00014 19.9999 6.60474 20 7.35059C20 8.01305 19.5206 8.57368 18.8623 8.64746C17.5465 8.79493 15.1509 9 12 9C8.8491 9 6.4535 8.79493 5.1377 8.64746C4.47935 8.57368 4 8.01305 4 7.35059C4.00014 6.60474 4.60474 6.00014 5.35059 6H8.08105C8.02072 5.67654 7.98384 5.31286 8.00781 4.93652C8.05208 4.2418 8.30763 3.45088 9.0293 2.85449C9.729 2.27648 10.7248 2 12 2ZM12 4C10.9822 4 10.5121 4.22356 10.3037 4.39551C10.1178 4.54906 10.0234 4.75842 10.0039 5.06348C9.9847 5.36497 10.0475 5.70063 10.1367 6H13.8633C13.9525 5.70063 14.0153 5.36497 13.9961 5.06348C13.9766 4.75842 13.8822 4.54906 13.6963 4.39551C13.4879 4.22356 13.0178 4 12 4Z" />
</svg>
