<svg width="24" height="24" viewBox="0 0 24 24" fill="none" xmlns="http://www.w3.org/2000/svg">
    <path
        d="M5 19.8015C5 18.835 5.7835 18.0515 6.75 18.0515H17.25C18.2165 18.0515 19 18.835 19 19.8015C19 20.768 18.2165 21.5515 17.25 21.5515H6.75C5.7835 21.5515 5 20.768 5 19.8015Z"
        fill="black" />
    <path
        d="M11.853 16.6433C10.6226 16.6433 9.48324 16.3243 8.43506 15.6863C7.38688 15.0483 6.54948 14.1938 5.92285 13.1228C5.30762 12.0404 5 10.8612 5 9.58521L5.06836 4.3352C5.06836 3.25 6.06734 2.44849 7.17041 2.44849C8.27348 2.44849 9.27246 3.25 9.27246 4.3352V9.58521C9.27246 10.3713 9.52311 11.0435 10.0244 11.6018C10.5257 12.1487 11.1353 12.4221 11.853 12.4221C12.605 12.4221 13.2316 12.1487 13.7329 11.6018C14.2342 11.0435 14.4849 10.3713 14.4849 9.58521L14.502 4.3352C14.502 3.25 15.5009 2.44849 16.604 2.44849C17.7071 2.44849 18.7061 3.25 18.7061 4.3352L18.7573 9.58521C18.7573 10.8726 18.4497 12.0575 17.8345 13.1399C17.2078 14.2109 16.3761 15.0653 15.3394 15.7034C14.3026 16.33 13.1405 16.6433 11.853 16.6433Z"
        fill="black" />
</svg>