<svg width="24" height="24" viewBox="0 0 24 24" fill="#000">
<path d="M12 2C19.4997 2 21.4998 5.15766 21.5 8.31543C21.5 11.4733 18 11.4736 18 11.4736V11.5264H17.1055C16.4951 11.5264 16.0001 11.0313 16 10.4209C15.9999 9.86873 15.5522 9.4209 15 9.4209C14.4478 9.4209 14.0001 9.86873 14 10.4209C14.0001 12.1358 15.3905 13.5264 17.1055 13.5264H18V16.9639C18 18.911 17.9998 19.8844 17.2441 20.7363C16.6419 21.4152 16.0212 21.6111 15 21.7588V16.7373C14.9999 16.1851 14.5522 15.7373 14 15.7373C13.4478 15.7373 13.0001 16.1851 13 16.7373V21.9697C12.6772 21.988 12.3435 22 12 22C11.6565 22 11.3228 21.988 11 21.9697V16.7373C10.9999 16.1851 10.5522 15.7373 10 15.7373C9.4478 15.7373 9.00014 16.1851 9 16.7373V21.7588C7.97875 21.6111 7.35808 21.4152 6.75586 20.7363C6.00021 19.8844 6 18.911 6 16.9639V13.5264H6.89453C8.60949 13.5264 9.99995 12.1358 10 10.4209C9.99986 9.86873 9.5522 9.4209 9 9.4209C8.4478 9.4209 8.00014 9.86873 8 10.4209C7.99995 11.0313 7.50492 11.5264 6.89453 11.5264H6V11.4736C6 11.4736 2.5 11.4733 2.5 8.31543C2.50015 5.15766 4.50029 2 12 2Z" />
</svg>
