<svg width="24" height="24" viewBox="0 0 24 24" fill="none" xmlns="http://www.w3.org/2000/svg">
<path d="M5.39103 7.95316C4.86966 8.46574 4.86966 9.29656 5.39103 9.80914C5.9125 10.3216 6.7578 10.3216 7.27918 9.80914L10.7313 6.41507C10.6084 8.87822 10.4865 11.3417 10.3635 13.8048C10.3561 13.9531 10.3483 14.1016 10.3409 14.25C10.3174 14.7141 10.4848 15.16 10.819 15.4882C11.1525 15.8161 11.6258 16 12.1213 16C12.6166 16 13.09 15.8161 13.4235 15.4882C13.7577 15.16 13.9251 14.714 13.9016 14.25C13.8942 14.1016 13.8864 13.9531 13.879 13.8048C13.7603 11.4251 13.6412 9.04517 13.5226 6.66541L16.7208 9.80914C17.2422 10.3216 18.0875 10.3215 18.6089 9.80914C19.1304 9.29656 19.1304 8.46574 18.6089 7.95316L12.9445 2.38443C12.423 1.87186 11.5769 1.87186 11.0555 2.38443L5.39103 7.95316Z" fill="black"/>
<path d="M18.2035 19.9932L18.2383 19.9956C18.7 20.0258 19.1461 19.8997 19.4761 19.6306C19.5842 19.5424 19.6783 19.4405 19.7547 19.3294C19.8819 19.1445 19.9624 18.9325 19.9898 18.7115V18.7091C19.9958 18.6594 19.9994 18.6089 19.9999 18.5585C20.0036 18.1991 19.8665 17.8517 19.6154 17.5875L19.5007 17.4803C19.4363 17.4258 19.3664 17.3766 19.2932 17.3334C19.0448 17.1863 18.7512 17.1052 18.4429 17.0948H18.4226C18.3723 17.0937 18.3211 17.0947 18.2702 17.0972L17.9568 17.1129C16.4448 17.1892 14.9312 17.2664 13.4191 17.343L10.604 17.3213L9.34153 17.2382L5.7631 17.0045C5.30391 16.9742 4.85916 17.0979 4.52965 17.3635C4.52745 17.3652 4.52604 17.3677 4.52385 17.3695L4.40631 17.4755C4.1489 17.7362 4.00394 18.0817 4 18.4416L4.00726 18.5946C4.0435 18.9493 4.21702 19.2816 4.50063 19.521C4.82468 19.7944 5.26765 19.9274 5.72972 19.9041L6.04316 19.8884C7.55496 19.812 10.5627 19.9041 10.5627 19.9041H13.5C13.5 19.9041 16.4153 19.8764 17.9248 19.9751L18.2035 19.9932Z" fill="black"/>
</svg>