<svg width="24" height="24" viewBox="0 0 24 24" fill="none" xmlns="http://www.w3.org/2000/svg">
<path d="M4.43921 17.9545C4.84894 15.7996 6.49866 14.5408 8.6853 14.7143C8.777 14.7216 9.03611 14.7546 9.55347 14.8198C9.58588 14.8238 9.61871 14.8265 9.65112 14.8305C9.59616 15.0681 9.56543 15.3088 9.56323 15.5473C9.55623 16.3557 9.84613 17.2036 10.4724 17.8412C11.1195 18.5003 11.9933 18.7988 12.8494 18.7465C12.9192 18.7423 12.9816 18.7394 13.0584 18.7348H13.0603C13.3125 18.7194 13.5649 18.7043 13.8171 18.6889C13.7973 18.9406 13.7764 19.1922 13.7566 19.4438L13.7576 19.4448C13.7547 19.4816 13.7515 19.5184 13.7488 19.5532C13.7461 19.5876 13.7435 19.6205 13.741 19.6528C13.7047 20.1076 13.7691 20.5688 13.9334 21.0004H6.44214C6.31771 21.0004 6.25539 21.0001 6.20484 20.9975C5.06993 20.94 4.21071 19.9495 4.31421 18.8178C4.31883 18.7674 4.32784 18.7057 4.34546 18.5825C4.39661 18.2244 4.42202 18.0449 4.43921 17.9545ZM11.9998 3.00043C14.7612 3.00043 16.9998 5.23901 16.9998 8.00043C16.9998 8.07736 16.9973 8.15384 16.9939 8.22992C16.1881 8.22744 15.3488 8.52022 14.7175 9.14105C14.0594 9.78792 13.7604 10.6612 13.8132 11.518C13.8174 11.5853 13.8214 11.6496 13.8259 11.725V11.727C13.8413 11.9792 13.8565 12.2316 13.8718 12.4838L13.116 12.4243L12.907 12.4067C12.2399 12.3539 11.5599 12.5166 10.9812 12.8959C8.70849 12.4254 6.99996 10.4125 6.99976 8.00043C6.99976 5.23909 9.23845 3.00056 11.9998 3.00043Z" fill="black"/>
<path d="M16.1199 10.5668C16.3417 10.3486 16.6614 10.227 16.9949 10.2299C17.3282 10.2331 17.6461 10.3594 17.864 10.5815C18.0825 10.8037 18.1836 11.1033 18.1589 11.4145C18.1534 11.4844 18.1487 11.5555 18.1433 11.6254C18.0633 12.642 17.9823 13.6586 17.9021 14.6752C18.9199 14.6131 19.9381 14.5506 20.9558 14.4887C21.0259 14.4845 21.0968 14.4803 21.1667 14.476C21.4783 14.4569 21.7766 14.5641 21.9949 14.7866C22.2127 15.0083 22.3337 15.3275 22.3308 15.6606C22.3278 15.994 22.2003 16.3118 21.9783 16.5297C21.7561 16.7481 21.4562 16.8502 21.1453 16.8256C21.0755 16.8202 21.0042 16.8145 20.9343 16.809C19.9183 16.729 18.9016 16.6498 17.8855 16.5698C17.9475 17.5869 18.0101 18.6044 18.072 19.6215C18.0763 19.6915 18.0805 19.7625 18.0847 19.8325C18.1038 20.1437 17.9962 20.4414 17.7742 20.6596C17.5524 20.8778 17.2325 20.9994 16.8992 20.9965C16.5659 20.9936 16.2489 20.8669 16.031 20.645C15.8124 20.4227 15.7103 20.1232 15.7351 19.812C15.7406 19.7419 15.7462 19.671 15.7517 19.601C15.8318 18.5849 15.9118 17.5684 15.9919 16.5522C14.9744 16.6143 13.9558 16.6767 12.9382 16.7387C12.8684 16.7429 12.797 16.7472 12.7273 16.7514C12.4161 16.7704 12.1183 16.6628 11.9001 16.4409C11.6819 16.219 11.5604 15.8994 11.5632 15.5659C11.5663 15.2323 11.6935 14.9147 11.9158 14.6967C12.138 14.4784 12.4386 14.3761 12.7498 14.4008C12.8195 14.4063 12.8901 14.4119 12.9597 14.4174C13.9754 14.4974 14.9918 14.5776 16.0076 14.6577C15.9456 13.6404 15.884 12.6222 15.822 11.6049C15.8179 11.5353 15.8136 11.4646 15.8093 11.395C15.7901 11.0834 15.8975 10.7852 16.1199 10.5668Z" fill="black"/>
</svg>