<svg width="24" height="24" viewBox="0 0 24 24" fill="none" xmlns="http://www.w3.org/2000/svg">
<path d="M20.1273 13C20.4385 12.9998 20.7518 13.1372 20.9876 13.373C21.2232 13.6089 21.3609 13.9213 21.3607 14.2324C21.3608 14.544 21.2233 14.8295 20.9876 15.0342C20.9347 15.0802 20.8813 15.1268 20.8284 15.1729C20.0589 15.842 19.2886 16.5107 18.5189 17.1797C19.2885 17.8487 20.059 18.5174 20.8284 19.1865C20.8814 19.2326 20.9347 19.2792 20.9876 19.3252C21.2233 19.5299 21.3609 19.8153 21.3607 20.127C21.3608 20.438 21.2232 20.7506 20.9876 20.9863C20.7518 21.222 20.4384 21.3595 20.1273 21.3594C19.8157 21.3595 19.5301 21.2219 19.3255 20.9863C19.2795 20.9335 19.2328 20.88 19.1868 20.8271C18.5181 20.058 17.8488 19.2887 17.18 18.5195C16.5113 19.2886 15.8428 20.0581 15.1741 20.8271C15.1281 20.8801 15.0815 20.9334 15.0355 20.9863C14.8309 21.222 14.5452 21.3594 14.2337 21.3594C13.9226 21.3596 13.6092 21.222 13.3734 20.9863C13.1377 20.7506 13.0002 20.438 13.0003 20.127C13.0001 19.8152 13.1375 19.5299 13.3734 19.3252C13.4264 19.2791 13.4795 19.2326 13.5325 19.1865C14.3019 18.5176 15.0716 17.8486 15.8411 17.1797C15.0717 16.5109 14.3018 15.8418 13.5325 15.1729C13.4797 15.1269 13.4262 15.0801 13.3734 15.0342C13.1377 14.8295 13.0002 14.544 13.0003 14.2324C13.0001 13.9212 13.1376 13.6089 13.3734 13.373C13.6093 13.1372 13.9224 12.9997 14.2337 13C14.5452 13 14.8309 13.1373 15.0355 13.373C15.0814 13.4258 15.1283 13.4795 15.1741 13.5322C15.8426 14.301 16.5115 15.07 17.18 15.8389C17.8487 15.0698 18.5181 14.3013 19.1868 13.5322C19.2328 13.4794 19.2796 13.4259 19.3255 13.373C19.5301 13.1373 19.8156 12.9999 20.1273 13Z" fill="black"/>
<path d="M3.44074 17.9541C3.8507 15.7993 5.50018 14.5401 7.68684 14.7139C7.77916 14.7213 8.0388 14.7543 8.555 14.8193C9.40573 14.9265 10.2603 15 11.0013 15C11.0329 15 11.065 14.9973 11.097 14.9971C11.2418 15.5536 11.5412 16.0482 11.9437 16.4355L12.0618 16.5439C12.0868 16.5656 12.1126 16.5883 12.139 16.6113C12.1651 16.6341 12.1927 16.6579 12.22 16.6816C12.4109 16.8476 12.6024 17.0138 12.7933 17.1797C12.6024 17.3456 12.4109 17.5118 12.22 17.6777C12.1926 17.7016 12.165 17.7253 12.139 17.748C12.1126 17.7711 12.0868 17.7937 12.0618 17.8154C11.415 18.3773 11.0003 19.2019 11.0003 20.126C11.0002 20.4292 11.0453 20.7224 11.1263 21H5.44367C5.31939 21 5.25592 20.9996 5.20539 20.9971C4.07062 20.9394 3.21224 19.9489 3.31574 18.8174C3.32037 18.767 3.32844 18.7051 3.34602 18.582C3.39717 18.224 3.42356 18.0445 3.44074 17.9541Z" fill="black"/>
<path d="M11.0013 3C13.7623 3.00052 16.0013 5.2389 16.0013 8C16.0013 9.16342 15.6014 10.2325 14.9349 11.082C14.7102 11.0289 14.4756 11.0011 14.2347 11.001H14.2327C13.3406 11.001 12.5326 11.3858 11.9593 11.959C11.6692 12.2493 11.4256 12.6007 11.2572 12.9932C11.1725 12.9974 11.087 13 11.0013 13C8.23987 13 6.00129 10.7614 6.00129 8C6.00129 5.23858 8.23987 3 11.0013 3Z" fill="black"/>
</svg>
