<svg width="24" height="24" viewBox="0 0 24 24" fill="none" xmlns="http://www.w3.org/2000/svg">
<path d="M3.12089 17.9541C3.53065 15.799 5.18109 14.5402 7.36796 14.7139C7.45987 14.7212 7.71902 14.7542 8.23613 14.8193C8.2683 14.8234 8.30063 14.8261 8.33281 14.8301C8.27786 15.0677 8.24711 15.3084 8.24492 15.5469L8.24589 15.5479C8.23891 16.3562 8.52793 17.2032 9.1541 17.8408C9.80051 18.4992 10.6739 18.7977 11.5291 18.7461L11.7391 18.7344H11.742C12.7359 18.6738 13.7309 18.6134 14.7244 18.5527L16.4891 18.5693C17.1149 18.6186 17.7337 18.6669 18.3543 18.7158C18.3601 18.7587 18.3654 18.7897 18.368 18.8174C18.4714 19.9491 17.6122 20.9395 16.4773 20.9971C16.4267 20.9997 16.3639 21 16.2391 21H5.1248C5.00002 21 4.93715 20.9997 4.88652 20.9971C3.7517 20.9395 2.89242 19.949 2.99589 18.8174C3.00051 18.7669 3.00953 18.7053 3.02714 18.582C3.07828 18.2241 3.1037 18.0445 3.12089 17.9541ZM10.6824 3C13.4436 3.00024 15.6824 5.23873 15.6824 8C15.6822 9.98424 14.5257 11.6982 12.8504 12.5059C12.4996 12.4784 12.149 12.4514 11.7986 12.4238L11.7977 12.4229L11.5867 12.4062C10.9201 12.3539 10.2412 12.5164 9.66289 12.8955C7.39031 12.4249 5.68262 10.412 5.68242 8C5.68242 5.23858 7.921 3 10.6824 3Z" fill="black"/>
<path d="M16.5838 14.6748C17.6015 14.6127 18.6198 14.5502 19.6375 14.4883L19.8484 14.4756C20.16 14.4564 20.4583 14.5636 20.6766 14.7861C20.8945 15.0079 21.0153 15.327 21.0125 15.6602C21.0095 15.9935 20.8819 16.3113 20.66 16.5293C20.4378 16.7476 20.1379 16.8499 19.8269 16.8252L19.617 16.8086C18.601 16.7286 17.5843 16.6493 16.5682 16.5693L14.6736 16.5518C13.6562 16.6139 12.6383 16.6763 11.6209 16.7383L11.41 16.751C11.0985 16.7701 10.8001 16.6626 10.5818 16.4404C10.3636 16.2186 10.243 15.8989 10.2459 15.5654C10.2489 15.2319 10.3752 14.9142 10.5975 14.6963C10.8197 14.478 11.1203 14.3756 11.4314 14.4004L11.6414 14.417C12.657 14.4969 13.6736 14.5772 14.6893 14.6572L16.5838 14.6748Z" fill="black"/>
</svg>