<svg width="24" height="24" viewBox="0 0 24 24" fill="none" xmlns="http://www.w3.org/2000/svg">
<path d="M9.44336 3.92188C10.1406 3.71986 10.8927 3.91175 11.4082 4.42285C11.9997 5.00957 12 6.84976 12 10.5293V13.4697C12 17.1496 11.9997 18.9894 11.4082 19.5762C10.8927 20.0875 10.1408 20.2792 9.44336 20.0772C8.71927 19.8672 7.92887 18.5249 6.47949 15.8779C6.18343 15.3372 5.61645 15 5 15C4.06812 15 3.60192 14.9999 3.23438 14.8477C2.74455 14.6447 2.35536 14.2554 2.15234 13.7656C2.00012 13.3981 2 12.9317 2 12C2 11.0681 2.0001 10.6019 2.15234 10.2344C2.3553 9.74447 2.7445 9.35536 3.23438 9.15235C3.60192 9.00011 4.06812 9 5 9C5.61645 9 6.18344 8.66278 6.47949 8.12207C7.92896 5.47474 8.71923 4.1317 9.44336 3.92188Z" fill="black"/>
<path d="M18.2559 4.9961C18.8105 4.585 19.5928 4.70126 20.0039 5.25586C21.4153 7.16 22.25 9.4866 22.25 12C22.25 14.5134 21.4153 16.84 20.0039 18.7441C19.5928 19.2987 18.8104 19.4149 18.2559 19.0039C17.7013 18.5928 17.5851 17.8105 17.9961 17.2559C19.106 15.7585 19.75 13.9483 19.75 12C19.75 10.0517 19.106 8.24148 17.9961 6.74414C17.585 6.18955 17.7013 5.40721 18.2559 4.9961Z" fill="black"/>
<path d="M14.2559 7.9961C14.8105 7.585 15.5928 7.70126 16.0039 8.25586C16.785 9.30963 17.25 10.602 17.25 12C17.25 13.398 16.785 14.6904 16.0039 15.7441C15.5928 16.2987 14.8104 16.4149 14.2559 16.0039C13.7013 15.5928 13.5851 14.8105 13.9961 14.2559C14.4756 13.6089 14.75 12.8328 14.75 12C14.75 11.1672 14.4756 10.3911 13.9961 9.74414C13.585 9.18955 13.7013 8.40721 14.2559 7.9961Z" fill="black"/>
</svg>
