<svg width="24" height="24" viewBox="0 0 24 24" fill="none" xmlns="http://www.w3.org/2000/svg">
<path d="M9.44336 3.92188C10.1406 3.71986 10.8927 3.91175 11.4082 4.42285C11.9997 5.00957 12 6.84976 12 10.5293V13.4697C12 17.1496 11.9997 18.9894 11.4082 19.5762C10.8927 20.0875 10.1408 20.2792 9.44336 20.0772C8.71927 19.8672 7.92887 18.5249 6.47949 15.8779C6.18343 15.3372 5.61645 15 5 15C4.06812 15 3.60192 14.9999 3.23438 14.8477C2.74455 14.6447 2.35536 14.2554 2.15234 13.7656C2.00012 13.3981 2 12.9317 2 12C2 11.0681 2.0001 10.6019 2.15234 10.2344C2.3553 9.74447 2.7445 9.35536 3.23438 9.15235C3.60192 9.00011 4.06812 9 5 9C5.61645 9 6.18344 8.66278 6.47949 8.12207C7.92896 5.47474 8.71923 4.1317 9.44336 3.92188Z" fill="black"/>
</svg>
