<svg width="24" height="24" viewBox="0 0 24 24" fill="none" xmlns="http://www.w3.org/2000/svg">
<path d="M9.44336 3.92197C10.1406 3.71995 10.8927 3.91184 11.4082 4.42295C11.9996 5.00971 12 6.84994 12 10.5294V13.4698C12 17.1496 11.9997 18.9895 11.4082 19.5763C10.8927 20.0876 10.1407 20.2793 9.44336 20.0772C8.71928 19.8673 7.92884 18.525 6.47949 15.878C6.18343 15.3373 5.61645 15.0001 5 15.0001C4.06814 15.0001 3.60191 15 3.23438 14.8478C2.74458 14.6448 2.35536 14.2555 2.15234 13.7657C2.00012 13.3982 2 12.9318 2 12.0001C2 11.0683 2.00013 10.602 2.15234 10.2345C2.35529 9.74458 2.74452 9.35545 3.23438 9.15244C3.60192 9.0002 4.06812 9.00009 5 9.00009C5.61642 9.00009 6.18343 8.66283 6.47949 8.12216C7.92894 5.47486 8.71924 4.13181 9.44336 3.92197Z" fill="black"/>
<path d="M20.5586 8.00009C20.8698 7.99989 21.1837 8.13884 21.4209 8.37607C21.658 8.61333 21.7962 8.92718 21.7959 9.23838C21.796 9.54994 21.6579 9.83395 21.4209 10.0372C21.3719 10.0793 21.3224 10.1221 21.2734 10.1642C20.5826 10.7576 19.8912 11.3509 19.2002 11.9444C19.8912 12.5379 20.5826 13.1313 21.2734 13.7247C21.3225 13.7669 21.3718 13.8095 21.4209 13.8517C21.658 14.055 21.7961 14.3388 21.7959 14.6505C21.7961 14.9616 21.6579 15.2756 21.4209 15.5128C21.1837 15.7498 20.8697 15.889 20.5586 15.8888C20.2468 15.889 19.9621 15.75 19.7588 15.5128C19.7167 15.4638 19.6749 15.4143 19.6328 15.3653C19.0392 14.6742 18.4453 13.9831 17.8516 13.2921C17.2579 13.9829 16.6648 14.6744 16.0713 15.3653C16.0292 15.4143 15.9874 15.4638 15.9453 15.5128C15.742 15.75 15.4573 15.889 15.1455 15.8888C14.8344 15.889 14.5204 15.7499 14.2832 15.5128C14.0462 15.2756 13.908 14.9616 13.9082 14.6505C13.908 14.3388 14.0462 14.055 14.2832 13.8517C14.3323 13.8095 14.3816 13.7669 14.4307 13.7247C15.1213 13.1314 15.8121 12.5378 16.5029 11.9444C15.8121 11.3511 15.1213 10.7574 14.4307 10.1642C14.3817 10.1221 14.3322 10.0793 14.2832 10.0372C14.0462 9.83395 13.9081 9.54994 13.9082 9.23838C13.9079 8.92719 14.0461 8.61333 14.2832 8.37607C14.5204 8.13884 14.8343 7.99989 15.1455 8.00009C15.4573 7.99987 15.742 8.13882 15.9453 8.37607C15.9873 8.42497 16.0293 8.47463 16.0713 8.52353C16.6646 9.21431 17.2581 9.90511 17.8516 10.5958C18.4452 9.90495 19.0393 9.21447 19.6328 8.52353C19.6748 8.47464 19.7168 8.42497 19.7588 8.37607C19.9621 8.13884 20.2468 7.99988 20.5586 8.00009Z" fill="black"/>
</svg>
