<svg width="24" height="24" viewBox="0 0 24 24" fill="none" xmlns="http://www.w3.org/2000/svg">
<path d="M19.9161 17.6332C20.4491 17.5542 20.9557 17.8 21.1701 18.2943C21.2733 18.5325 21.3833 18.8345 21.4835 19.2084C21.7832 20.3266 21.1082 21.3393 19.9992 21.6713C19.8698 21.71 19.732 21.7484 19.5861 21.7875C19.4402 21.8266 19.3014 21.8618 19.1701 21.8929C18.0438 22.1598 16.9531 21.6213 16.6535 20.5033C16.5532 20.1292 16.4976 19.8121 16.4679 19.5541C16.4064 19.0188 16.7218 18.553 17.2228 18.3548C17.5487 18.226 17.9869 18.0753 18.5509 17.9242C19.1147 17.7731 19.5695 17.6846 19.9161 17.6332Z" fill="black"/>
<path d="M4.14857 12.6332C4.4953 12.6845 4.95074 12.7731 5.51478 12.9242C6.07863 13.0753 6.51701 13.226 6.8429 13.3548C7.34377 13.553 7.65933 14.0189 7.59779 14.5541C7.56809 14.8121 7.51151 15.1292 7.41126 15.5033C7.11147 16.6212 6.02097 17.1599 4.89466 16.8929C4.76354 16.8618 4.62529 16.8265 4.47962 16.7875C4.33378 16.7484 4.19577 16.7099 4.06654 16.6713C2.95748 16.3393 2.28253 15.3266 2.58216 14.2084C2.68236 13.8345 2.79237 13.5325 2.89564 13.2943C3.10993 12.8001 3.61569 12.5543 4.14857 12.6332Z" fill="black"/>
<path d="M15.7042 7.29918C17.6638 6.77421 19.4281 7.97245 20.0148 9.91442C20.0923 10.1709 20.1704 10.4458 20.2492 10.7396C20.3279 11.0335 20.398 11.3107 20.4591 11.5716C20.922 13.5469 19.9929 15.4675 18.0333 15.9925C16.0739 16.5175 14.3096 15.3191 13.7228 13.3773C13.6453 13.1207 13.5662 12.8451 13.4874 12.5511C13.4087 12.2573 13.3396 11.98 13.2785 11.7191C12.8156 9.7439 13.7446 7.82426 15.7042 7.29918Z" fill="black"/>
<path d="M4.05091 4.91442C4.63765 2.9724 6.40187 1.77411 8.36146 2.29918C10.321 2.82429 11.2501 4.74393 10.7872 6.71911C10.7261 6.98004 10.656 7.25725 10.5773 7.55114C10.4985 7.84513 10.4204 8.12068 10.3429 8.37731C9.75613 10.3191 7.99173 11.5174 6.03236 10.9925C4.07277 10.4675 3.1437 8.54685 3.60657 6.57165C3.66771 6.31078 3.73684 6.03341 3.81556 5.73961C3.89429 5.44578 3.97342 5.17093 4.05091 4.91442Z" fill="black"/>
</svg>
