<svg width="535" height="106" viewBox="0 0 535 106" fill="#0042DC" xmlns="http://www.w3.org/2000/svg">
<path d="M10.6083 4.41207C11.4401 3.83738 12.2995 3.32074 13.1831 2.86105C32.6827 -7.28445 46.5898 20.1042 46.5912 42.0853L46.5935 79.3252C46.5942 89.4397 41.2872 99.9999 31.1727 100V100C15.2638 99.9991 2.30263 89.229 2.30263 73.5294C2.30263 63.7218 16.1809 59.6689 19.5781 55.0044C-6.55565 44.1176 -3.3003 14.0233 10.6083 4.41207Z"/>
<path d="M94.3917 4.41207C93.5599 3.83738 92.7005 3.32074 91.8169 2.86105C72.3173 -7.28445 58.4102 20.1042 58.4088 42.0853L58.4065 79.3252C58.4058 89.4397 63.7128 99.9999 73.8273 100V100C89.7362 99.9991 102.697 89.229 102.697 73.5294C102.697 63.7218 88.8191 59.6689 85.4219 55.0044C111.556 44.1176 108.3 14.0233 94.3917 4.41207Z"/>
<path d="M507.857 86.714C505.341 86.714 502.757 86.442 500.105 85.898C497.521 85.354 495.107 84.436 492.863 83.144C490.619 81.852 488.715 80.084 487.151 77.84C485.655 75.596 484.669 72.808 484.193 69.476H497.759C498.235 70.836 499.017 71.992 500.105 72.944C501.261 73.828 502.587 74.474 504.083 74.882C505.579 75.29 507.075 75.494 508.571 75.494C509.523 75.494 510.509 75.426 511.529 75.29C512.549 75.154 513.501 74.882 514.385 74.474C515.337 74.066 516.085 73.522 516.629 72.842C517.173 72.094 517.445 71.142 517.445 69.986C517.445 68.83 517.105 67.946 516.425 67.334C515.745 66.654 514.793 66.11 513.569 65.702C512.413 65.294 511.019 64.92 509.387 64.58C506.531 63.968 503.471 63.322 500.207 62.642C496.943 61.894 494.121 60.772 491.741 59.276C490.789 58.596 489.939 57.848 489.191 57.032C488.443 56.216 487.797 55.332 487.253 54.38C486.777 53.36 486.403 52.272 486.131 51.116C485.927 49.96 485.825 48.736 485.825 47.444C485.825 44.52 486.437 42.038 487.661 39.998C488.885 37.958 490.517 36.326 492.557 35.102C494.597 33.81 496.909 32.858 499.493 32.246C502.077 31.634 504.729 31.328 507.449 31.328C511.121 31.328 514.487 31.94 517.547 33.164C520.607 34.32 523.157 36.122 525.197 38.57C527.237 40.95 528.461 44.044 528.869 47.852H516.119C515.847 46.288 514.861 45.03 513.161 44.078C511.529 43.058 509.489 42.548 507.041 42.548C506.157 42.548 505.205 42.65 504.185 42.854C503.233 42.99 502.349 43.228 501.533 43.568C500.717 43.908 500.037 44.418 499.493 45.098C498.949 45.778 498.677 46.628 498.677 47.648C498.677 48.532 498.915 49.314 499.391 49.994C499.867 50.674 500.581 51.252 501.533 51.728C502.485 52.136 503.641 52.51 505.001 52.85C507.313 53.394 509.659 53.904 512.039 54.38C514.487 54.788 516.629 55.23 518.465 55.706C520.709 56.25 522.715 57.1 524.483 58.256C526.319 59.344 527.781 60.806 528.869 62.642C529.957 64.478 530.501 66.824 530.501 69.68C530.501 73.012 529.821 75.8 528.461 78.044C527.169 80.22 525.401 81.954 523.157 83.246C520.913 84.47 518.465 85.354 515.813 85.898C513.161 86.442 510.509 86.714 507.857 86.714Z"/>
<path d="M430.18 86V32.246H442.726L443.44 38.774C444.868 36.87 446.534 35.408 448.438 34.388C450.41 33.3 452.416 32.518 454.456 32.042C456.496 31.566 458.4 31.328 460.168 31.328C465.268 31.328 469.28 32.45 472.204 34.694C475.128 36.938 477.202 39.964 478.426 43.772C479.718 47.512 480.364 51.694 480.364 56.318V86H467.002V58.256C467.002 56.42 466.866 54.652 466.594 52.952C466.322 51.184 465.812 49.586 465.064 48.158C464.316 46.73 463.262 45.608 461.902 44.792C460.542 43.908 458.74 43.466 456.496 43.466C453.64 43.466 451.226 44.214 449.254 45.71C447.35 47.138 445.922 49.076 444.97 51.524C444.018 53.972 443.542 56.726 443.542 59.786V86H430.18Z"/>
<path d="M398.697 86.714C393.189 86.714 388.429 85.592 384.417 83.348C380.405 81.104 377.277 77.942 375.033 73.862C372.857 69.714 371.769 64.818 371.769 59.174C371.769 53.462 372.891 48.532 375.135 44.384C377.379 40.236 380.507 37.04 384.519 34.796C388.531 32.484 393.223 31.328 398.595 31.328C404.035 31.328 408.727 32.484 412.671 34.796C416.683 37.108 419.777 40.372 421.953 44.588C424.129 48.736 425.217 53.666 425.217 59.378C425.217 64.954 424.129 69.816 421.953 73.964C419.845 78.044 416.819 81.206 412.875 83.45C408.931 85.626 404.205 86.714 398.697 86.714ZM398.493 74.474C401.757 74.474 404.375 73.76 406.347 72.332C408.387 70.904 409.849 69.034 410.733 66.722C411.617 64.41 412.059 61.928 412.059 59.276C412.059 56.624 411.617 54.108 410.733 51.728C409.849 49.348 408.421 47.41 406.449 45.914C404.477 44.418 401.825 43.67 398.493 43.67C395.297 43.67 392.679 44.418 390.639 45.914C388.667 47.41 387.205 49.348 386.253 51.728C385.369 54.04 384.927 56.556 384.927 59.276C384.927 61.928 385.369 64.444 386.253 66.824C387.205 69.136 388.667 71.006 390.639 72.434C392.679 73.794 395.297 74.474 398.493 74.474Z"/>
<path d="M345.091 86.714C339.583 86.714 334.891 85.592 331.015 83.348C327.139 81.036 324.181 77.84 322.141 73.76C320.169 69.612 319.183 64.784 319.183 59.276C319.183 53.7 320.203 48.838 322.243 44.69C324.351 40.474 327.377 37.21 331.321 34.898C335.333 32.518 340.161 31.328 345.805 31.328C350.021 31.328 353.795 32.076 357.127 33.572C360.459 35.068 363.145 37.244 365.185 40.1C367.225 42.956 368.449 46.458 368.857 50.606H355.801C355.053 48.158 353.761 46.356 351.925 45.2C350.157 44.044 348.049 43.466 345.601 43.466C342.337 43.466 339.753 44.282 337.849 45.914C335.945 47.478 334.551 49.484 333.667 51.932C332.851 54.312 332.443 56.76 332.443 59.276C332.443 61.928 332.885 64.444 333.769 66.824C334.653 69.136 336.047 71.04 337.951 72.536C339.855 73.964 342.337 74.678 345.397 74.678C347.913 74.678 350.157 74.1 352.129 72.944C354.101 71.788 355.359 69.986 355.903 67.538H369.367C368.959 71.822 367.599 75.392 365.287 78.248C363.043 81.036 360.153 83.144 356.617 84.572C353.081 86 349.239 86.714 345.091 86.714Z"/>
<path d="M300.712 86V32.246H314.074V86H300.712ZM307.444 26.432C304.928 26.432 302.888 25.684 301.324 24.188C299.828 22.624 299.08 20.652 299.08 18.272C299.08 15.824 299.862 13.818 301.426 12.254C303.058 10.69 305.098 9.90796 307.546 9.90796C309.79 9.90796 311.728 10.69 313.36 12.254C315.06 13.75 315.91 15.722 315.91 18.17C315.91 20.618 315.094 22.624 313.462 24.188C311.898 25.684 309.892 26.432 307.444 26.432Z"/>
<path d="M241.95 105.89V32.246H254.496L255.108 39.182C257.284 36.462 259.8 34.49 262.656 33.266C265.512 31.974 268.674 31.328 272.142 31.328C277.446 31.328 281.832 32.552 285.3 35C288.768 37.448 291.352 40.78 293.052 44.996C294.82 49.144 295.704 53.802 295.704 58.97C295.704 64.274 294.786 69.034 292.95 73.25C291.182 77.398 288.496 80.696 284.892 83.144C281.356 85.524 276.902 86.714 271.53 86.714C269.082 86.714 266.838 86.442 264.798 85.898C262.758 85.354 260.922 84.606 259.29 83.654C257.726 82.634 256.4 81.512 255.312 80.288V105.89H241.95ZM269.286 74.678C272.618 74.678 275.236 73.93 277.14 72.434C279.044 70.938 280.404 69.034 281.22 66.722C282.036 64.342 282.444 61.86 282.444 59.276C282.444 56.556 282.002 54.006 281.118 51.626C280.302 49.178 278.908 47.206 276.936 45.71C274.964 44.214 272.346 43.466 269.082 43.466C266.09 43.466 263.54 44.214 261.432 45.71C259.392 47.138 257.828 49.042 256.74 51.422C255.72 53.802 255.21 56.386 255.21 59.174C255.21 61.962 255.72 64.546 256.74 66.926C257.76 69.238 259.29 71.108 261.33 72.536C263.438 73.964 266.09 74.678 269.286 74.678Z"/>
<path d="M205.903 86.7141C203.387 86.7141 201.007 86.3741 198.763 85.6941C196.519 85.0141 194.513 84.0281 192.745 82.7361C190.977 81.3761 189.549 79.6761 188.461 77.6361C187.441 75.5961 186.931 73.2161 186.931 70.4961C186.931 66.9601 187.645 64.1041 189.073 61.9281C190.501 59.6841 192.439 57.9841 194.887 56.8281C197.335 55.6721 200.123 54.8901 203.251 54.4821C206.379 54.0061 209.643 53.7681 213.043 53.7681H222.223C222.223 51.5921 221.849 49.6881 221.101 48.0561C220.353 46.4241 219.231 45.1661 217.735 44.2821C216.239 43.3301 214.301 42.8541 211.921 42.8541C210.357 42.8541 208.895 43.0581 207.535 43.4661C206.175 43.8061 205.019 44.3501 204.067 45.0981C203.183 45.7781 202.571 46.6961 202.231 47.8521H188.563C189.039 44.9961 189.991 42.5481 191.419 40.5081C192.915 38.4001 194.751 36.7001 196.927 35.4081C199.171 34.0481 201.585 33.0621 204.169 32.4501C206.821 31.7701 209.541 31.4301 212.329 31.4301C220.149 31.4301 225.861 33.6741 229.465 38.1621C233.137 42.5821 234.973 48.8721 234.973 57.0321V86.0001H223.039L222.835 79.0641C221.203 81.3761 219.299 83.0761 217.123 84.1641C214.947 85.2521 212.839 85.9321 210.799 86.2041C208.827 86.5441 207.195 86.7141 205.903 86.7141ZM208.759 76.0041C211.275 76.0041 213.553 75.5281 215.593 74.5761C217.633 73.5561 219.265 72.1961 220.489 70.4961C221.713 68.7281 222.325 66.7221 222.325 64.4781V62.9481H212.533C210.969 62.9481 209.439 63.0161 207.943 63.1521C206.515 63.2881 205.223 63.5601 204.067 63.9681C202.911 64.3761 201.959 65.0221 201.211 65.9061C200.531 66.7221 200.191 67.8781 200.191 69.3741C200.191 70.8701 200.565 72.0941 201.313 73.0461C202.129 73.9981 203.183 74.7461 204.475 75.2901C205.835 75.7661 207.263 76.0041 208.759 76.0041Z"/>
<path d="M131.049 86.0001V13.7841H158.691C164.199 13.7841 168.959 14.6341 172.971 16.3341C177.051 17.9661 180.179 20.6181 182.355 24.2901C184.599 27.8941 185.721 32.6541 185.721 38.5701C185.721 44.2141 184.497 48.9401 182.049 52.7481C179.601 56.4881 176.235 59.3101 171.951 61.2141C167.735 63.0501 162.907 63.9681 157.467 63.9681H144.717V86.0001H131.049ZM144.717 51.7281H157.263C161.751 51.7281 165.355 50.6401 168.075 48.4641C170.795 46.2881 172.155 42.9561 172.155 38.4681C172.155 34.4561 170.999 31.4641 168.687 29.4921C166.443 27.4521 162.907 26.4321 158.079 26.4321H144.717V51.7281Z"/>
</svg>
