<svg viewBox="0 0 1202 238" xmlns="http://www.w3.org/2000/svg"><g fill="#0042dc"><path d="m24.0361 8.43447c1.8848-1.30007 3.832-2.46882 5.8339-3.50876 44.182-22.95131 75.692 39.00779 75.695 88.73389l.006 84.2444c.001 22.882-12.0231 46.771-34.9405 46.772-36.046-.003-65.41322-24.367-65.41322-59.883 0-22.187 31.44522-31.355 39.14252-41.908-59.2135-24.6277-51.83754-92.7079-20.3237-114.45053z"/><path d="m213.871 8.43447c-1.885-1.30007-3.832-2.46882-5.834-3.50876-44.182-22.95131-75.692 39.00779-75.695 88.73389l-.006 84.2444c-.001 22.882 12.023 46.771 34.941 46.772 36.046-.003 65.413-24.367 65.413-59.883 0-22.187-31.445-31.355-39.143-41.908 59.214-24.6277 51.838-92.7079 20.324-114.45053z"/><path d="m1150.69 194.62c-5.7 0-11.55-.616-17.56-1.846-5.86-1.231-11.33-3.308-16.41-6.23-5.08-2.923-9.4-6.923-12.94-11.999-3.39-5.077-5.63-11.384-6.7-18.922h30.73c1.08 3.077 2.85 5.692 5.32 7.846 2.62 2 5.62 3.461 9.01 4.384s6.78 1.385 10.17 1.385c2.16 0 4.39-.154 6.7-.462s4.47-.923 6.47-1.846c2.16-.923 3.86-2.154 5.09-3.692 1.23-1.692 1.85-3.846 1.85-6.461s-.77-4.615-2.31-5.999c-1.54-1.539-3.7-2.769-6.47-3.692-2.62-.923-5.78-1.769-9.48-2.538-6.47-1.385-13.4-2.846-20.8-4.385-7.4-1.692-13.79-4.23-19.18-7.614-2.16-1.538-4.08-3.231-5.78-5.077-1.69-1.846-3.16-3.845-4.39-5.999-1.08-2.307-1.93-4.769-2.54-7.384-.46-2.615-.7-5.384-.7-8.307 0-6.6145 1.39-12.2294 4.16-16.8443 2.78-4.6149 6.47-8.3069 11.1-11.0758 4.62-2.9228 9.86-5.0764 15.71-6.4609 5.86-1.3845 11.87-2.0767 18.03-2.0767 8.32 0 15.95 1.3844 22.88 4.1534 6.93 2.6151 12.71 6.6916 17.33 12.2296 4.62 5.3841 7.4 12.3834 8.32 20.9977h-28.89c-.61-3.538-2.85-6.384-6.7-8.5374-3.7-2.3075-8.32-3.4612-13.87-3.4612-2 0-4.16.2307-6.47.6922-2.15.3077-4.16.8461-6.01 1.6152-1.84.7692-3.38 1.9229-4.62 3.4612-1.23 1.538-1.85 3.461-1.85 5.769 0 2 .54 3.769 1.62 5.307s2.7 2.846 4.85 3.923c2.16.923 4.78 1.769 7.86 2.538 5.24 1.23 10.56 2.384 15.95 3.461 5.55.923 10.4 1.923 14.56 3 5.08 1.23 9.63 3.153 13.63 5.768 4.16 2.462 7.48 5.769 9.94 9.922 2.47 4.154 3.7 9.461 3.7 15.922 0 7.538-1.54 13.845-4.62 18.921-2.93 4.923-6.94 8.845-12.02 11.768-5.08 2.769-10.63 4.769-16.64 6-6.01 1.23-12.02 1.846-18.03 1.846z"/><path d="m974.695 193.004v-121.603h28.425l1.62 14.7678c3.23-4.3073 7.01-7.6147 11.32-9.9221 4.47-2.4613 9.02-4.2304 13.64-5.3072s8.93-1.6152 12.94-1.6152c11.56 0 20.65 2.5382 27.27 7.6146 6.63 5.0764 11.33 11.9219 14.1 20.5364 2.93 8.4607 4.39 17.9217 4.39 28.3817v67.147h-30.27v-62.763c0-4.153-.31-8.153-.93-11.998-.62-4-1.77-7.615-3.47-10.846-1.69-3.23-4.08-5.768-7.16-7.6142-3.08-1.9998-7.16-2.9997-12.25-2.9997-6.47 0-11.94 1.6921-16.41 5.0769-4.31 3.23-7.55 7.614-9.7 13.152-2.16 5.538-3.24 11.768-3.24 18.691v59.301z"/><path d="m903.361 194.62c-12.48 0-23.265-2.539-32.355-7.615-9.091-5.076-16.178-12.23-21.262-21.459-4.931-9.384-7.396-20.46-7.396-33.228 0-12.922 2.542-24.074 7.627-33.4582 5.084-9.3837 12.171-16.6137 21.262-21.6902 9.09-5.2302 19.721-7.8453 31.893-7.8453 12.326 0 22.957 2.6151 31.893 7.8453 9.09 5.2303 16.101 12.6142 21.031 22.1517 4.93 9.3837 7.396 20.5367 7.396 33.4587 0 12.614-2.466 23.613-7.396 32.996-4.776 9.23-11.633 16.383-20.569 21.46-8.936 4.922-19.644 7.384-32.124 7.384zm-.462-27.69c7.395 0 13.327-1.615 17.795-4.846 4.622-3.23 7.935-7.46 9.938-12.691 2.003-5.23 3.004-10.845 3.004-16.844 0-6-1.001-11.691-3.004-17.075-2.003-5.385-5.239-9.769-9.707-13.153-4.468-3.3843-10.477-5.0764-18.026-5.0764-7.242 0-13.173 1.6921-17.796 5.0764-4.468 3.384-7.78 7.768-9.937 13.153-2.003 5.23-3.005 10.922-3.005 17.075 0 5.999 1.002 11.691 3.005 17.075 2.157 5.23 5.469 9.461 9.937 12.691 4.623 3.077 10.554 4.615 17.796 4.615z"/><path d="m781.902 194.62c-12.48 0-23.111-2.539-31.893-7.615-8.782-5.23-15.484-12.46-20.107-21.69-4.468-9.384-6.702-20.306-6.702-32.766 0-12.614 2.311-23.613 6.933-32.9969 4.777-9.5376 11.633-16.9215 20.569-22.1517 9.091-5.3841 20.03-8.0761 32.818-8.0761 9.552 0 18.103 1.6921 25.653 5.0764s13.635 8.3069 18.258 14.7678c4.622 6.4609 7.395 14.3835 8.32 23.7665h-29.582c-1.695-5.538-4.623-9.614-8.783-12.229-4.006-2.6153-8.782-3.9229-14.328-3.9229-7.396 0-13.251 1.846-17.565 5.5379-4.314 3.538-7.472 8.076-9.475 13.614-1.849 5.384-2.774 10.922-2.774 16.614 0 5.999 1.002 11.691 3.005 17.075 2.003 5.23 5.161 9.538 9.475 12.922 4.314 3.23 9.938 4.846 16.871 4.846 5.701 0 10.786-1.308 15.254-3.923s7.318-6.692 8.551-12.23h30.506c-.924 9.692-4.006 17.768-9.244 24.229-5.085 6.307-11.633 11.076-19.645 14.306-8.011 3.23-16.716 4.846-26.115 4.846z"/><path d="m681.348 193.004v-121.603h30.275v121.603zm15.253-134.7556c-5.701 0-10.323-1.6921-13.867-5.0764-3.389-3.5381-5.084-7.9992-5.084-13.3833 0-5.5379 1.772-10.0759 5.315-13.6141 3.698-3.5381 8.32-5.3071 13.867-5.3071 5.084 0 9.475 1.769 13.173 5.3071 3.852 3.3843 5.778 7.8454 5.778 13.3834 0 5.5379-1.849 10.0759-5.547 13.614-3.543 3.3843-8.089 5.0764-13.635 5.0764z"/><path d="m548.207 238v-166.599h28.426l1.387 15.6907c4.93-6.1532 10.631-10.6143 17.102-13.3833 6.471-2.9227 13.635-4.3841 21.493-4.3841 12.018 0 21.956 2.7689 29.813 8.3068 7.858 5.538 13.713 13.0757 17.565 22.6129 4.006 9.384 6.009 19.921 6.009 31.613 0 11.998-2.08 22.767-6.24 32.304-4.006 9.384-10.092 16.845-18.258 22.383-8.012 5.384-18.104 8.076-30.275 8.076-5.547 0-10.632-.616-15.254-1.846-4.622-1.231-8.782-2.923-12.48-5.077-3.543-2.307-6.548-4.845-9.013-7.614v57.917zm61.937-70.608c7.55 0 13.482-1.693 17.796-5.077s7.395-7.691 9.244-12.922c1.849-5.384 2.773-10.999 2.773-16.844 0-6.153-1.001-11.922-3.004-17.306-1.849-5.538-5.008-9.999-9.476-13.383-4.468-3.3848-10.4-5.0769-17.795-5.0769-6.779 0-12.557 1.6921-17.333 5.0769-4.623 3.23-8.166 7.537-10.631 12.921-2.312 5.384-3.467 11.23-3.467 17.537s1.155 12.153 3.467 17.537c2.311 5.23 5.777 9.46 10.4 12.691 4.776 3.23 10.785 4.846 18.026 4.846z"/><path d="m466.531 194.62c-5.701 0-11.093-.77-16.178-2.308-5.084-1.538-9.629-3.769-13.635-6.691-4.006-3.077-7.242-6.923-9.707-11.538-2.311-4.615-3.466-9.999-3.466-16.152 0-7.999 1.617-14.46 4.853-19.383 3.235-5.076 7.627-8.922 13.173-11.537 5.547-2.615 11.864-4.384 18.951-5.307 7.088-1.077 14.483-1.615 22.187-1.615h20.8c0-4.923-.848-9.23-2.543-12.922-1.694-3.692-4.237-6.538-7.626-8.5379-3.39-2.1537-7.781-3.2305-13.174-3.2305-3.543 0-6.856.4615-9.937 1.3845-3.082.7692-5.701 1.9998-7.858 3.6919-2.003 1.538-3.39 3.615-4.16 6.23h-30.969c1.079-6.461 3.236-11.9986 6.471-16.6135 3.39-4.7688 7.55-8.6146 12.48-11.5374 5.085-3.0766 10.554-5.3071 16.409-6.6916 6.009-1.5383 12.172-2.3075 18.489-2.3075 17.718 0 30.661 5.0764 38.826 15.2293 8.32 9.999 12.48 24.2287 12.48 42.6877v65.532h-27.04l-.462-15.69c-3.698 5.23-8.012 9.076-12.942 11.537s-9.707 4-14.329 4.615c-4.468.769-8.166 1.154-11.093 1.154zm6.471-24.229c5.701 0 10.862-1.077 15.484-3.23 4.623-2.308 8.32-5.384 11.094-9.23 2.773-4 4.16-8.538 4.16-13.614v-3.461h-22.187c-3.543 0-7.01.154-10.4.461-3.235.308-6.163.923-8.782 1.846s-4.776 2.385-6.471 4.384c-1.541 1.846-2.311 4.461-2.311 7.846 0 3.384.847 6.153 2.542 8.307 1.849 2.153 4.237 3.845 7.164 5.076 3.082 1.077 6.318 1.615 9.707 1.615z"/><path d="m296.929 193.004v-163.3681h62.631c12.48 0 23.265 1.9228 32.355 5.7686 9.244 3.692 16.332 9.6914 21.262 17.9982 5.085 8.1531 7.627 18.9213 7.627 32.3046 0 12.7679-2.774 23.4597-8.32 32.0737-5.547 8.461-13.173 14.845-22.88 19.152-9.553 4.153-20.492 6.23-32.818 6.23h-28.888v49.841zm30.969-77.53h28.426c10.169 0 18.335-2.462 24.498-7.384 6.163-4.923 9.244-12.4606 9.244-22.6135 0-9.076-2.619-15.8446-7.858-20.3057-5.084-4.6149-13.096-6.9224-24.035-6.9224h-30.275z"/></g></svg>
