<svg width="1202" height="238" viewBox="0 0 1202 238" >
<path d="M24.0361 8.43447C25.9209 7.1344 27.8681 5.96565 29.87 4.92571C74.052 -18.0256 105.562 43.9335 105.565 93.6596L105.571 177.904C105.572 200.786 93.5479 224.675 70.6305 224.676C34.5845 224.673 5.21728 200.309 5.21728 164.793C5.21728 142.606 36.6625 133.438 44.3598 122.885C-14.8537 98.2573 -7.47774 30.1771 24.0361 8.43447Z" fill="#0042DC"/>
<path d="M213.871 8.43447C211.986 7.1344 210.039 5.96565 208.037 4.92571C163.855 -18.0256 132.345 43.9335 132.342 93.6596L132.336 177.904C132.335 200.786 144.359 224.675 167.277 224.676C203.323 224.673 232.69 200.309 232.69 164.793C232.69 142.606 201.245 133.438 193.547 122.885C252.761 98.2573 245.385 30.1771 213.871 8.43447Z" fill="#0042DC"/>
<path d="M1150.69 194.62C1144.99 194.62 1139.14 194.004 1133.13 192.774C1127.27 191.543 1121.8 189.466 1116.72 186.544C1111.64 183.621 1107.32 179.621 1103.78 174.545C1100.39 169.468 1098.15 163.161 1097.08 155.623H1127.81C1128.89 158.7 1130.66 161.315 1133.13 163.469C1135.75 165.469 1138.75 166.93 1142.14 167.853C1145.53 168.776 1148.92 169.238 1152.31 169.238C1154.47 169.238 1156.7 169.084 1159.01 168.776C1161.32 168.468 1163.48 167.853 1165.48 166.93C1167.64 166.007 1169.34 164.776 1170.57 163.238C1171.8 161.546 1172.42 159.392 1172.42 156.777C1172.42 154.162 1171.65 152.162 1170.11 150.778C1168.57 149.239 1166.41 148.009 1163.64 147.086C1161.02 146.163 1157.86 145.317 1154.16 144.548C1147.69 143.163 1140.76 141.702 1133.36 140.163C1125.96 138.471 1119.57 135.933 1114.18 132.549C1112.02 131.011 1110.1 129.318 1108.4 127.472C1106.71 125.626 1105.24 123.627 1104.01 121.473C1102.93 119.166 1102.08 116.704 1101.47 114.089C1101.01 111.474 1100.77 108.705 1100.77 105.782C1100.77 99.1675 1102.16 93.5526 1104.93 88.9377C1107.71 84.3228 1111.4 80.6308 1116.03 77.8619C1120.65 74.9391 1125.89 72.7855 1131.74 71.401C1137.6 70.0165 1143.61 69.3243 1149.77 69.3243C1158.09 69.3243 1165.72 70.7087 1172.65 73.4777C1179.58 76.0928 1185.36 80.1693 1189.98 85.7073C1194.6 91.0914 1197.38 98.0907 1198.3 106.705H1169.41C1168.8 103.167 1166.56 100.321 1162.71 98.1676C1159.01 95.8601 1154.39 94.7064 1148.84 94.7064C1146.84 94.7064 1144.68 94.9371 1142.37 95.3986C1140.22 95.7063 1138.21 96.2447 1136.36 97.0138C1134.52 97.783 1132.98 98.9367 1131.74 100.475C1130.51 102.013 1129.89 103.936 1129.89 106.244C1129.89 108.244 1130.43 110.013 1131.51 111.551C1132.59 113.089 1134.21 114.397 1136.36 115.474C1138.52 116.397 1141.14 117.243 1144.22 118.012C1149.46 119.242 1154.78 120.396 1160.17 121.473C1165.72 122.396 1170.57 123.396 1174.73 124.473C1179.81 125.703 1184.36 127.626 1188.36 130.241C1192.52 132.703 1195.84 136.01 1198.3 140.163C1200.77 144.317 1202 149.624 1202 156.085C1202 163.623 1200.46 169.93 1197.38 175.006C1194.45 179.929 1190.44 183.851 1185.36 186.774C1180.28 189.543 1174.73 191.543 1168.72 192.774C1162.71 194.004 1156.7 194.62 1150.69 194.62Z" fill="#0042DC"/>
<path d="M974.695 193.004V71.401H1003.12L1004.74 86.1688C1007.97 81.8615 1011.75 78.5541 1016.06 76.2467C1020.53 73.7854 1025.08 72.0163 1029.7 70.9395C1034.32 69.8627 1038.63 69.3243 1042.64 69.3243C1054.2 69.3243 1063.29 71.8625 1069.91 76.9389C1076.54 82.0153 1081.24 88.8608 1084.01 97.4753C1086.94 105.936 1088.4 115.397 1088.4 125.857V193.004H1058.13V130.241C1058.13 126.088 1057.82 122.088 1057.2 118.243C1056.58 114.243 1055.43 110.628 1053.73 107.397C1052.04 104.167 1049.65 101.629 1046.57 99.7828C1043.49 97.783 1039.41 96.7831 1034.32 96.7831C1027.85 96.7831 1022.38 98.4752 1017.91 101.86C1013.6 105.09 1010.36 109.474 1008.21 115.012C1006.05 120.55 1004.97 126.78 1004.97 133.703V193.004H974.695Z" fill="#0042DC"/>
<path d="M903.361 194.62C890.881 194.62 880.096 192.081 871.006 187.005C861.915 181.929 854.828 174.775 849.744 165.546C844.813 156.162 842.348 145.086 842.348 132.318C842.348 119.396 844.89 108.244 849.975 98.8598C855.059 89.4761 862.146 82.2461 871.237 77.1696C880.327 71.9394 890.958 69.3243 903.13 69.3243C915.456 69.3243 926.087 71.9394 935.023 77.1696C944.113 82.3999 951.124 89.7838 956.054 99.3213C960.984 108.705 963.45 119.858 963.45 132.78C963.45 145.394 960.984 156.393 956.054 165.776C951.278 175.006 944.421 182.159 935.485 187.236C926.549 192.158 915.841 194.62 903.361 194.62ZM902.899 166.93C910.294 166.93 916.226 165.315 920.694 162.084C925.316 158.854 928.629 154.624 930.632 149.393C932.635 144.163 933.636 138.548 933.636 132.549C933.636 126.549 932.635 120.858 930.632 115.474C928.629 110.089 925.393 105.705 920.925 102.321C916.457 98.9367 910.448 97.2446 902.899 97.2446C895.657 97.2446 889.726 98.9367 885.103 102.321C880.635 105.705 877.323 110.089 875.166 115.474C873.163 120.704 872.161 126.396 872.161 132.549C872.161 138.548 873.163 144.24 875.166 149.624C877.323 154.854 880.635 159.085 885.103 162.315C889.726 165.392 895.657 166.93 902.899 166.93Z" fill="#0042DC"/>
<path d="M781.902 194.62C769.422 194.62 758.791 192.081 750.009 187.005C741.227 181.775 734.525 174.545 729.902 165.315C725.434 155.931 723.2 145.009 723.2 132.549C723.2 119.935 725.511 108.936 730.133 99.5521C734.91 90.0145 741.766 82.6306 750.702 77.4004C759.793 72.0163 770.732 69.3243 783.52 69.3243C793.072 69.3243 801.623 71.0164 809.173 74.4007C816.723 77.785 822.808 82.7076 827.431 89.1685C832.053 95.6294 834.826 103.552 835.751 112.935H806.169C804.474 107.397 801.546 103.321 797.386 100.706C793.38 98.0907 788.604 96.7831 783.058 96.7831C775.662 96.7831 769.807 98.6291 765.493 102.321C761.179 105.859 758.021 110.397 756.018 115.935C754.169 121.319 753.244 126.857 753.244 132.549C753.244 138.548 754.246 144.24 756.249 149.624C758.252 154.854 761.41 159.162 765.724 162.546C770.038 165.776 775.662 167.392 782.595 167.392C788.296 167.392 793.381 166.084 797.849 163.469C802.317 160.854 805.167 156.777 806.4 151.239H836.906C835.982 160.931 832.9 169.007 827.662 175.468C822.577 181.775 816.029 186.544 808.017 189.774C800.006 193.004 791.301 194.62 781.902 194.62Z" fill="#0042DC"/>
<path d="M681.348 193.004V71.401H711.623V193.004H681.348ZM696.601 58.2484C690.9 58.2484 686.278 56.5563 682.734 53.172C679.345 49.6339 677.65 45.1728 677.65 39.7887C677.65 34.2508 679.422 29.7128 682.965 26.1746C686.663 22.6365 691.285 20.8675 696.832 20.8675C701.916 20.8675 706.307 22.6365 710.005 26.1746C713.857 29.5589 715.783 34.02 715.783 39.558C715.783 45.0959 713.934 49.6339 710.236 53.172C706.693 56.5563 702.147 58.2484 696.601 58.2484Z" fill="#0042DC"/>
<path d="M548.207 238V71.401H576.633L578.02 87.0917C582.95 80.9385 588.651 76.4774 595.122 73.7084C601.593 70.7857 608.757 69.3243 616.615 69.3243C628.633 69.3243 638.571 72.0932 646.428 77.6311C654.286 83.1691 660.141 90.7068 663.993 100.244C667.999 109.628 670.002 120.165 670.002 131.857C670.002 143.855 667.922 154.624 663.762 164.161C659.756 173.545 653.67 181.006 645.504 186.544C637.492 191.928 627.4 194.62 615.229 194.62C609.682 194.62 604.597 194.004 599.975 192.774C595.353 191.543 591.193 189.851 587.495 187.697C583.952 185.39 580.947 182.852 578.482 180.083V238H548.207ZM610.144 167.392C617.694 167.392 623.626 165.699 627.94 162.315C632.254 158.931 635.335 154.624 637.184 149.393C639.033 144.009 639.957 138.394 639.957 132.549C639.957 126.396 638.956 120.627 636.953 115.243C635.104 109.705 631.945 105.244 627.477 101.86C623.009 98.4752 617.077 96.7831 609.682 96.7831C602.903 96.7831 597.125 98.4752 592.349 101.86C587.726 105.09 584.183 109.397 581.718 114.781C579.406 120.165 578.251 126.011 578.251 132.318C578.251 138.625 579.406 144.471 581.718 149.855C584.029 155.085 587.495 159.315 592.118 162.546C596.894 165.776 602.903 167.392 610.144 167.392Z" fill="#0042DC"/>
<path d="M466.531 194.62C460.83 194.62 455.438 193.85 450.353 192.312C445.269 190.774 440.724 188.543 436.718 185.621C432.712 182.544 429.476 178.698 427.011 174.083C424.7 169.468 423.545 164.084 423.545 157.931C423.545 149.932 425.162 143.471 428.398 138.548C431.633 133.472 436.025 129.626 441.571 127.011C447.118 124.396 453.435 122.627 460.522 121.704C467.61 120.627 475.005 120.089 482.709 120.089H503.509C503.509 115.166 502.661 110.859 500.966 107.167C499.272 103.475 496.729 100.629 493.34 98.6291C489.95 96.4754 485.559 95.3986 480.166 95.3986C476.623 95.3986 473.31 95.8601 470.229 96.7831C467.147 97.5523 464.528 98.7829 462.371 100.475C460.368 102.013 458.981 104.09 458.211 106.705H427.242C428.321 100.244 430.478 94.7064 433.713 90.0915C437.103 85.3227 441.263 81.4769 446.193 78.5541C451.278 75.4775 456.747 73.247 462.602 71.8625C468.611 70.3242 474.774 69.555 481.091 69.555C498.809 69.555 511.752 74.6314 519.917 84.7843C528.237 94.7833 532.397 109.013 532.397 127.472V193.004H505.357L504.895 177.314C501.197 182.544 496.883 186.39 491.953 188.851C487.023 191.312 482.246 192.851 477.624 193.466C473.156 194.235 469.458 194.62 466.531 194.62ZM473.002 170.391C478.703 170.391 483.864 169.314 488.486 167.161C493.109 164.853 496.806 161.777 499.58 157.931C502.353 153.931 503.74 149.393 503.74 144.317V140.856H481.553C478.01 140.856 474.543 141.01 471.153 141.317C467.918 141.625 464.99 142.24 462.371 143.163C459.752 144.086 457.595 145.548 455.9 147.547C454.359 149.393 453.589 152.008 453.589 155.393C453.589 158.777 454.436 161.546 456.131 163.7C457.98 165.853 460.368 167.545 463.295 168.776C466.377 169.853 469.613 170.391 473.002 170.391Z" fill="#0042DC"/>
<path d="M296.929 193.004V29.6359H359.56C372.04 29.6359 382.825 31.5587 391.915 35.4045C401.159 39.0965 408.247 45.0959 413.177 53.4027C418.262 61.5558 420.804 72.324 420.804 85.7073C420.804 98.4752 418.03 109.167 412.484 117.781C406.937 126.242 399.311 132.626 389.604 136.933C380.051 141.086 369.112 143.163 356.786 143.163H327.898V193.004H296.929ZM327.898 115.474H356.324C366.493 115.474 374.659 113.012 380.822 108.09C386.985 103.167 390.066 95.6294 390.066 85.4765C390.066 76.4005 387.447 69.6319 382.208 65.1708C377.124 60.5559 369.112 58.2484 358.173 58.2484H327.898V115.474Z" fill="#0042DC"/>
</svg>
