<svg width="268" height="53" viewBox="0 0 268 53" fill="none" xmlns="http://www.w3.org/2000/svg">
<path d="M6.25537 2.20604C6.67131 1.91869 7.10099 1.66037 7.54276 1.43052C17.2926 -3.64222 24.2461 10.0521 24.2468 21.0426L24.248 39.6626C24.2483 44.7199 21.5948 49.9999 16.5376 50V50C8.58313 49.9995 2.10255 44.6145 2.10255 36.7647C2.10255 31.8609 9.0417 29.8345 10.7403 27.5022C-2.32659 22.0588 -0.698918 7.01163 6.25537 2.20604Z" fill="#F2F2F2"/>
<path d="M48.1471 2.20604C47.7312 1.91869 47.3015 1.66037 46.8597 1.43052C37.1099 -3.64222 30.1563 10.0521 30.1557 21.0426L30.1545 39.6626C30.1542 44.7199 32.8076 49.9999 37.8649 50V50C45.8193 49.9995 52.2999 44.6145 52.2999 36.7647C52.2999 31.8609 45.3608 29.8345 43.6622 27.5022C56.7291 22.0588 55.1014 7.01163 48.1471 2.20604Z" fill="#F2F2F2"/>
<path d="M254.38 43.357C253.122 43.357 251.83 43.221 250.504 42.949C249.212 42.677 248.005 42.218 246.883 41.572C245.761 40.926 244.809 40.042 244.027 38.92C243.279 37.798 242.786 36.404 242.548 34.738H249.331C249.569 35.418 249.96 35.996 250.504 36.472C251.082 36.914 251.745 37.237 252.493 37.441C253.241 37.645 253.989 37.747 254.737 37.747C255.213 37.747 255.706 37.713 256.216 37.645C256.726 37.577 257.202 37.441 257.644 37.237C258.12 37.033 258.494 36.761 258.766 36.421C259.038 36.047 259.174 35.571 259.174 34.993C259.174 34.415 259.004 33.973 258.664 33.667C258.324 33.327 257.848 33.055 257.236 32.851C256.658 32.647 255.961 32.46 255.145 32.29C253.717 31.984 252.187 31.661 250.555 31.321C248.923 30.947 247.512 30.386 246.322 29.638C245.846 29.298 245.421 28.924 245.047 28.516C244.673 28.108 244.35 27.666 244.078 27.19C243.84 26.68 243.653 26.136 243.517 25.558C243.415 24.98 243.364 24.368 243.364 23.722C243.364 22.26 243.67 21.019 244.282 19.999C244.894 18.979 245.71 18.163 246.73 17.551C247.75 16.905 248.906 16.429 250.198 16.123C251.49 15.817 252.816 15.664 254.176 15.664C256.012 15.664 257.695 15.97 259.225 16.582C260.755 17.16 262.03 18.061 263.05 19.285C264.07 20.475 264.682 22.022 264.886 23.926H258.511C258.375 23.144 257.882 22.515 257.032 22.039C256.216 21.529 255.196 21.274 253.972 21.274C253.53 21.274 253.054 21.325 252.544 21.427C252.068 21.495 251.626 21.614 251.218 21.784C250.81 21.954 250.47 22.209 250.198 22.549C249.926 22.889 249.79 23.314 249.79 23.824C249.79 24.266 249.909 24.657 250.147 24.997C250.385 25.337 250.742 25.626 251.218 25.864C251.694 26.068 252.272 26.255 252.952 26.425C254.108 26.697 255.281 26.952 256.471 27.19C257.695 27.394 258.766 27.615 259.684 27.853C260.806 28.125 261.809 28.55 262.693 29.128C263.611 29.672 264.342 30.403 264.886 31.321C265.43 32.239 265.702 33.412 265.702 34.84C265.702 36.506 265.362 37.9 264.682 39.022C264.036 40.11 263.152 40.977 262.03 41.623C260.908 42.235 259.684 42.677 258.358 42.949C257.032 43.221 255.706 43.357 254.38 43.357Z" fill="#F2F2F2"/>
<path d="M215.541 43V16.123H221.814L222.171 19.387C222.885 18.435 223.718 17.704 224.67 17.194C225.656 16.65 226.659 16.259 227.679 16.021C228.699 15.783 229.651 15.664 230.535 15.664C233.085 15.664 235.091 16.225 236.553 17.347C238.015 18.469 239.052 19.982 239.664 21.886C240.31 23.756 240.633 25.847 240.633 28.159V43H233.952V29.128C233.952 28.21 233.884 27.326 233.748 26.476C233.612 25.592 233.357 24.793 232.983 24.079C232.609 23.365 232.082 22.804 231.402 22.396C230.722 21.954 229.821 21.733 228.699 21.733C227.271 21.733 226.064 22.107 225.078 22.855C224.126 23.569 223.412 24.538 222.936 25.762C222.46 26.986 222.222 28.363 222.222 29.893V43H215.541Z" fill="#F2F2F2"/>
<path d="M199.8 43.357C197.046 43.357 194.666 42.796 192.66 41.674C190.654 40.552 189.09 38.971 187.968 36.931C186.88 34.857 186.336 32.409 186.336 29.587C186.336 26.731 186.897 24.266 188.019 22.192C189.141 20.118 190.705 18.52 192.711 17.398C194.717 16.242 197.063 15.664 199.749 15.664C202.469 15.664 204.815 16.242 206.787 17.398C208.793 18.554 210.34 20.186 211.428 22.294C212.516 24.368 213.06 26.833 213.06 29.689C213.06 32.477 212.516 34.908 211.428 36.982C210.374 39.022 208.861 40.603 206.889 41.725C204.917 42.813 202.554 43.357 199.8 43.357ZM199.698 37.237C201.33 37.237 202.639 36.88 203.625 36.166C204.645 35.452 205.376 34.517 205.818 33.361C206.26 32.205 206.481 30.964 206.481 29.638C206.481 28.312 206.26 27.054 205.818 25.864C205.376 24.674 204.662 23.705 203.676 22.957C202.69 22.209 201.364 21.835 199.698 21.835C198.1 21.835 196.791 22.209 195.771 22.957C194.785 23.705 194.054 24.674 193.578 25.864C193.136 27.02 192.915 28.278 192.915 29.638C192.915 30.964 193.136 32.222 193.578 33.412C194.054 34.568 194.785 35.503 195.771 36.217C196.791 36.897 198.1 37.237 199.698 37.237Z" fill="#F2F2F2"/>
<path d="M172.997 43.357C170.243 43.357 167.897 42.796 165.959 41.674C164.021 40.518 162.542 38.92 161.522 36.88C160.536 34.806 160.043 32.392 160.043 29.638C160.043 26.85 160.553 24.419 161.573 22.345C162.627 20.237 164.14 18.605 166.112 17.449C168.118 16.259 170.532 15.664 173.354 15.664C175.462 15.664 177.349 16.038 179.015 16.786C180.681 17.534 182.024 18.622 183.044 20.05C184.064 21.478 184.676 23.229 184.88 25.303H178.352C177.978 24.079 177.332 23.178 176.414 22.6C175.53 22.022 174.476 21.733 173.252 21.733C171.62 21.733 170.328 22.141 169.376 22.957C168.424 23.739 167.727 24.742 167.285 25.966C166.877 27.156 166.673 28.38 166.673 29.638C166.673 30.964 166.894 32.222 167.336 33.412C167.778 34.568 168.475 35.52 169.427 36.268C170.379 36.982 171.62 37.339 173.15 37.339C174.408 37.339 175.53 37.05 176.516 36.472C177.502 35.894 178.131 34.993 178.403 33.769H185.135C184.931 35.911 184.251 37.696 183.095 39.124C181.973 40.518 180.528 41.572 178.76 42.286C176.992 43 175.071 43.357 172.997 43.357Z" fill="#F2F2F2"/>
<path d="M150.807 43V16.123H157.488V43H150.807ZM154.173 13.216C152.915 13.216 151.895 12.842 151.113 12.094C150.365 11.312 149.991 10.326 149.991 9.136C149.991 7.912 150.382 6.90899 151.164 6.12699C151.98 5.34499 153 4.95399 154.224 4.95399C155.346 4.95399 156.315 5.34499 157.131 6.12699C157.981 6.875 158.406 7.861 158.406 9.085C158.406 10.309 157.998 11.312 157.182 12.094C156.4 12.842 155.397 13.216 154.173 13.216Z" fill="#F2F2F2"/>
<path d="M121.426 52.945V16.123H127.699L128.005 19.591C129.093 18.231 130.351 17.245 131.779 16.633C133.207 15.987 134.788 15.664 136.522 15.664C139.174 15.664 141.367 16.276 143.101 17.5C144.835 18.724 146.127 20.39 146.977 22.498C147.861 24.572 148.303 26.901 148.303 29.485C148.303 32.137 147.844 34.517 146.926 36.625C146.042 38.699 144.699 40.348 142.897 41.572C141.129 42.762 138.902 43.357 136.216 43.357C134.992 43.357 133.87 43.221 132.85 42.949C131.83 42.677 130.912 42.303 130.096 41.827C129.314 41.317 128.651 40.756 128.107 40.144V52.945H121.426ZM135.094 37.339C136.76 37.339 138.069 36.965 139.021 36.217C139.973 35.469 140.653 34.517 141.061 33.361C141.469 32.171 141.673 30.93 141.673 29.638C141.673 28.278 141.452 27.003 141.01 25.813C140.602 24.589 139.905 23.603 138.919 22.855C137.933 22.107 136.624 21.733 134.992 21.733C133.496 21.733 132.221 22.107 131.167 22.855C130.147 23.569 129.365 24.521 128.821 25.711C128.311 26.901 128.056 28.193 128.056 29.587C128.056 30.981 128.311 32.273 128.821 33.463C129.331 34.619 130.096 35.554 131.116 36.268C132.17 36.982 133.496 37.339 135.094 37.339Z" fill="#F2F2F2"/>
<path d="M103.403 43.357C102.145 43.357 100.955 43.187 99.8326 42.847C98.7106 42.507 97.7076 42.014 96.8236 41.368C95.9396 40.688 95.2256 39.838 94.6816 38.818C94.1716 37.798 93.9166 36.608 93.9166 35.248C93.9166 33.48 94.2736 32.052 94.9876 30.964C95.7016 29.842 96.6706 28.992 97.8946 28.414C99.1186 27.836 100.513 27.445 102.077 27.241C103.641 27.003 105.273 26.884 106.973 26.884H111.563C111.563 25.796 111.376 24.844 111.002 24.028C110.628 23.212 110.067 22.583 109.319 22.141C108.571 21.665 107.602 21.427 106.412 21.427C105.63 21.427 104.899 21.529 104.219 21.733C103.539 21.903 102.961 22.175 102.485 22.549C102.043 22.889 101.737 23.348 101.567 23.926H94.7326C94.9706 22.498 95.4466 21.274 96.1606 20.254C96.9086 19.2 97.8266 18.35 98.9146 17.704C100.037 17.024 101.244 16.531 102.536 16.225C103.862 15.885 105.222 15.715 106.616 15.715C110.526 15.715 113.382 16.837 115.184 19.081C117.02 21.291 117.938 24.436 117.938 28.516V43H111.971L111.869 39.532C111.053 40.688 110.101 41.538 109.013 42.082C107.925 42.626 106.871 42.966 105.851 43.102C104.865 43.272 104.049 43.357 103.403 43.357ZM104.831 38.002C106.089 38.002 107.228 37.764 108.248 37.288C109.268 36.778 110.084 36.098 110.696 35.248C111.308 34.364 111.614 33.361 111.614 32.239V31.474H106.718C105.936 31.474 105.171 31.508 104.423 31.576C103.709 31.644 103.063 31.78 102.485 31.984C101.907 32.188 101.431 32.511 101.057 32.953C100.717 33.361 100.547 33.939 100.547 34.687C100.547 35.435 100.734 36.047 101.108 36.523C101.516 36.999 102.043 37.373 102.689 37.645C103.369 37.883 104.083 38.002 104.831 38.002Z" fill="#F2F2F2"/>
<path d="M65.9758 43V6.892H79.7968C82.5508 6.892 84.9308 7.317 86.9368 8.167C88.9768 8.983 90.5408 10.309 91.6288 12.145C92.7508 13.947 93.3118 16.327 93.3118 19.285C93.3118 22.107 92.6998 24.47 91.4758 26.374C90.2518 28.244 88.5688 29.655 86.4268 30.607C84.3188 31.525 81.9048 31.984 79.1848 31.984H72.8098V43H65.9758ZM72.8098 25.864H79.0828C81.3268 25.864 83.1288 25.32 84.4888 24.232C85.8488 23.144 86.5288 21.478 86.5288 19.234C86.5288 17.228 85.9508 15.732 84.7948 14.746C83.6728 13.726 81.9048 13.216 79.4908 13.216H72.8098V25.864Z" fill="#F2F2F2"/>
</svg>
